<?xml version="1.0" encoding="utf-8"?>
<svg version="1.1" xmlns:xlink="http://www.w3.org/1999/xlink" width="12px" height="10px" xmlns="http://www.w3.org/2000/svg">
  <g transform="matrix(1 0 0 1 -544 -27 )">
    <path d="M 6.32334359391587 9.90721246784973  C 6.22416958165059 9.96885522251109  6.11196927208471 10.0008463365309  5.99797574831177 9.99998297701666  C 5.88398222453884 10.0008463365309  5.77178191497308 9.96885522251109  5.67260790270768 9.90721246784973  L 0.323560520975093 6.51752078675053  C 0.123241327871369 6.38974826627314  0 6.15479028537383  0 5.90065688224612  C 0 5.77382690306653  0.0308229480129967 5.6492883780803  0.0892956721401106 5.53986234399138  C 0.267993211603311 5.20008220715291  0.663258102309101 5.08215527075571  0.974296212183503 5.27582320251629  L 5.99797574831177 8.46570147925597  L 11.0216552844402 5.28295939552913  C 11.1206534242665 5.22056583831421  11.2328402607686 5.18773113211063  11.3470231300444 5.18773113211063  C 11.7076522973132 5.18773113211063  12 5.50832975017019  12 5.90380818764626  C 12 6.16014461178441  11.8750539645029 6.39692867282139  11.6723909756485 6.52465697976337  L 6.32334359391587 9.90721246784973  Z M 6.32334359391587 4.72633634052758  C 6.22480086064979 4.79047400831892  6.11256132781091 4.82493802107136  5.99797574831177 4.82624304270734  C 5.88339016881264 4.82493802107136  5.77115063597375 4.79047400831892  5.67260790270768 4.72633634052758  L 0.323560520975093 1.34378085244121  C 0.123241327871369 1.21600833196382  0 0.981050351064513  0 0.726916947936803  C 0 0.600086968757207  0.0308229480129967 0.475548443770975  0.0892956721401106 0.36612240968207  C 0.26575670882994 0.0237397249141864  0.661556060636713 -0.0975381916067128  0.974296212183503 0.0949470751941347  L 5.99797574831177 3.28482535193381  L 11.0216552844402 0.0949470751941347  C 11.3309975663203 -0.0999295946944584  11.7257439947667 0.01465962505657  11.9066558244836 0.351850023656393  C 11.9651285486107 0.461276057745294  11.9959514966235 0.585814582731529  11.9959514966235 0.712644561911126  C 11.9959514966235 0.966777965038836  11.8727101687522 1.20173594593815  11.6723909756485 1.32950846641553  L 6.32334359391587 4.72633634052758  Z " fill-rule="nonzero" fill="#16a4fa" stroke="none" transform="matrix(1 0 0 1 544 27 )" />
  </g>
</svg>