<?xml version="1.0" encoding="utf-8"?>
<svg version="1.1" xmlns:xlink="http://www.w3.org/1999/xlink" width="12px" height="10px" xmlns="http://www.w3.org/2000/svg">
  <g transform="matrix(1 0 0 1 -585 -29 )">
    <path d="M 11.675 4.06875  C 11.5661427786517 4.26771638841745  11.358042394068 4.39209822747896  11.13125 4.39375  C 11.0233231938558 4.39152047519789  10.9178138296405 4.36137494256494  10.825 4.30625  L 6 1.5  L 1.175 4.30625  C 0.877891774975326 4.47692632344195  0.498757018557037 4.37656712321358  0.325 4.08125  C 0.268839790758109 3.98541280615938  0.239235847454646 3.87633983409102  0.239235847454646 3.76525996721436  C 0.239235847454646 3.54268558242821  0.357603152276289 3.33690536067996  0.550000000000001 3.225  L 5.6875 0.25  C 5.88087567297406 0.138354503153699  6.11912432702593 0.138354503153699  6.3125 0.25  L 11.45 3.2125  C 11.6423968477237 3.32440536067995  11.7607641525454 3.53018558242821  11.7607641525454 3.75275996721436  C 11.7607641525454 3.86383983409102  11.7311602092419 3.97291280615938  11.675 4.06875  Z M 11.675 8.91875  C 11.5629118963309 9.11289637045344  11.3554279740236 9.23214000396342  11.13125 9.23125  C 11.0238823407028 9.23092145531502  10.9184097982413 9.20293894404973  10.825 9.15  L 6 6.3625  L 1.175 9.15  C 0.876263014618863 9.31961768989791  0.496630300402223 9.21633526029486  0.325 8.91875  C 0.268839790758111 8.82291280615938  0.239235847454646 8.71383983409102  0.239235847454646 8.60275996721436  C 0.239235847454646 8.38018558242821  0.357603152276289 8.17440536067995  0.550000000000001 8.0625  L 5.6875 5.1  C 5.88087567297406 4.9883545031537  6.11912432702594 4.9883545031537  6.3125 5.1  L 11.45 8.0625  C 11.6423968477237 8.17440536067995  11.7607641525454 8.38018558242821  11.7607641525454 8.60275996721436  C 11.7607641525454 8.71383983409103  11.7311602092419 8.82291280615938  11.675 8.91875  Z " fill-rule="nonzero" fill="#0ba1e4" stroke="none" transform="matrix(1 0 0 1 585 29 )" />
  </g>
</svg>