<?xml version="1.0" encoding="utf-8"?>
<svg version="1.1" xmlns:xlink="http://www.w3.org/1999/xlink" width="26px" height="38px" xmlns="http://www.w3.org/2000/svg">
  <g transform="matrix(1 0 0 1 -443 -9 )">
    <path d="M 20.1220703125 4.54296875  L 20.1220703125 4.5517578125  C 19.9111328125 4.60009765625  19.68701171875 4.54296875  19.52880859375 4.3935546875  C 19.41015625 4.28369140625  19.34423828125 4.13427734375  19.34423828125 3.9716796875  C 19.34423828125 3.8134765625  19.41015625 3.65966796875  19.52880859375 3.5498046875  L 21.16357421875 1.91064453125  C 21.2734375 1.7919921875  21.4228515625 1.72607421875  21.58544921875 1.72607421875  C 21.748046875 1.72607421875  21.8974609375 1.7919921875  22.00732421875 1.91064453125  C 22.1259765625 2.0205078125  22.19189453125 2.169921875  22.19189453125 2.33251953125  C 22.19189453125 2.49072265625  22.1259765625 2.64453125  22.00732421875 2.75439453125  L 20.37255859375 4.3935546875  C 20.271484375 4.49462890625  20.22314453125 4.54296875  20.1220703125 4.54296875  Z M 24.1826171875 7.83447265625  C 24.1826171875 8.08056640625  24.0244140625 8.30029296875  23.787109375 8.375  C 23.71240234375 8.41455078125  23.62451171875 8.43212890625  23.53662109375 8.427734375  L 21.4580078125 8.181640625  C 21.12841796875 8.1552734375  20.88671875 7.865234375  20.9130859375 7.53564453125  C 20.939453125 7.2060546875  21.2294921875 6.96435546875  21.55908203125 6.99072265625  L 23.6376953125 7.1884765625  C 23.96728515625 7.21923828125  24.208984375 7.5048828125  24.1826171875 7.83447265625  Z M 16.94921875 3.45751953125  C 16.88330078125 3.6025390625  16.755859375 3.7080078125  16.60205078125 3.7607421875  C 16.45263671875 3.8134765625  16.28564453125 3.7958984375  16.14501953125 3.72119140625  C 16.00439453125 3.646484375  15.9033203125 3.5146484375  15.859375 3.365234375  L 15.1650390625 1.37890625  C 15.0595703125 1.080078125  15.21337890625 0.746093749999999  15.51220703125 0.6318359375  C 15.66162109375 0.579101562499999  15.82861328125 0.592285156249999  15.96923828125 0.666992187499999  C 16.10986328125 0.74169921875  16.21533203125 0.869140624999999  16.25927734375 1.02294921875  L 16.95361328125 3.00927734375  C 17.01513671875 3.154296875  17.01513671875 3.31689453125  16.94921875 3.45751953125  Z M 9.17529296875 36.09130859375  C 9.0830078125 36.18359375  8.9599609375 36.236328125  8.828125 36.236328125  L 1.2958984375 36.236328125  C 1.0234375 36.236328125  0.79931640625 36.01220703125  0.79931640625 35.73974609375  C 0.79931640625 35.46728515625  1.0234375 35.2431640625  1.2958984375 35.2431640625  L 8.82373046875 35.2431640625  C 8.9599609375 35.234375  9.08740234375 35.28271484375  9.18408203125 35.37939453125  C 9.28076171875 35.47607421875  9.3291015625 35.60791015625  9.3203125 35.73974609375  C 9.3203125 35.87158203125  9.267578125 35.9990234375  9.17529296875 36.09130859375  Z M 18.04345703125 33  L 1.2958984375 33  C 1.0234375 33.59521484375  0.799316406249998 33.37109375  0.799316406249998 33.0986328125  C 0.799316406249998 32.826171875  1.0234375 32.60205078125  1.2958984375 32  L 18.04345703125 32  C 18.31591796875 32.5537109375  18.5400390625 32.77783203125  18.5400390625 33.05029296875  C 18.5400390625 33.32275390625  18.31591796875 33.546875  18.04345703125 33  Z " fill-rule="nonzero" fill="#cccccc" stroke="none" transform="matrix(1 0 0 1 443 9 )" />
  </g>
</svg>