<?xml version="1.0" encoding="utf-8"?>
<svg version="1.1" xmlns:xlink="http://www.w3.org/1999/xlink" width="18px" height="18px" xmlns="http://www.w3.org/2000/svg">
  <g transform="matrix(1 0 0 1 -29 -10 )">
    <path d="M 8.30769230769231 12.4615384615385  C 8.30769230769231 10.9384615384615  7.06153846153847 9.69230769230769  5.53846153846154 9.69230769230769  L 2.76923076923077 9.69230769230769  C 1.24615384615385 9.69230769230769  0 10.9384615384615  0 12.4615384615385  L 0 15.2307692307692  C 0 16.7538461538462  1.24615384615385 18  2.76923076923077 18  L 5.53846153846154 18  C 7.06153846153847 18  8.30769230769231 16.7538461538462  8.30769230769231 15.2307692307692  L 8.30769230769231 12.4615384615385  Z M 6.92307692307693 12.4615384615385  L 6.92307692307693 15.2307692307692  C 6.92307692307693 15.9923076923077  6.3 16.6153846153846  5.53846153846154 16.6153846153846  L 2.76923076923077 16.6153846153846  C 2.00769230769232 16.6153846153846  1.38461538461539 15.9923076923077  1.38461538461539 15.2307692307692  L 1.38461538461539 12.4615384615385  C 1.38461538461539 11.7  2.00769230769232 11.0769230769231  2.76923076923077 11.0769230769231  L 5.53846153846154 11.0769230769231  C 6.3 11.0769230769231  6.92307692307693 11.7  6.92307692307693 12.4615384615385  Z M 18 2.76923076923077  C 18 1.24615384615385  16.7538461538462 0  15.2307692307692 0  L 12.4615384615385 0  C 10.9384615384615 0  9.6923076923077 1.24615384615385  9.6923076923077 2.76923076923077  L 9.6923076923077 5.53846153846153  C 9.6923076923077 7.06153846153846  10.9384615384615 8.30769230769231  12.4615384615385 8.30769230769231  L 15.2307692307692 8.30769230769231  C 16.7538461538462 8.30769230769231  18 7.06153846153846  18 5.53846153846153  L 18 2.76923076923077  Z M 16.6153846153846 2.76923076923077  L 16.6153846153846 5.53846153846153  C 16.6153846153846 6.3  15.9923076923077 6.92307692307692  15.2307692307692 6.92307692307692  L 12.4615384615385 6.92307692307692  C 11.7 6.92307692307692  11.0769230769231 6.3  11.0769230769231 5.53846153846153  L 11.0769230769231 2.76923076923077  C 11.0769230769231 2.00769230769231  11.7 1.38461538461539  12.4615384615385 1.38461538461539  L 15.2307692307692 1.38461538461539  C 15.9923076923077 1.38461538461539  16.6153846153846 2.00769230769231  16.6153846153846 2.76923076923077  Z M 18 12.4615384615385  C 18 10.9384615384615  16.7538461538462 9.69230769230769  15.2307692307692 9.69230769230769  L 12.4615384615385 9.69230769230769  C 10.9384615384615 9.69230769230769  9.6923076923077 10.9384615384615  9.6923076923077 12.4615384615385  L 9.6923076923077 15.2307692307692  C 9.6923076923077 16.7538461538462  10.9384615384615 18  12.4615384615385 18  L 15.2307692307692 18  C 16.7538461538462 18  18 16.7538461538462  18 15.2307692307692  L 18 12.4615384615385  Z M 16.6153846153846 12.4615384615385  L 16.6153846153846 15.2307692307692  C 16.6153846153846 15.9923076923077  15.9923076923077 16.6153846153846  15.2307692307692 16.6153846153846  L 12.4615384615385 16.6153846153846  C 11.7 16.6153846153846  11.0769230769231 15.9923076923077  11.0769230769231 15.2307692307692  L 11.0769230769231 12.4615384615385  C 11.0769230769231 11.7  11.7 11.0769230769231  12.4615384615385 11.0769230769231  L 15.2307692307692 11.0769230769231  C 15.9923076923077 11.0769230769231  16.6153846153846 11.7  16.6153846153846 12.4615384615385  Z M 8.30769230769231 2.76923076923077  C 8.30769230769231 1.24615384615385  7.06153846153847 0  5.53846153846154 0  L 2.76923076923077 0  C 1.24615384615385 0  0 1.24615384615385  0 2.76923076923077  L 0 5.53846153846153  C 0 7.06153846153846  1.24615384615385 8.30769230769231  2.76923076923077 8.30769230769231  L 5.53846153846154 8.30769230769231  C 7.06153846153847 8.30769230769231  8.30769230769231 7.06153846153846  8.30769230769231 5.53846153846153  L 8.30769230769231 2.76923076923077  Z M 6.92307692307693 2.76923076923077  L 6.92307692307693 5.53846153846153  C 6.92307692307693 6.3  6.3 6.92307692307692  5.53846153846154 6.92307692307692  L 2.76923076923077 6.92307692307692  C 2.00769230769232 6.92307692307692  1.38461538461539 6.3  1.38461538461539 5.53846153846153  L 1.38461538461539 2.76923076923077  C 1.38461538461539 2.00769230769231  2.00769230769232 1.38461538461539  2.76923076923077 1.38461538461539  L 5.53846153846154 1.38461538461539  C 6.3 1.38461538461539  6.92307692307693 2.00769230769231  6.92307692307693 2.76923076923077  Z " fill-rule="nonzero" fill="#969696" stroke="none" transform="matrix(1 0 0 1 29 10 )" />
  </g>
</svg>