<?xml version="1.0" encoding="utf-8"?>
<svg version="1.1" xmlns:xlink="http://www.w3.org/1999/xlink" width="18px" height="18px" xmlns="http://www.w3.org/2000/svg">
  <g transform="matrix(1 0 0 1 -152 -11 )">
    <path d="M 10.2524630541581 2.46421904161487  C 10.2413793103833 2.71064094571483  10.4298029555689 2.92345986308783  10.6736453202371 2.92345986308783  L 17.5788177339209 2.92345986308783  C 17.8115763546115 2.92345986308783  18 2.71064094591992  18 2.46421904161487  C 18 2.22899813309056  17.8115763546115 2.00497822014189  17.5788177339209 2.004978220347  L 10.6736453202371 2.004978220347  C 10.4408866995466 2.004978220347  10.2524630541581 2.21779713751491  10.2524630541581 2.46421904161487  Z M 18 5.73490976980391  C 18 5.48848786570395  17.8115763546115 5.27566894833093  17.5788177339209 5.27566894833093  L 10.6736453202371 5.27566894833093  C 10.4408866995466 5.27566894833093  10.2524630541581 5.48848786549884  10.2524630541581 5.73490976980391  C 10.2524630541581 5.9701306783282  10.4408866995466 6.19415059127687  10.6736453202371 6.19415059107178  L 17.5788177339209 6.19415059107178  C 17.8115763546115 6.19415059107178  18 5.98133167390385  18 5.73490976980391  Z M 8.02463054183445 2.35220908524309  C 8.03571428560917 1.05289359046901  6.99384236449066 0  5.69704433492913 0  L 2.32758620690529 0  C 1.04187192111854 0  0 1.05289359046901  0 2.35220908524309  L 0 5.75731176095519  C 0 7.05662725572927  1.04187192111854 8.10952084619828  2.32758620690529 8.10952084619828  L 5.69704433492913 8.10952084619828  C 6.98275862071588 8.10952084619828  8.02463054183445 7.05662725572927  8.02463054183445 5.75731176095519  L 8.02463054183445 2.35220908524309  Z M 7.12684729059953 2.35220908524309  L 7.12684729059953 5.75731176095519  C 7.12684729059953 6.58618543868064  6.51724137933485 7.20224019903308  5.69704433492913 7.20224019903308  L 2.32758620690529 7.20224019903308  C 1.50738916249961 7.20224019903308  0.897783251234898 6.58618543868064  0.897783251234898 5.75731176095519  L 0.897783251234898 2.35220908524309  C 0.897783251234898 1.52333540751764  1.50738916249961 0.90728064716518  2.32758620690529 0.90728064716518  L 5.69704433492913 0.90728064716518  C 6.51724137933485 0.90728064716518  7.12684729059953 1.52333540751764  7.12684729059953 2.35220908524309  Z M 18 12.3771001865679  C 18 12.1306782824679  17.8115763546115 11.9178593650949  17.5788177339209 11.9178593653  L 10.6736453202371 11.9178593653  C 10.4408866995466 11.9178593653  10.2524630541581 12.1306782824679  10.2524630541581 12.3771001865679  C 10.2524630541581 12.6123210950922  10.4408866995466 12.8363410080408  10.6736453202371 12.8363410080408  L 17.5788177339209 12.8363410080408  C 17.8115763546115 12.8363410080408  18 12.6235220908729  18 12.3771001865679  Z M 18 15.6253889234005  C 18 15.3901680148762  17.8115763546115 15.1661481019275  17.5788177339209 15.1661481019275  L 10.6736453202371 15.1661481019275  C 10.4408866995466 15.1661481019275  10.2524630541581 15.3789670190955  10.2524630541581 15.6253889234005  C 10.2524630541581 15.8606098319248  10.4408866995466 16.0846297448735  10.6736453202371 16.0846297448735  L 17.5788177339209 16.0846297448735  C 17.8115763546115 16.0846297448735  18 15.8718108277056  18 15.6253889234005  Z M 8.02463054183445 12.2538892346205  C 8.03571428560917 10.9433727442707  6.99384236449066 9.89047915380172  5.69704433492913 9.89047915359662  L 2.32758620690529 9.89047915359662  C 1.04187192111854 9.89047915359662  0 10.9433727440656  0 12.2426882388397  L 0 15.6477909147569  C 0 16.947106409531  1.04187192111854 18  2.32758620690529 18  L 5.69704433492913 18  C 6.98275862071588 18  8.02463054183445 16.947106409531  8.02463054183445 15.6477909147569  L 8.02463054183445 12.2538892346205  Z M 7.12684729059953 12.2538892346205  L 7.12684729059953 15.6589919103326  C 7.12684729059953 16.487865588058  6.51724137933485 17.1039203484105  5.69704433492913 17.1039203484105  L 2.32758620690529 17.1039203484105  C 1.50738916249961 17.1039203484105  0.897783251234898 16.487865588058  0.897783251234898 15.6589919103326  L 0.897783251234898 12.2538892346205  C 0.897783251234898 11.425015556895  1.50738916249961 10.8089607965426  2.32758620690529 10.8089607965426  L 5.69704433492913 10.8089607965426  C 6.51724137933485 10.8089607965426  7.12684729059953 11.425015556895  7.12684729059953 12.2538892346205  Z " fill-rule="nonzero" fill="#969696" stroke="none" transform="matrix(1 0 0 1 152 11 )" />
  </g>
</svg>