<?xml version="1.0" encoding="utf-8"?>
<svg version="1.1" xmlns:xlink="http://www.w3.org/1999/xlink" width="36px" height="53px" xmlns="http://www.w3.org/2000/svg">
  <g transform="matrix(1 0 0 1 -508 -64 )">
    <path d="M 28.2625 6.15  L 28.2625 6.1625  C 27.9625 6.23125  27.64375 6.15  27.41875 5.9375  C 27.25 5.78125  27.15625 5.56875  27.15625 5.3375  C 27.15625 5.1125  27.25 4.89375  27.41875 4.7375  L 29.74375 2.40625  C 29.9 2.2375  30.1125 2.14375  30.34375 2.14375  C 30.575 2.14375  30.7875 2.2375  30.94375 2.40625  C 31.1125 2.5625  31.20625 2.775  31.20625 3.00625  C 31.20625 3.23125  31.1125 3.45  30.94375 3.60625  L 28.61875 5.9375  C 28.475 6.08125  28.40625 6.15  28.2625 6.15  Z M 34.0375 10.83125  C 34.0375 11.18125  33.8125 11.49375  33.475 11.6  C 33.36875 11.65625  33.24375 11.68125  33.11875 11.675  L 30.1625 11.325  C 29.69375 11.2875  29.35 10.875  29.3875 10.40625  C 29.425 9.9375  29.8375 9.59375  30.30625 9.63125  L 33.2625 9.9125  C 33.73125 9.95625  34.075 10.3625  34.0375 10.83125  Z M 23.75 4.60625  C 23.65625 4.8125  23.475 4.9625  23.25625 5.0375  C 23.04375 5.1125  22.80625 5.0875  22.60625 4.98125  C 22.40625 4.875  22.2625 4.6875  22.2 4.475  L 21.2125 1.65  C 21.0625 1.225  21.28125 0.749999999999999  21.70625 0.587499999999999  C 21.91875 0.512499999999999  22.15625 0.531249999999999  22.35625 0.637499999999999  C 22.55625 0.743749999999999  22.70625 0.924999999999999  22.76875 1.14375  L 23.75625 3.96875  C 23.84375 4.175  23.84375 4.40625  23.75 4.60625  Z M 12.69375 51.01875  C 12.5625 51.15  12.3875 51.225  12.2 51  L 1.4875 51  C 1.1 51.225  0.78125 50.90625  0.78125 50.51875  C 0.78125 50.13125  1.1 49.8125  1.4875 49  L 12.19375 49  C 12.3875 49.8  12.56875 49.86875  12.70625 50.00625  C 12.84375 50.14375  12.9125 50.33125  12.9 50.51875  C 12.9 50.70625  12.825 50.8875  12.69375 51.01875  Z M 25.30625 47  L 1.4875 47  C 1.1 47.46875  0.781249999999996 47.15  0.781249999999996 46.7625  C 0.781249999999996 46.375  1.1 46.05625  1.4875 46  L 25.30625 46  C 25.69375 45.9875  26.0125 46.30625  26.0125 46.69375  C 26.0125 47.08125  25.69375 47.4  25.30625 47  Z " fill-rule="nonzero" fill="#dbdbdb" stroke="none" transform="matrix(1 0 0 1 508 64 )" />
  </g>
</svg>