<?xml version="1.0" encoding="utf-8"?>
<svg version="1.1" xmlns:xlink="http://www.w3.org/1999/xlink" width="18px" height="15px" xmlns="http://www.w3.org/2000/svg">
  <g transform="matrix(1 0 0 1 -449 -13 )">
    <path d="M 4.18421644729381 1.9762845851957  C 4.18421644729381 1.9762845851957  4.18421644729381 1.9762845851957  4.18421644729381 2  L 17.3420950067225 2  C 17.3420950067225 1.9762845851957  17.3420950067225 1.9762845851957  17.3420950067225 1.9762845851957  C 17.7054397901987 1.9762845851957  17.999988934787 1.53387821146249  17.999988934787 0.988142292597843  C 17.999988934787 0.442406373733235  17.7054397901987 0  17.3420950067225 0  L 4.18421644729381 0  C 3.82087166381751 0  3.52632251922932 0.442406373733235  3.52632251922932 0.988142292597843  C 3.52632251922932 1.53387821146249  3.82087166381751 1.9762845851957  4.18421644729381 1.9762845851957  Z M 17.3420950067225 6.52173913072647  L 4.18421644729381 6.52173913072647  C 3.82086059856266 6.52173913058672  3.5263114540162 6.96414550425733  3.5263114540162 7.50988142304479  C 3.5263114540162 8.05561734183222  3.82086059856266 8.49802371550285  4.18420538198768 8.49802371550285  L 17.3420950067225 8.4980237153631  C 17.7054508554534 8.49802371550285  18 8.05561734183222  18 7.50988142304479  C 18 6.96414550425733  17.7054508554534 6.52173913058672  17.3421060720286 6.52173913058672  Z M 17.3420950067225 13.0237154145248  C 17.3420950067225 13.0237154145248  17.3420950067225 13.0237154145248  17.3420950067225 13  L 4.18421644729381 13  C 4.18421644729381 13.0237154145248  4.18421644729381 13.0237154145248  4.18421644729381 13.0237154145248  C 3.82087166376607 13.0237154145248  3.52632251913622 13.4661217883206  3.52632251913622 14.0118577072624  C 3.52632251913622 14.5575936262042  3.82087166376607 15  4.18421644729381 15  L 17.3420950067225 15  C 17.7054397902501 15  17.99998893488 14.5575936262042  17.99998893488 14.0118577072624  C 17.99998893488 13.4661217883206  17.7054397902501 13.0237154145248  17.3420950067225 13.0237154145248  Z M 1.31579892124904 0  L 0.657904993277441 0  C 0.294560209801261 0  1.10652130160815E-05 0.442406373733235  1.10652130160815E-05 0.988142292597843  C 1.10652130160815E-05 1.53387821146249  0.294560209801261 1.9762845851957  0.657904993277441 1.9762845851957  L 1.31579892124904 1.9762845851957  C 1.67914370472522 1.9762845851957  1.97369284931335 1.53387821146249  1.97369284931335 0.988142292597843  C 1.97369284931335 0.442406373733235  1.67914370472522 0  1.31579892124904 0  Z M 1.31579892124904 6.52173913072647  L 0.657904993277441 6.52173913072647  C 0.294549144546579 6.52173913058672  0 6.96414550425733  0 7.50988142304479  C 0 8.05561734183222  0.294549144546579 8.49802371550285  0.657893927971315 8.49802371550285  L 1.31579892124904 8.4980237153631  C 1.67915476998002 8.49802371550285  1.97370391452648 8.05561734183222  1.97370391452648 7.50988142304479  C 1.97370391452648 6.96414550425733  1.67915476998002 6.52173913058672  1.315809986555 6.52173913058672  Z M 1.31579892124904 13.0237154145248  L 0.657904993277441 13.0237154145248  C 0.294560209749875 13.0237154145248  1.10651200202483E-05 13.4661217883206  1.10651200202483E-05 14.0118577072624  C 1.10651200202483E-05 14.5575936262042  0.294560209749875 15  0.657904993277441 15  L 1.31579892124904 15  C 1.67914370477661 15  1.97369284940646 14.5575936262042  1.97369284940646 14.0118577072624  C 1.97369284940646 13.4661217883206  1.67914370477661 13.0237154145248  1.31579892124904 13.0237154145248  Z " fill-rule="nonzero" fill="#777777" stroke="none" transform="matrix(1 0 0 1 449 13 )" />
  </g>
</svg>