<?xml version="1.0" encoding="utf-8"?>
<svg version="1.1" xmlns:xlink="http://www.w3.org/1999/xlink" width="46px" height="35px" xmlns="http://www.w3.org/2000/svg">
  <g transform="matrix(1 0 0 1 -501 -73 )">
    <path d="M 2.80625 9.09375  C 3.125 9.41875  3.60625 9.53125  4.03125 9.375  C 4.45625 9.225  4.75625 8.8375  4.8 8.3875  C 3.9875 5.84375  3.175 3.29375  2.35625 0.75  C 2.20625 0.275  1.6375 0.03125  1.0875 0.206250000000001  C 0.5375 0.381250000000001  0.206250000000001 0.90625  0.362500000000001 1.38125  C 1.175 3.95  1.9875 6.51875  2.80625 9.09375  Z M 9.3 29.125  C 9.6125 29.45625  10.09375 29.5625  10.525 29.40625  C 10.95 29.25625  11.25 28.86875  11.29375 28.41875  C 10.48125 25.875  9.66875 23.325  8.85 20.78125  C 8.7 20.30625  8.13125 20.0625  7.58125 20.2375  C 7.03125 20.4125  6.7 20.9375  6.85625 21.4125  C 7.66875 23.98125  8.48125 26.55  9.3 29.125  Z M 11.05 34.05  C 11.36875 34.38125  11.85 34.4875  12.275 34.33125  C 12.7 34.18125  13 33.79375  13.04375 33.34375  C 12.23125 30.8  13.025 33.30625  12.2125 30.7625  C 12.0625 30.2875  11.49375 30.04375  10.94375 30.21875  C 10.39375 30.39375  10.0625 30.91875  10.21875 31.39375  C 11.03125 33.9625  10.2375 31.48125  11.05 34.05  Z M 10.89375 33.61875  C 11.00625 34.05625  11.36875 34.3875  11.81875 34.46875  C 14.39375 33.675  11.9 34.43125  14.475 33.6375  C 14.95 33.49375  15.2 32.91875  15.03125 32.36875  C 14.8625 31.81875  14.3375 31.4875  13.8625 31.63125  C 11.30625 32.4125  13.825 31.6375  11.26875 32.425  C 10.925 32.71875  10.78125 33.18125  10.89375 33.61875  Z M 6.025 19.125  C 6.34375 19.45  6.825 19.55625  7.25 19.40625  C 7.675 19.25625  7.975 18.86875  8.01875 18.41875  C 7.20625 15.875  6.39375 13.325  5.575 10.78125  C 5.425 10.30625  4.85625 10.0625  4.30625 10.2375  C 3.75625 10.4125  3.425 10.9375  3.58125 11.4125  C 4.39375 13.98125  5.20625 16.55  6.025 19.125  Z M 36.2625 24.8125  C 36.39375 25.25  36.76875 25.56875  37.21875 25.63125  C 39.7625 24.7375  42.30625 23.85  44.85 22.95625  C 45.325 22.79375  45.54375 22.2125  45.35625 21.66875  C 45.16875 21.125  44.63125 20.8125  44.1625 20.975  C 41.6375 21.85  39.1125 22.73125  36.5875 23.60625  C 36.25625 23.9125  36.13125 24.38125  36.2625 24.8125  Z M 16.28125 31.7625  C 16.4125 32.19375  16.7875 32.51875  17.2375 32.58125  C 19.78125 31.6875  22.325 30.8  24.86875 29.90625  C 25.34375 29.74375  25.5625 29.1625  25.375 28.61875  C 25.1875 28.075  24.65 27.7625  24.18125 27.925  C 21.65625 28.8  19.13125 29.68125  16.60625 30.55625  C 16.275 30.8625  16.15 31.33125  16.28125 31.7625  Z M 26.25 28.36875  C 26.375 28.80625  26.75 29.125  27.20625 29.1875  C 29.75 28.29375  32.29375 27.40625  34.8375 26.5125  C 35.3125 26.35  35.53125 25.76875  35.34375 25.225  C 35.15625 24.68125  34.61875 24.36875  34.15 24.53125  C 31.625 25.40625  29.1 26.2875  26.575 27.1625  C 26.24375 27.46875  26.11875 27.9375  26.25 28.36875  Z M 14.99375 21.38125  C 15.5125 21.64375  16.15 21.44375  16.41875 20.925  L 19.09375 15.74375  L 25.11875 18.85625  C 25.36875 18.9875  25.65625 19.0125  25.925 18.925  L 25.95 18.91875  C 26.225 18.825  26.45 18.61875  26.56875 18.35625  L 32.98125 4.2  C 33.225 3.66875  32.9875 3.03749999999999  32.45625 2.8  C 31.925 2.5625  31.29375 2.79375  31.05625 3.325  L 25.1 16.4625  L 19.125 13.38125  C 18.60625 13.1125  17.96875 13.31875  17.7 13.8375  L 14.5375 19.95625  C 14.26875 20.475  14.475 21.1125  14.99375 21.38125  Z " fill-rule="nonzero" fill="#dbdbdb" stroke="none" transform="matrix(1 0 0 1 501 73 )" />
  </g>
</svg>