<?xml version="1.0" encoding="utf-8"?>
<svg version="1.1" xmlns:xlink="http://www.w3.org/1999/xlink" width="11px" height="12px" xmlns="http://www.w3.org/2000/svg">
  <g transform="matrix(1 0 0 1 -626 -53 )">
    <path d="M 1.3359375 0.71875  L 1.3359375 0.80126953125  L 2.1631005859375 0.5397841796875  C 2.83003150313661 0.330279081056427  3.53380506718911 0.264566144583846  4.2279931640625 0.34698046875  C 4.51970473366374 0.381825998618588  4.80289456024504 0.468272876370645  5.0643349609375 0.602283203125  L 6.3716474609375 1.2672890625  C 7.2831455078125 1.72792578125  8.3571689453125 1.73777734375  9.2769697265625 1.2939111328125  L 10.0315537109375 0.9274228515625  C 10.0742088129768 0.906700300816235  10.1210122330507 0.895933056239368  10.1684346100411 0.895933056239368  C 10.3414345718821 0.895933056239368  10.4816787506661 1.03617723502333  10.4816787506661 1.20917719686437  L 10.4816787109375 6.8721044921875  C 10.4817463554982 6.99209994775788  10.4132583529067 7.10158904671035  10.305328125 7.154029296875  L 9.5432158203125 7.524123046875  C 9.01307029385658 7.78080754945818  8.43179711747954 7.91444109920492  7.8427802734375 7.9150498046875  L 7.81506640625 7.9150498046875  C 7.21683846358686 7.90993033786818  6.62776119753953 7.76761661561552  6.09317578125 7.4990625  L 4.747498046875 6.82087890625  C 4.55244860146119 6.72203252205767  4.34147549424221 6.65840837246673  4.1242978515625 6.6329375  C 3.51358533792147 6.56129228222224  2.89461470390039 6.62082658475537  2.30875390625 6.8075615234375  L 1.3359375 7.1198662109375  L 1.3359375 11.28125  C 1.3359375 11.5056142578125  1.1540517578125 11.6875  0.9296875 11.6875  C 0.7053232421875 11.6875  0.5234375 11.5056142578125  0.5234375 11.28125  L 0.5234375 0.71875  C 0.5234375 0.4943857421875  0.7053232421875 0.3125  0.9296875 0.3125  C 1.1540517578125 0.3125  1.3359375 0.4943857421875  1.3359375 0.71875  Z M 2.486259765625 1.264419921875  L 1.3359375 1.627962890625  L 1.3359375 6.421814453125  L 2.2633681640625 6.123982421875  C 2.72800944902911 5.97574567977635  3.21276286108004 5.90018067351265  3.7004775390625 5.8999609375  C 3.8852907200892 5.90001368749434  4.06994667757239 5.91073791613866  4.2535234375 5.932080078125  C 4.53158233232709 5.96477556465774  4.80167628223453 6.04634871673658  5.05134765625 6.173037109375  L 6.340125 6.8225673828125  C 7.21094950625421 7.25845073211349  8.23466159348122 7.26593444634587  9.111765625 6.8428291015625  L 9.67274609375 6.570197265625  L 9.67274609375 1.812375  L 9.3811474609375 1.95400390625  C 8.8633143229492 2.20477188893956  8.29467045072126 2.33287097606147  7.7193310546875 2.32836328125  C 7.14399363361762 2.32226829046001  6.57780276503925 2.18364423331107  6.0647255859375 1.923255859375  L 4.8127138671875 1.2861669921875  C 4.62568122303993 1.19019495460492  4.42308572203601 1.12821399665844  4.21437109375 1.10311328125  C 3.63340824867873 1.03408540482527  3.04441115864258 1.08906400509561  2.486259765625 1.264419921875  Z " fill-rule="nonzero" fill="#ff0000" stroke="none" transform="matrix(1 0 0 1 626 53 )" />
  </g>
</svg>