<?xml version="1.0" encoding="utf-8"?>
<svg version="1.1" xmlns:xlink="http://www.w3.org/1999/xlink" width="16px" height="12px" xmlns="http://www.w3.org/2000/svg">
  <g transform="matrix(1 0 0 1 -548 -56 )">
    <path d="M 3.71930350870559 1.58102766815655  L 15.4151955615312 1.58102766815655  C 15.7381687023989 1.58102766815655  15.9999901642551 1.22710256916999  15.9999901642551 0.790513834078283  C 15.9999901642551 0.353925098986579  15.7381687023989 0  15.4151955615312 0  L 3.71930350870559 0  C 3.39633036783778 0  3.13450890598165 0.353925098986579  3.13450890598165 0.790513834078283  C 3.13450890598165 1.22710256916999  3.39633036783778 1.58102766815655  3.71930350870559 1.58102766815655  Z M 15.4151955615312 5.21739130458118  L 3.71930350870559 5.21739130458118  C 3.39632053205571 5.21739130446937  3.13449907023664 5.57131640340587  3.13449907023664 6.00790513843583  C 3.13449907023664 6.44449387346577  3.39632053205571 6.79841897240229  3.71929367287794 6.79841897240229  L 15.4151955615312 6.79841897229048  C 15.7381785381808 6.79841897240229  16 6.44449387346577  16 6.00790513843583  C 16 5.57131640340587  15.7381785381808 5.21739130446937  15.4152053973588 5.21739130446937  Z M 15.4151955615312 10.4189723316198  L 3.71930350870559 10.4189723316198  C 3.39633036779207 10.4189723316198  3.13450890589888 10.7728974306565  3.13450890589888 11.2094861658099  C 3.13450890589888 11.6460749009634  3.39633036779207 12  3.71930350870559 12  L 15.4151955615312 12  C 15.7381687024446 12  15.9999901643378 11.6460749009634  15.9999901643378 11.2094861658099  C 15.9999901643378 10.7728974306565  15.7381687024446 10.4189723316198  15.4151955615312 10.4189723316198  Z M 1.16959904111025 0  L 0.584804438468836 0  C 0.261831297601134 0  0 0.353925098986579  0 0.790513834078283  C 0 1.22710256916999  0.261831297601134 1.58102766815655  0.584804438468836 1.58102766815655  L 1.16959904111025 1.58102766815655  C 1.49257218197795 1.58102766815655  1.75439364383408 1.22710256916999  1.75439364383408 0.790513834078283  C 1.75439364383408 0.353925098986579  1.49257218197795 0  1.16959904111025 0  Z M 1.16959904111025 5.21739130458118  L 0.584804438468836 5.21739130458118  C 0.261821461819181 5.21739130446937  0 5.57131640340587  0 6.00790513843583  C 0 6.44449387346577  0.261821461819181 6.79841897240229  0.584794602641182 6.79841897240229  L 1.16959904111025 6.79841897229048  C 1.49258201776001 6.79841897240229  1.75440347957908 6.44449387346577  1.75440347957908 6.00790513843583  C 1.75440347957908 5.57131640340587  1.49258201776001 5.21739130446937  1.16960887693779 5.21739130446937  Z M 1.16959904111025 10.4189723316198  L 0.584804438468836 10.4189723316198  C 0.261831297555432 10.4189723316198  0 10.7728974306565  0 11.2094861658099  C 0 11.6460749009634  0.261831297555432 12  0.584804438468836 12  L 1.16959904111025 12  C 1.49257218202365 12  1.75439364391684 11.6460749009634  1.75439364391684 11.2094861658099  C 1.75439364391684 10.7728974306565  1.49257218202365 10.4189723316198  1.16959904111025 10.4189723316198  Z " fill-rule="nonzero" fill="#777777" stroke="none" transform="matrix(1 0 0 1 548 56 )" />
  </g>
</svg>