<?xml version="1.0" encoding="utf-8"?>
<svg version="1.1" xmlns:xlink="http://www.w3.org/1999/xlink" width="33px" height="25px" xmlns="http://www.w3.org/2000/svg">
  <g transform="matrix(1 0 0 1 -438 -15 )">
    <path d="M 2.30126953125 6.94091796875  C 2.525390625 7.16943359375  2.86376953125 7.24853515625  3.16259765625 7.138671875  C 3.46142578125 7.033203125  3.67236328125 6.7607421875  3.703125 6.4443359375  C 3.1318359375 4.65576171875  2.560546875 2.86279296875  1.98486328125 1.07421875  C 1.87939453125 0.740234375  1.4794921875 0.56884765625  1.0927734375 0.69189453125  C 0.7060546875 0.814941406250002  0.47314453125 1.18408203125  0.5830078125 1.51806640625  C 1.154296875 3.32421875  1.7255859375 5.13037109375  2.30126953125 6.94091796875  Z M 6.8671875 21.025390625  C 7.0869140625 21.25830078125  7.42529296875 21.3330078125  7.728515625 21.22314453125  C 8.02734375 21.11767578125  8.23828125 20.84521484375  8.26904296875 20.52880859375  C 7.69775390625 18.740234375  7.12646484375 16.947265625  6.55078125 15.15869140625  C 6.4453125 14.82470703125  6.04541015625 14.6533203125  5.65869140625 14.7763671875  C 5.27197265625 14.8994140625  5.0390625 15.2685546875  5.14892578125 15.6025390625  C 5.72021484375 17.40869140625  6.29150390625 19.21484375  6.8671875 21.025390625  Z M 8.09765625 24.48828125  C 8.32177734375 24.72119140625  8.66015625 24.7958984375  8.958984375 24.68603515625  C 9.2578125 24.58056640625  9.46875 24.30810546875  9.49951171875 23.99169921875  C 8.92822265625 22.203125  9.486328125 23.96533203125  8.9150390625 22.1767578125  C 8.8095703125 21.8427734375  8.40966796875 21.67138671875  8.02294921875 21.79443359375  C 7.63623046875 21.91748046875  7.4033203125 22.28662109375  7.51318359375 22.62060546875  C 8.08447265625 24.4267578125  7.5263671875 22.68212890625  8.09765625 24.48828125  Z M 7.98779296875 24.18505859375  C 8.06689453125 24.49267578125  8.32177734375 24.7255859375  8.63818359375 24.78271484375  C 10.44873046875 24.224609375  8.6953125 24.75634765625  10.505859375 24.1982421875  C 10.83984375 24.09716796875  11.015625 23.69287109375  10.89697265625 23.30615234375  C 10.7783203125 22.91943359375  10.4091796875 22.6865234375  10.0751953125 22.78759765625  C 8.27783203125 23.3369140625  10.048828125 22.7919921875  8.25146484375 23.345703125  C 8.009765625 23.55224609375  7.90869140625 23.87744140625  7.98779296875 24.18505859375  Z M 4.564453125 13.994140625  C 4.78857421875 14.22265625  5.126953125 14.29736328125  5.42578125 14.19189453125  C 5.724609375 14.08642578125  5.935546875 13.81396484375  5.96630859375 13.49755859375  C 5.39501953125 11.708984375  4.82373046875 9.916015625  4.248046875 8.12744140625  C 4.142578125 7.79345703125  3.74267578125 7.6220703125  3.35595703125 7.7451171875  C 2.96923828125 7.8681640625  2.736328125 8.2373046875  2.84619140625 8.5712890625  C 3.41748046875 10.37744140625  3.98876953125 12.18359375  4.564453125 13.994140625  Z M 25.8251953125 17.9931640625  C 25.91748046875 18.30078125  26.18115234375 18.52490234375  26.49755859375 18.56884765625  C 28.2861328125 17.9404296875  30.07470703125 17.31640625  31.86328125 16.68798828125  C 32.197265625 16.57373046875  32.35107421875 16.1650390625  32.21923828125 15.78271484375  C 32.08740234375 15.400390625  31.70947265625 15.1806640625  31.3798828125 15.294921875  C 29.6044921875 15.91015625  27.8291015625 16.52978515625  26.0537109375 17.14501953125  C 25.82080078125 17.3603515625  25.73291015625 17.68994140625  25.8251953125 17.9931640625  Z M 11.77587890625 22.8798828125  C 11.8681640625 23.18310546875  12.1318359375 23.41162109375  12.4482421875 23.45556640625  C 14.23681640625 22.8271484375  16.025390625 22.203125  17.81396484375 21.57470703125  C 18.14794921875 21.46044921875  18.3017578125 21.0517578125  18.169921875 20.66943359375  C 18.0380859375 20.287109375  17.66015625 20.0673828125  17.33056640625 20.181640625  C 15.55517578125 20.796875  13.77978515625 21.41650390625  12.00439453125 22.03173828125  C 11.771484375 22.2470703125  11.68359375 22.57666015625  11.77587890625 22.8798828125  Z M 18.78515625 20.49365234375  C 18.873046875 20.80126953125  19.13671875 21.025390625  19.45751953125 21.0693359375  C 21.24609375 20.44091796875  23.03466796875 19.81689453125  24.8232421875 19.1884765625  C 25.1572265625 19.07421875  25.31103515625 18.66552734375  25.17919921875 18.283203125  C 25.04736328125 17.90087890625  24.66943359375 17.68115234375  24.33984375 17.79541015625  C 22.564453125 18.41064453125  20.7890625 19.0302734375  19.013671875 19.6455078125  C 18.78076171875 19.86083984375  18.69287109375 20.1904296875  18.78515625 20.49365234375  Z M 10.87060546875 15.58056640625  C 11.2353515625 15.76513671875  11.68359375 15.62451171875  11.87255859375 15.259765625  L 13.75341796875 11.61669921875  L 17.98974609375 13.80517578125  C 18.16552734375 13.8974609375  18.36767578125 13.9150390625  18.556640625 13.853515625  L 18.57421875 13.84912109375  C 18.767578125 13.783203125  18.92578125 13.63818359375  19.00927734375 13.45361328125  L 23.51806640625 3.5  C 23.689453125 3.12646484375  23.5224609375 2.6826171875  23.14892578125 2.515625  C 22.775390625 2.3486328125  22.33154296875 2.51123046875  22.16455078125 2.884765625  L 17.9765625 12.1220703125  L 13.775390625 9.95556640625  C 13.41064453125 9.7666015625  12.96240234375 9.91162109375  12.7734375 10.2763671875  L 10.5498046875 14.57861328125  C 10.36083984375 14.943359375  10.505859375 15.3916015625  10.87060546875 15.58056640625  Z " fill-rule="nonzero" fill="#cccccc" stroke="none" transform="matrix(1 0 0 1 438 15 )" />
  </g>
</svg>