<?xml version="1.0" encoding="utf-8"?>
<svg version="1.1" xmlns:xlink="http://www.w3.org/1999/xlink" width="15px" height="15px" xmlns="http://www.w3.org/2000/svg">
  <g transform="matrix(1 0 0 1 -639 -6 )">
    <path d="M 14.775 14.775  C 14.625 14.925  14.4375 15  14.25 15  C 14.0625 15  13.875 14.925  13.725 14.775  L 0.225000000000023 1.275  C -0.0750000000000455 0.975  -0.0750000000000455 0.524999999999999  0.225000000000023 0.225  C 0.524999999999977 -0.0750000000000002  0.975000000000023 -0.0750000000000002  1.27499999999998 0.225  L 14.775 13.725  C 15.075 14.025  15.075 14.475  14.775 14.775  Z M 1.27499999999998 14.775  C 1.125 14.925  0.9375 15  0.75 15  C 0.5625 15  0.375 14.925  0.225000000000023 14.775  C -0.0750000000000455 14.475  -0.0750000000000455 14.025  0.225000000000023 13.725  L 13.725 0.225000000000001  C 14.025 -0.0749999999999993  14.475 -0.0749999999999993  14.775 0.225000000000001  C 15.075 0.525000000000001  15.075 0.975  14.775 1.275  L 1.27499999999998 14.775  Z " fill-rule="nonzero" fill="#797979" stroke="none" transform="matrix(1 0 0 1 639 6 )" />
  </g>
</svg>