<?xml version="1.0" encoding="utf-8"?>
<svg version="1.1" xmlns:xlink="http://www.w3.org/1999/xlink" width="8px" height="8px" xmlns="http://www.w3.org/2000/svg">
  <g transform="matrix(1 0 0 1 -233 -389 )">
    <path d="M 7.43661971215585 3.43661971214181  L 4.56338027278775 3.43661971214181  L 4.56338027278775 0.563380287858195  C 4.56338027278775 0.225352121046228  4.33802816670388 0  3.9999999999003 0  C 3.66197183309669 0  3.43661971205614 0.225352106089474  3.43661971225555 0.563380287858195  L 3.43661971225555 3.43661971214181  L 0.563380272688022 3.43661971214181  C 0.22535210588444 3.43661971214181  0 3.66197181823128  0 4  C 0 4.16901409098409  0.0563380302601502 4.28169013635102  0.169014075624318 4.39436619707357  C 0.281690120988458 4.50704225779612  0.394366181708165 4.56338028805766  0.563380272688022 4.56338028785819  L 3.43661971225555 4.56338028785819  L 3.43661971225555 7.43661971214181  C 3.43661971225555 7.60563380312584  3.4929577425157 7.71830984849282  3.60563380323541 7.83098590901591  C 3.71830986395511 7.94366196973846  3.83098590931928 8  4.0000000000997 8  C 4.33802816690331 8  4.56338028794386 7.77464789391053  4.56338027278775 7.43661971214181  L 4.56338027278775 4.56338028785819  L 7.43661971215585 4.56338028785819  C 7.77464787895943 4.56338028785819  8 4.33802818176872  8 4  C 8 3.66197181823128  7.77464789391615 3.43661971214181  7.43661971215585 3.43661971214181  Z " fill-rule="nonzero" fill="#409eff" stroke="none" transform="matrix(1 0 0 1 233 389 )" />
  </g>
</svg>