<?xml version="1.0" encoding="utf-8"?>
<svg version="1.1" xmlns:xlink="http://www.w3.org/1999/xlink" width="15px" height="15px" xmlns="http://www.w3.org/2000/svg">
  <g transform="matrix(1 0 0 1 -230 -386 )">
    <path d="M 12.7941176487221 12.8035714307792  C 15.7352941170611 9.85714286136891  15.7352941170611 5.14285713863109  12.7941176489114 2.19642856941039  C 11.3502673688967 0.803571430589614  9.47860961512998 0  7.500000000071 0  C 5.52139038501198 0  3.59625667864128 0.803571430589614  2.2058823512306 2.19642856941039  C -0.735294117108396 5.14285713882072  -0.735294117108396 9.85714286155849  2.20588235141989 12.8035714307792  C 3.59625667864128 14.1964285694104  5.52139037043654 15  7.500000000071 15  C 9.47860962970546 15  11.40374332169 14.1964285692207  12.7941176487221 12.8035714307792  Z M 12.0454545471775 2.94642856922076  C 14.5588235268104 5.46428570794666  14.5588235268104 9.5357142770726  12.0454545473668 12.0535714307792  C 10.8155080190876 13.2857142920533  9.21122994013081 13.9285714304948  7.500000000071 13.9285714304948  C 5.78877006001119 13.9285714304948  4.18449198086506 13.2857142918637  2.95454545296445 12.0535714307792  C 0.441176473331581 9.53571429205334  0.441176473331581 5.4642857229274  2.95454545277516 2.94642856941039  C 4.18449198124364 1.71428570794666  5.78877004543574 1.0714285695052  7.500000000071 1.0714285695052  C 9.21122995470623 1.0714285695052  10.8155080192769 1.71428570813629  12.0454545471775 2.94642856922076  Z " fill-rule="nonzero" fill="#409eff" stroke="none" transform="matrix(1 0 0 1 230 386 )" />
  </g>
</svg>