<?xml version="1.0" encoding="utf-8"?>
<svg version="1.1" xmlns:xlink="http://www.w3.org/1999/xlink" width="9px" height="5px" xmlns="http://www.w3.org/2000/svg">
  <g transform="matrix(1 0 0 1 -181 -178 )">
    <path d="M 8.9098196392784 4.08934707903791  C 8.96993987975947 4.14662084765195  9 4.21248568155812  9 4.28694158075598  C 9 4.36139747995429  8.96993987975947 4.42726231386001  8.9098196392784 4.48453608247451  L 8.4589178356714 4.91408934707874  C 8.39879759519033 4.97136311569278  8.32965931863725 5  8.25150300601197 5  C 8.17334669338658 5  8.1042084168335 4.97136311569278  8.04408817635274 4.91408934707874  L 4.5 1.53780068728537  L 0.955911823647256 4.91408934707874  C 0.895791583166499 4.97136311569278  0.826653306613423 5  0.748496993988027 5  C 0.670340681362745 5  0.601202404809669 4.97136311569278  0.5410821643286 4.91408934707874  L 0.0901803607216038 4.48453608247451  C 0.0300601202405346 4.42726231386001  0 4.36139747995429  0 4.28694158075598  C 0 4.21248568155812  0.0300601202405346 4.14662084765195  0.0901803607216038 4.08934707903791  L 4.29258517034077 0.0859106529212568  C 4.35270541082164 0.0286368843072182  4.42184368737472 0  4.5 0  C 4.57815631262528 0  4.64729458917836 0.0286368843072182  4.70741482965923 0.0859106529212568  L 8.9098196392784 4.08934707903791  Z " fill-rule="nonzero" fill="#ffffff" stroke="none" transform="matrix(1 0 0 1 181 178 )" />
  </g>
</svg>