<?xml version="1.0" encoding="utf-8"?>
<svg version="1.1" xmlns:xlink="http://www.w3.org/1999/xlink" width="17px" height="20px" xmlns="http://www.w3.org/2000/svg">
  <g transform="matrix(1 0 0 1 -26 -306 )">
    <path d="M 1.453125 1.0625  L 1.453125 1.2021484375  L 2.852939453125 0.759634765625  C 3.98159177453888 0.405087675633954  5.17259319062772 0.293881167757278  6.347373046875 0.4333515625  C 6.84103878004633 0.492320920739149  7.32028310195315 0.638615636934937  7.762720703125 0.86540234375  L 9.975095703125 1.990796875  C 11.517630859375 2.7703359375  13.335208984375 2.7870078125  14.891794921875 2.035849609375  L 16.168783203125 1.415638671875  C 16.2409687604223 1.38056973984286  16.3201745482397 1.36234824902047  16.400427801608 1.36234824902047  C 16.6931969678006 1.36234824902047  16.930533270358 1.59968455157794  16.930533270358 1.89245371777047  L 16.930533203125 11.475869140625  C 16.9306476785354 11.6789383731287  16.8147449049191 11.8642276175098  16.63209375 11.95297265625  L 15.342365234375 12.57928515625  C 14.4451958819111 13.0136743144677  13.4615028141961 13.2398233986545  12.464705078125 13.240853515625  L 12.4178046875 13.240853515625  C 11.4054189383778 13.2321898025462  10.4085189496823 12.991351195657  9.5038359375 12.536875  L 7.22653515625 11.3891796875  C 6.89645147939586 11.2219011911745  6.53942006717913 11.1142295534052  6.171888671875 11.071125  C 5.13837518725172 10.9498792468376  4.09088642198527 11.0506296049706  3.0994296875 11.366642578125  L 1.453125 11.895158203125  L 1.453125 18.9375  C 1.453125 19.317193359375  1.145318359375 19.625  0.765625 19.625  C 0.385931640625 19.625  0.078125 19.317193359375  0 18.9375  L 0 1.0625  C 0.078125 0.682806640625  0.385931640625 0.375  0.765625 0.375  C 1.145318359375 0.375  1.453125 0.682806640625  1.453125 1.0625  Z M 3.39982421875 1.98594140625  L 1.453125 2.60116796875  L 1.453125 10.71383984375  L 3.022623046875 10.20981640625  C 3.80893906758773 9.95895422731383  4.62929099567392 9.83107498594449  5.454654296875 9.830703125  C 5.76741506476634 9.8307923942212  6.07990976204558 9.84894108885005  6.390578125 9.88505859375  C 6.86113933163047 9.94038941711309  7.31822140070459 10.0784362898619  7.7407421875 10.29283203125  L 9.92175 11.392037109375  C 11.3954530105841 12.1296858543459  13.1278888505067 12.1423506015084  14.61221875 11.426326171875  L 15.5615703125 10.96494921875  L 15.5615703125 2.91325  L 15.068095703125 3.1529296875  C 14.1917627003756 3.57730627359003  13.2294423012206 3.79408934410402  12.255791015625 3.7864609375  C 11.282143072276 3.77614633770155  10.3239739100664 3.5415517794495  9.455689453125 3.10089453125  L 7.336900390625 2.022744140625  C 7.02038360822142 1.86032992317755  6.67752968344556 1.75543907126813  6.3243203125 1.7129609375  C 5.34115242084093 1.59614453124276  4.34438811462591 1.68918523939257  3.39982421875 1.98594140625  Z " fill-rule="nonzero" fill="#929292" stroke="none" transform="matrix(1 0 0 1 26 306 )" />
  </g>
</svg>