<?xml version="1.0" encoding="utf-8"?>
<svg version="1.1" xmlns:xlink="http://www.w3.org/1999/xlink" width="12px" height="9px" xmlns="http://www.w3.org/2000/svg">
  <g transform="matrix(1 0 0 1 -33 -529 )">
    <path d="M 3.8021484375 1.1357421875  C 3.6689453125 1.000390625  3.4927734375 0.9337890625  3.3166015625 0.9337890625  C 3.1404296875 0.9337890625  2.9642578125 1.000390625  2.8310546875 1.1357421875  L 1.7375 2.229296875  L 1.312109375 1.80390625  C 1.17890625 1.670703125  1.002734375 1.601953125  0.8265625 1.601953125  C 0.650390624999999 1.601953125  0.474218749999999 1.6685546875  0.341015625 1.80390625  C 0.0724609374999998 2.0724609375  0.0724609374999998 2.50859375  0.341015625 2.7771484375  L 0.766406249999999 3.2025390625  L 1.251953125 3.6880859375  C 1.38515625 3.8212890625  1.561328125 3.8900390625  1.7375 3.8900390625  C 1.913671875 3.8900390625  2.08984375 3.8234375  2.223046875 3.6880859375  L 2.70859375 3.2025390625  L 3.8021484375 2.108984375  C 4.070703125 1.8404296875  4.070703125 1.404296875  3.8021484375 1.1357421875  Z M 11.671875 2.4119140625  C 11.671875 2.031640625  11.3646484375 1.7244140625  10.984375 1.7244140625  L 6.04296875 1.7244140625  C 5.6626953125 1.7244140625  5.35546875 2.031640625  5.35546875 2.4119140625  C 5.35546875 2.7921875  5.6626953125 3.0994140625  6.04296875 3.0994140625  L 10.984375 3.0994140625  C 11.3646484375 3.0994140625  11.671875 2.7921875  11.671875 2.4119140625  Z M 3.8021484375 6.448828125  C 4.070703125 6.178125  4.070703125 5.744140625  3.8021484375 5.4755859375  C 3.6689453125 5.3423828125  3.4927734375 5.2736328125  3.3166015625 5.2736328125  C 3.1404296875 5.2736328125  2.9642578125 5.340234375  2.8310546875 5.4755859375  L 1.7375 6.569140625  L 1.312109375 6.14375  C 1.17890625 6.010546875  1.002734375 5.941796875  0.826562499999999 5.941796875  C 0.650390624999997 5.941796875  0.474218749999999 6.0083984375  0.341015624999999 6.14375  C 0.0724609374999989 6.4123046875  0.0724609374999989 6.8484375  0.341015624999999 7.1169921875  L 0.766406249999998 7.5423828125  L 1.251953125 8.0279296875  C 1.38515625 8.1611328125  1.561328125 8.2298828125  1.7375 8.2298828125  C 1.913671875 8.2298828125  2.08984375 8.16328125  2.223046875 8.0279296875  L 2.70859375 7.5423828125  L 3.8021484375 6.448828125  Z M 11.671875 6.7517578125  C 11.671875 6.371484375  11.3646484375 6.0642578125  10.984375 6.0642578125  L 6.04296875 6.0642578125  C 5.6626953125 6.0642578125  5.35546875 6.371484375  5.35546875 6.7517578125  C 5.35546875 7.13203125  5.6626953125 7.4392578125  6.04296875 7.4392578125  L 10.984375 7.4392578125  C 11.3646484375 7.4392578125  11.671875 7.13203125  11.671875 6.7517578125  Z " fill-rule="nonzero" fill="#7f7f7f" stroke="none" transform="matrix(1 0 0 1 33 529 )" />
  </g>
</svg>