<?xml version="1.0" encoding="utf-8"?>
<svg version="1.1" xmlns:xlink="http://www.w3.org/1999/xlink" width="18px" height="20px" xmlns="http://www.w3.org/2000/svg">
  <g transform="matrix(1 0 0 1 -30 -527 )">
    <path d="M 18 1.75  C 17.9375 0.99375  17.31875 0.375  16.5625 0.375  L 1.48046875 0.375  C 0.72421875 0.375  0.10546875 0.99375  0.10546875 1.75  L 0.10546875 18.25  C 0.10546875 19.00625  0.72421875 19.625  1.48046875 19.625  L 16.5625 19.625  C 17.31875 19.625  17.9375 19.00625  18 18.25  L 18 1.75  Z M 16.5625 1.7521484375  L 16.5625 18.2478515625  L 16.5603515625 18  L 1.4826171875 18  L 1.48046875 18.2478515625  L 1.48046875 1.7521484375  L 1.4826171875 2  L 16.5603515625 2  L 16.5625 1.7521484375  Z " fill-rule="nonzero" fill="#7f7f7f" stroke="none" transform="matrix(1 0 0 1 30 527 )" />
  </g>
</svg>