<?xml version="1.0" encoding="utf-8"?>
<svg version="1.1" xmlns:xlink="http://www.w3.org/1999/xlink" width="16px" height="16px" xmlns="http://www.w3.org/2000/svg">
  <g transform="matrix(1 0 0 1 -559 -6 )">
    <path d="M 5.5 2.125  L 2.375 2.125  C 2 2.125  1.75 2.375  1.75 2.75  L 1.75 5.875  C 1.75 6.25  2 6.5  2.375 6.5  L 5.5 6.5  C 5.875 6.5  6.125 6.25  6.125 5.875  L 6.125 2.75  C 6.125 2.375  5.875 2.125  5.5 2.125  Z M 0.5 2.75  C 0.5 1.6875  1.3125 0.875  2.375 0.875  L 5.5 0.875  C 6.5625 0.875  7.375 1.6875  7.375 2.75  L 7.375 5.875  C 7.375 6.9375  6.5625 7.75  5.5 7.75  L 2.375 7.75  C 1.3125 7.75  0.5 6.9375  0.5 5.875  L 0.5 2.75  Z M 5.5 10.25  L 2.375 10.25  C 2 10.25  1.75 10.5  1.75 10.875  L 1.75 14  C 1.75 14.375  2 14.625  2.375 14.625  L 5.5 14.625  C 5.875 14.625  6.125 14.375  6.125 14  L 6.125 10.875  C 6.125 10.5  5.875 10.25  5.5 10.25  Z M 0.5 10.875  C 0.5 9.8125  1.3125 9  2.375 9  L 5.5 9  C 6.5625 9  7.375 9.8125  7.375 10.875  L 7.375 14  C 7.375 15.0625  6.5625 15.875  5.5 15.875  L 2.375 15.875  C 1.3125 15.875  0.5 15.0625  0.5 14  L 0.5 10.875  Z M 13.625 2.125  L 10.5 2.125  C 10.125 2.125  9.875 2.375  9.875 2.75  L 9.875 5.875  C 9.875 6.25  10.125 6.5  10.5 6.5  L 13.625 6.5  C 14 6.5  14.25 6.25  14.25 5.875  L 14.25 2.75  C 14.25 2.375  14 2.125  13.625 2.125  Z M 8.625 2.75  C 8.625 1.6875  9.4375 0.875  10.5 0.875  L 13.625 0.875  C 14.6875 0.875  15.5 1.6875  15.5 2.75  L 15.5 5.875  C 15.5 6.9375  14.6875 7.75  13.625 7.75  L 10.5 7.75  C 9.4375 7.75  8.625 6.9375  8.625 5.875  L 8.625 2.75  Z M 13.625 10.25  L 10.5 10.25  C 10.125 10.25  9.875 10.5  9.875 10.875  L 9.875 14  C 9.875 14.375  10.125 14.625  10.5 14.625  L 13.625 14.625  C 14 14.625  14.25 14.375  14.25 14  L 14.25 10.875  C 14.25 10.5  14 10.25  13.625 10.25  Z M 8.625 10.875  C 8.625 9.8125  9.4375 9  10.5 9  L 13.625 9  C 14.6875 9  15.5 9.8125  15.5 10.875  L 15.5 14  C 15.5 15.0625  14.6875 15.875  13.625 15.875  L 10.5 15.875  C 9.4375 15.875  8.625 15.0625  8.625 14  L 8.625 10.875  Z " fill-rule="nonzero" fill="#797979" stroke="none" transform="matrix(1 0 0 1 559 6 )" />
  </g>
</svg>