<?xml version="1.0" encoding="utf-8"?>
<svg version="1.1" xmlns:xlink="http://www.w3.org/1999/xlink" width="15px" height="16px" xmlns="http://www.w3.org/2000/svg">
  <g transform="matrix(1 0 0 1 -28 -494 )">
    <path d="M 15 8  C 15 3.61111111111109  11.6666666666667 0  7.5 0  C 3.33333333333332 0  0 3.61111111111109  0 8  C 0 12.3888888888889  3.38541666666671 16  7.5 16  C 11.6145833333333 16  15 12.3888888888889  15 8  Z M 14.21875 8.05555555555554  C 14.21875 12  11.25 15.2222222222222  7.5 15.2222222222222  C 3.80208333333332 15.2222222222222  0.78125 12  0.78125 8.05555555555554  C 0.78125 4.11111111111109  3.80208333333332 0.888888888888914  7.5 0.888888888888914  C 11.1979166666667 0.888888888888914  14.21875 4.11111111111109  14.21875 8.05555555555554  Z M 12.7083333333333 8.77777777777777  C 12.7083333333333 8.5  12.5520833333333 8.33333333333337  12.34375 8.33333333333337  L 7.8125 8.33333333333337  L 7.8125 3.44444444444446  C 7.8125 3.22222222222223  7.65625 3.05555555555554  7.44791666666668 3.05555555555554  C 7.23958333333332 3.05555555555554  7.08333333333332 3.22222222222223  7.08333333333332 3.44444444444446  L 7.08333333333332 8.77777777777777  C 7.08333333333332 9  7.23958333333332 9.16666666666669  7.44791666666668 9.16666666666669  L 12.34375 9.16666666666669  C 12.5520833333333 9.16666666666669  12.7083333333333 9  12.7083333333333 8.77777777777777  Z " fill-rule="nonzero" fill="#7f7f7f" stroke="none" transform="matrix(1 0 0 1 28 494 )" />
  </g>
</svg>