<?xml version="1.0" encoding="utf-8"?>
<svg version="1.1" xmlns:xlink="http://www.w3.org/1999/xlink" width="18px" height="18px" xmlns="http://www.w3.org/2000/svg">
  <g transform="matrix(1 0 0 1 -273 -12 )">
    <path d="M 15.2648042719755 0  L 2.73523496846047 0  C 1.23536740493188 0  0 1.27919719840816  0 2.83253390948394  L 0 15.1674660905161  C 0 16.7207827136962  1.23534778471389 18  2.73521534824249 18  L 15.2647846517575 18  C 16.764828797248 18  18 16.7208028015919  18 15.1674660905161  L 18 2.83253390948396  C 18 1.27921728630386  16.8531197781608 0  15.2647846517575 0  Z M 16.6765770567711 2.83249373369254  L 16.6765770567711 15.2589262796548  C 16.6765770567711 16.0811439387007  16.059069936267 16.7207626258004  15.2648238921935 16.7207626258004  L 2.73525458867846 16.7207626258004  C 1.94116550634874 16.7207626258004  1.32350142410081 16.0811640265964  1.32350142410081 15.2589262796548  L 1.32350142410081 2.83249373369254  C 1.32350142410081 2.01027607464663  1.94116550634874 1.37065738754684  2.73525458867846 1.37065738754684  L 15.2648238921935 1.37065738754684  C 16.059069936267 1.37065738754684  16.6765770567711 2.01025598675092  16.6765770567711 2.83249373369254  Z M 6.61770332268389 4.4771500186371  L 4.67655743655314 6.48724530222239  L 3.79417737331062 5.57370806930771  C 3.52930443057221 5.29956855664005  3.08822231014983 5.29956855664005  2.9117973100681 5.57370806930771  C 2.64692436732975 5.84766679091403  2.64692436732975 6.30462624238056  2.9117973100681 6.48724530222239  L 4.32355047464574 7.94926243942942  C 4.4118414555586 8.04058201329819  4.58826645564034 8.13190158716696  4.85292357598092 8.13190158716696  C 5.11779651871933 8.13190158716696  5.11779651871933 8.04058201329819  5.38229667731605 7.94926243942942  L 7.76470126583104 5.4822077043776  C 8.02957420856944 5.20806819170996  8.02957420856944 4.75128953130476  7.76470126583104 4.56846959250588  C 7.23532816449591 4.29451087089956  6.88232120258851 4.29451087089956  6.61764446202994 4.4771500186371  Z M 15.3530952528882 6.21330666851179  C 15.3530952528882 5.84766679091403  15.0882223101499 5.57370806930771  14.7354311706403 5.57370806930771  L 8.64712056950953 5.57370806930771  C 8.2060384490872 5.57370806930771  8.02945648726154 5.84766679091403  8.02945648726154 6.21330666851179  C 8.02945648726154 6.67008532891697  8.29432942999995 6.85290526771585  8.64712056950953 6.85290526771585  L 14.7355881323841 6.85290526771585  C 15.1766702528066 6.85290526771585  15.3530952528882 6.5787657550482  15.3530952528882 6.21330666851179  Z M 7.05878544310627 11.7868138588624  C 7.05878544310627 10.5076166604543  6.08831060113079 9.68521821034705  5.02934857606272 9.68521821034705  C 3.88229177226162 9.68521821034705  2.9999117090191 10.5989563222188  2.9999117090191 11.7868138588624  C 2.9999117090191 12.9745106923405  3.88229177226162 13.8882287163165  5.02934857606272 13.8882287163165  C 6.17660158204359 13.8882287163165  7.05878544310627 12.9744906044448  7.05878544310627 11.7868138588624  Z M 5.73530363922339 11.695474197098  C 5.73530363922339 12.1522528575032  5.38229667731605 12.4263923701708  5.02934857606272 12.4263923701708  C 4.58826645564034 12.4263923701708  4.32355047464574 12.1522528575032  4.32355047464574 11.695474197098  C 4.32355047464574 11.2385348335272  4.58826645564034 10.9643752329638  5.02934857606272 10.9643752329638  C 5.4706465188828 10.9643752329638  5.73530363922339 11.2385147456314  5.73530363922339 11.695474197098  Z M 14.7354311706403 11.0556948068326  L 8.64712056950953 11.0556948068326  C 8.2060384490872 11.0556948068326  8.02945648726154 11.3298343195002  8.02945648726154 11.695474197098  C 8.02945648726154 12.0607524925731  8.29432942999995 12.335072796302  8.64712056950953 12.335072796302  L 14.7355881323841 12.335072796302  C 15.1766702528066 12.335072796302  15.3530952528882 12.0609332836344  15.3530952528882 11.695474197098  C 15.3530952528882 11.3298343195002  15.0882223101499 11.0558755978939  14.7354311706403 11.0558755978939  Z " fill-rule="nonzero" fill="#969696" stroke="none" transform="matrix(1 0 0 1 273 12 )" />
  </g>
</svg>