<?xml version="1.0" encoding="utf-8"?>
<svg version="1.1" xmlns:xlink="http://www.w3.org/1999/xlink" width="14px" height="12px" xmlns="http://www.w3.org/2000/svg">
  <g transform="matrix(1 0 0 1 -37 -781 )">
    <path d="M 13.038933609375 9.9256074375  C 13.038933609375 10.9903415390625  12.1304535703125 11.856682171875  11.013842625 11.856682171875  L 2.8942436953125 11.856682171875  C 1.812433171875 11.856682171875  0.9651116484375 11.0083293515625  0.9651116484375 9.9256314140625  L 0.9651116484375 9.501742828125  C 0.9651116484375 8.4352578984375  1.794445359375 7.6308193125  2.8942436953125 7.6308193125  L 5.6804106796875 7.6308193125  C 5.6465216484375 6.9478343671875  5.3963952421875 6.287538046875  5.049014765625 5.98659009375  L 4.98298753125 5.922025875  L 4.8796655859375 5.80764740625  C 4.13094121875 5.1871640859375  3.7020640078125 4.2760218515625  3.7020640078125 3.303577171875  C 3.7020640078125 1.5110804765625  5.1608749453125 0.0528451640625036  6.95397121875 0.0528451640625036  C 8.74706749218749 0.0528451640625036  10.2058784296875 1.5122556796875  10.20587840625 3.305927578125  C 10.20587840625 4.26659625  9.789065015625 5.167113703125  9.0599593359375 5.786709609375  L 8.86010285156249 6.0119169140625  C 8.50785367968749 6.316702265625  8.26273987499999 6.9537103828125  8.229450421875 7.6307953125  L 11.0138666015625 7.6307953125  C 12.14947265625 7.6307953125  13.038933609375 8.452622109375  13.038933609375 9.501718828125  L 13.038933609375 9.9256074375  Z M 11.0138666015625 9.14006803125  L 2.8942436953125 9.14006803125  C 2.73741403125 9.14006803125  2.474336390625 9.18693225  2.474336390625 9.501742828125  L 2.474336390625 9.9256314140625  C 2.474336390625 10.17796434375  2.64308596875 10.34745740625  2.8942436953125 10.3474574296875  L 11.0138666015625 10.3474574296875  C 11.2577812265625 10.3474574296875  11.5297088671875 10.1741269453125  11.5297088671875 9.9256314140625  L 11.5297088671875 9.501742828125  C 11.5297088671875 9.25235990625  11.22801740625 9.1400680546875  11.0138666015625 9.14006803125  Z M 5.9759383125 4.7697990703125  L 6.0749671640625 4.8797405390625  C 6.4608175546875 5.2281523125  6.764571609375 5.727805546875  6.9576647109375 6.3058376484375  C 7.1485273125 5.7463689609375  7.4453740546875 5.260578328125  7.821343125 4.9165795546875  L 7.9314524765625 4.7839255078125  C 7.9651976015625 4.74324909375  8.0105988046875 4.6963848515625  8.0543691328125 4.6601214375  C 8.4636516328125 4.3252604765625  8.696677640625 3.832394625  8.6966776640625 3.3059515546875  C 8.6966776640625 2.34441946875  7.9149516796875 1.5620938828125  6.9539951953125 1.56209390625  C 5.9930387109375 1.5620939296875  5.2113127265625 2.3432442890625  5.2113127265625 3.3036011484375  C 5.2113127265625 3.8294686171875  5.44565784375 4.3220466328125  5.854052953125 4.6551328125  C 5.8974112881938 4.69034519467998  5.93814749567304 4.72866865283008  5.9759383125 4.7697990703125  Z " fill-rule="nonzero" fill="#7f7f7f" stroke="none" transform="matrix(1 0 0 1 37 781 )" />
  </g>
</svg>