<?xml version="1.0" encoding="utf-8"?>
<svg version="1.1" xmlns:xlink="http://www.w3.org/1999/xlink" width="18px" height="17px" xmlns="http://www.w3.org/2000/svg">
  <g transform="matrix(1 0 0 1 -26 -419 )">
    <path d="M 10.6819436451613 14.7156558064516  C 10.6214701259631 13.5621895906011  9.66003578216749 12.662837037471  8.50510387096774 12.6793790483871  C 7.43254929149758 12.7506596670653  6.59901311834077 13.6414303362735  6.59901311834077 14.7163509159172  C 6.59901311834077 15.8438210808869  7.51300827595173 16.7578162384979  8.64047844092142 16.7578162384979  C 9.76794860589111 16.7578162384979  10.6819437635021 15.8438210808869  10.6819437635021 14.7163509159172  Z M 8.58392532698338 15.5780459273575  C 8.55760283746243 15.5780459273575  8.53129659824452 15.5767382808517  8.50510387096774 15.5741278225806  C 8.03626122554172 15.5671677684222  7.65983929972581 15.1851163152666  7.65983929972581 14.716222011053  C 7.65983929972581 14.242361508634  8.04397913601648 13.8582216723433  8.51783963843549 13.8582216723433  C 8.99147903929473 13.8582216723433  9.3755272300635 14.2420165087235  9.37583979032258 14.7156558064516  C 9.37775870794852 14.7381367101622  9.37871947214467 14.7606891299473  9.37871947214467 14.7832517821962  C 9.37871947214467 15.2222044678235  9.02287801261077 15.5780459273575  8.58392532698338 15.5780459273575  Z M 0.650118592147972 9.14195546774194  C 0.655925644629485 9.14195546774194  0.661732430994737 9.14187684763395  0.66753735483871 9.14171962903226  L 8.28718406451613 9.14171962903226  C 8.2929889883601 9.14187684763395  8.29879577472535 9.14195546774194  8.30460282720687 9.14195546774194  C 8.65993307227887 9.14195546774194  8.94798514978751 8.8539033902333  8.94798514978751 8.49857314516129  C 8.94798514978751 8.14324290008928  8.65993307227887 7.85519082258065  8.30460282720687 7.85519082258065  C 8.29879577472535 7.85519082258065  8.2929889883601 7.85526944268863  8.28718406451613 7.85542666129032  L 0.66753735483871 7.85542666129032  C 0.661732430994737 7.85526944268863  0.655925644629485 7.85519082258065  0.650118592147972 7.85519082258065  C 0.294788347075966 7.85519082258065  0.00673626956732725 8.14324290008928  0.00673626956732725 8.49857314516129  C 0.00673626956732725 8.8539033902333  0.294788347075966 9.14195546774194  0.650118592147972 9.14195546774194  Z M 14.3834697522361 8.52655433683144  C 14.3834697522361 8.51730555721009  14.3834060913806 8.50805688713702  14.3832787741935 8.49880898387097  C 14.3616774042108 7.36615766901105  13.4373137075442 6.45925489246123  12.3044564260479 6.45925489246123  C 12.2716128988179 6.45925489246123  12.2387739820042 6.46003309831002  12.2059673225806 6.46158885483871  C 11.0507833018953 6.44531385289714  10.0893510950606 7.34508106024204  10.0291275483871 8.49880898387097  C 10.0507285556816 9.63119996983358  10.974881134671 10.5378919324027  12.1074781276943 10.5378919324027  C 12.1403216917177 10.5378919324027  12.1731606432165 10.5371135482238  12.2059673225806 10.5355574354839  C 12.259851354635 10.5399019443239  12.3138883615011 10.5420768368314  12.3679472522361 10.5420768368314  C 13.4810895919269 10.5420768368314  14.3834697522361 9.63969667652228  14.3834697522361 8.52655433683144  Z M 12.2059673225806 9.35633762903226  C 11.7422293650246 9.32820980040754  11.3704432450306 8.96206290490559  11.3352314193548 8.49880898387097  C 11.3351646409597 8.49440688298192  11.3351312503216 8.490004338931  11.3351312503216 8.48560173156815  C 11.3351312503216 8.0047075710864  11.7249729930657 7.61486582834234  12.2058671535474 7.61486582834234  C 12.6867613140292 7.61486582834234  13.0766030567732 8.0047075710864  13.0766030567732 8.48560173156815  C 13.0766030567732 8.96645677407505  12.6868223619057 9.35628231170292  12.2059673225806 9.35633762903226  Z M 16.3727579216136 14.1795401942272  C 16.3625669185594 14.1795401942272  16.3523774491455 14.1797902100768  16.3421987096774 14.180290016129  L 12.4238871451613 14.180290016129  C 12.4180842517819 14.1801327921568  12.4122794951025 14.1800541693548  12.4064744721956 14.1800541693548  C 12.0514047273691 14.1800541693548  11.7635638270343 14.4678950696897  11.7635638270343 14.8229648145161  C 11.7635638270343 15.1780345593426  12.0514047273691 15.4658754596774  12.4064744721956 15.4658754596774  C 12.4122794951025 15.4658754596774  12.4180842517819 15.4657968368755  12.4238871451613 15.4656396129032  L 16.3421987096774 15.4656396129032  C 16.6897155539004 15.4452070651368  16.9687278557173 15.1712310845177  16.995486483871 14.8241440322581  C 16.995733918561 14.8169786695247  16.995857663549 14.8098095698372  16.995857663549 14.8026399361627  C 16.995857663549 14.4585114510682  16.716886406708 14.1795401942272  16.3727579216136 14.1795401942272  Z M 4.61639093111128 14.1795645576847  C 4.60636311663922 14.1795645576847  4.59633676108932 14.1798064475193  4.58632061290322 14.180290016129  L 0.66753735483871 14.180290016129  C 0.661734461459314 14.1801327921568  0.655929704779929 14.1800541693548  0.650124681872989 14.1800541693548  C 0.295054937046532 14.1800541693548  0.00721403671169898 14.4678950696897  0.00721403671169898 14.8229648145161  C 0.00721403671169898 15.1780345593426  0.295054937046532 15.4658754596774  0.650124681872989 15.4658754596774  C 0.655929704779929 15.4658754596774  0.661734461459314 15.4657968368755  0.66753735483871 15.4656396129032  L 4.58632061290323 15.4656396129032  C 4.93374838210781 15.4450063397351  5.2126506891979 15.1711383683791  5.23960838709677 14.8241440322581  C 5.23984435668151 14.8171438375391  5.23996236659515 14.810140163908  5.23996236659515 14.8031359931685  C 5.23996236659515 14.4587469989207  4.96077992535912 14.1795645576847  4.61639093111128 14.1795645576847  Z M 9.04943174193548 2.92440111290323  L 16.3421987096774 2.92440111290323  C 16.6975289547494 2.92440111290323  16.9855810322581 2.63634903539459  16.9855810322581 2.28101879032258  C 16.9855810322581 1.92568854525058  16.6975289547494 1.63763646774194  16.3421987096774 1.63763646774194  L 9.04943174193548 1.63763646774194  C 8.69410149686348 1.63763646774194  8.40604941935484 1.92568854525058  8.40604941935484 2.28101879032258  C 8.40604941935484 2.63634903539459  8.69410149686348 2.92440111290323  9.04943174193548 2.92440111290323  Z M 16.3596174723682 7.85519082258065  C 16.3538104198866 7.85519082258065  16.3480036335214 7.85526944268863  16.3421987096774 7.85542666129032  L 15.9068307580645 7.85542666129032  C 15.9010258342205 7.85526944268863  15.8952190478553 7.85519082258065  15.8894119953738 7.85519082258065  C 15.5340817503018 7.85519082258065  15.2460296727931 8.14324290008928  15.2460296727931 8.49857314516129  C 15.2460296727931 8.8539033902333  15.5340817503018 9.14195546774194  15.8894119953738 9.14195546774194  C 15.8952190478553 9.14195546774194  15.9010258342205 9.14187684763395  15.9068307580645 9.14171962903226  L 16.3421987096774 9.14171962903226  C 16.3480036335214 9.14187684763395  16.3538104198866 9.14195546774194  16.3596174723682 9.14195546774194  C 16.7149477174402 9.14195546774194  17.0029997949488 8.8539033902333  17.0029997949488 8.49857314516129  C 17.0029997949488 8.14324290008928  16.7149477174402 7.85519082258065  16.3596174723682 7.85519082258065  Z M 3.06229693548387 2.28101879032258  C 3.19464693542936 3.39986607279707  4.11442855926813 4.26026838078469  5.23960838709677 4.31776724193548  C 6.39471380514691 4.33429847068233  7.35621892496167 3.43467135906536  7.41644814516129 2.28101879032258  C 7.39484713745597 1.14862780466524  6.47069455859463 0.241935842555157  5.33809756586867 0.241935842555157  C 5.30525400722351 0.241935842555157  5.27241506110077 0.242714226479137  5.23960838709677 0.244270338709678  C 4.0843213307086 0.227483044288924  3.12253216265976 1.12718097099133  3.06229693548387 2.28101879032258  Z M 5.22119553778089 1.42329123829796  C 5.22733369138748 1.42329123829796  5.23347166592415 1.42335754445413  5.23960838709677 1.42349014516129  C 5.70800304387495 1.43070500125615  6.08392976816147 1.81246685813843  6.08392976816147 2.28091707816914  C 6.08392976816147 2.75451707143478  5.70000111626582 3.13844572333043  5.22640112300018 3.13844572333043  C 4.75284085031346 3.13844572333043  4.3689286532309 2.75457905967816  4.36887248387097 2.28101879032258  C 4.36886113274249 2.27922298895091  4.36885545713573 2.27742715618925  4.36885545713573 2.27563131894312  C 4.36885545713573 1.80489689073325  4.75046110957102 1.42329123829796  5.22119553778089 1.42329123829796  Z M 0.66753735483871 2.92440111290323  L 1.32082512903226 2.92440111290323  C 1.67615537410426 2.92440111290323  1.9642074516129 2.63634903539459  1.9642074516129 2.28101879032258  C 1.9642074516129 1.92568854525057  1.67615537410426 1.63763646774194  1.32082512903226 1.63763646774194  L 0.66753735483871 1.63763646774194  C 0.312207109766703 1.63763646774194  0.0241550322580645 1.92568854525057  0.0241550322580645 2.28101879032258  C 0.0241550322580645 2.63634903539459  0.312207109766703 2.92440111290323  0.66753735483871 2.92440111290323  Z " fill-rule="nonzero" fill="#7f7f7f" stroke="none" transform="matrix(1 0 0 1 26 419 )" />
  </g>
</svg>