<?xml version="1.0" encoding="utf-8"?>
<svg version="1.1" xmlns:xlink="http://www.w3.org/1999/xlink" width="25px" height="20px" xmlns="http://www.w3.org/2000/svg">
  <g transform="matrix(1 0 0 1 -7 -35 )">
    <path d="M 7 35  L 32 35  L 32 55  L 7 55  L 7 35  " fill-rule="nonzero" fill="#cccccc" stroke="none" />
    <path d="M 8 36  L 31 36  L 31 54  L 8 54  L 8 36  " fill-rule="nonzero" fill="#ffffff" stroke="none" />
    <path d="M 21.5 41  C 20.66 41  20 40.34  20 39.5  C 20 38.66  20.66 38  21.5 38  C 22.34 38  23 38.66  23 39.5  C 23 40.34  22.34 41  21.5 41  " fill-rule="nonzero" fill="#cccccc" stroke="none" />
    <path d="M 9 54  L 9 44.65  L 14.5 40.4  L 22.2 45.84  L 26.6 42.95  L 31 45.84  L 31 54  L 9 54  " fill-rule="nonzero" fill="#169bd5" stroke="none" />
  </g>
</svg>