<?xml version="1.0" encoding="utf-8"?>
<svg version="1.1" xmlns:xlink="http://www.w3.org/1999/xlink" width="20px" height="17px" xmlns="http://www.w3.org/2000/svg">
  <g transform="matrix(1 0 0 1 -687 -101 )">
    <path d="M 19.5286195286195 12.7070707070707  C 19.8428731762065 12.9741863075196  20 13.2985409652076  20 13.6801346801347  C 20 14.0617283950617  19.8428731762065 14.3860830527497  19.5286195286195 14.6531986531987  L 17.2390572390573 16.5993265993266  C 16.9248035914702 16.8664421997755  16.5432098765432 17  16.0942760942761 17  C 15.645342312009 17  15.2637485970819 16.8664421997755  14.949494949495 16.5993265993266  L 10 12.3922558922559  L 5.05050505050497 16.5993265993266  C 4.73625140291813 16.8664421997755  4.35465768799099 17  3.9057239057239 17  C 3.45679012345681 17  3.07519640852979 16.8664421997755  2.76094276094273 16.5993265993266  L 0.471380471380485 14.6531986531987  C 0.157126823793533 14.3860830527497  0 14.0617283950617  0 13.6801346801347  C 0 13.2985409652076  0.157126823793533 12.9741863075196  0.471380471380485 12.7070707070707  L 5.4208754208754 8.5  L 0.471380471380485 4.29292929292929  C 0.157126823793533 4.02581369248036  0 3.70145903479237  0 3.31986531986532  C 0 2.93827160493827  0.157126823793533 2.61391694725028  0.471380471380485 2.34680134680135  L 2.76094276094273 0.400673400673401  C 3.07519640852979 0.133557800224466  3.45679012345681 0  3.9057239057239 0  C 4.35465768799099 0  4.73625140291813 0.133557800224466  5.05050505050497 0.400673400673401  L 10 4.60774410774411  L 14.949494949495 0.400673400673401  C 15.2637485970819 0.133557800224466  15.645342312009 0  16.0942760942761 0  C 16.5432098765432 0  16.9248035914702 0.133557800224466  17.2390572390573 0.400673400673401  L 19.5286195286195 2.34680134680135  C 19.8428731762065 2.61391694725028  20 2.93827160493827  20 3.31986531986532  C 20 3.70145903479237  19.8428731762065 4.02581369248036  19.5286195286195 4.29292929292929  L 14.5791245791246 8.5  L 19.5286195286195 12.7070707070707  Z " fill-rule="nonzero" fill="#ffffff" stroke="none" transform="matrix(1 0 0 1 687 101 )" />
  </g>
</svg>