<?xml version="1.0" encoding="utf-8"?>
<svg version="1.1" xmlns:xlink="http://www.w3.org/1999/xlink" width="36px" height="40px" xmlns="http://www.w3.org/2000/svg">
  <g transform="matrix(1 0 0 1 -918 -7 )">
    <path d="M 936 7  C 946.08 7  954 15.8  954 27  C 954 38.2  946.08 47  936 47  C 925.92 47  918 38.2  918 27  C 918 15.8  925.92 7  936 7  Z " fill-rule="nonzero" fill="#f2f2f2" stroke="none" />
    <path d="M 936 7.5  C 945.8 7.5  953.5 16.08  953.5 27  C 953.5 37.92  945.8 46.5  936 46.5  C 926.2 46.5  918.5 37.92  918.5 27  C 918.5 16.08  926.2 7.5  936 7.5  Z " stroke-width="1" stroke="#cccccc" fill="none" />
  </g>
</svg>