<?xml version="1.0" encoding="utf-8"?>
<svg version="1.1" xmlns:xlink="http://www.w3.org/1999/xlink" width="12px" height="12px" viewBox="17 101  12 12" xmlns="http://www.w3.org/2000/svg">
  <path d="M 23 101  C 26.36 101  29 103.64  29 107  C 29 110.36  26.36 113  23 113  C 19.64 113  17 110.36  17 107  C 17 103.64  19.64 101  23 101  Z " fill-rule="nonzero" fill="#ffffff" stroke="none" />
  <path d="M 23 101.5  C 26.08 101.5  28.5 103.92  28.5 107  C 28.5 110.08  26.08 112.5  23 112.5  C 19.92 112.5  17.5 110.08  17.5 107  C 17.5 103.92  19.92 101.5  23 101.5  Z " stroke-width="1" stroke="#797979" fill="none" />
  <path d="M 23 110  C 21.32 110  20 108.68  20 107  C 20 105.32  21.32 104  23 104  C 24.68 104  26 105.32  26 107  C 26 108.68  24.68 110  23 110  " fill-rule="nonzero" fill="#797979" stroke="none" />
</svg>