<?xml version="1.0" encoding="utf-8"?>
<svg version="1.1" xmlns:xlink="http://www.w3.org/1999/xlink" width="19px" height="21px" xmlns="http://www.w3.org/2000/svg">
  <g transform="matrix(1 0 0 1 -552 -16 )">
    <path d="M 18.5521885521886 15.6969696969697  C 18.8507295173962 16.026936026936  19 16.4276094276094  19 16.8989898989899  C 19 17.3703703703704  18.8507295173962 17.7710437710438  18.5521885521886 18.1010101010101  L 16.3771043771044 20.5050505050505  C 16.0785634118968 20.8350168350168  15.7160493827161 21  15.2895622895622 21  C 14.8630751964085 21  14.5005611672278 20.8350168350168  14.2020202020202 20.5050505050505  L 9.5 15.3080808080808  L 4.79797979797979 20.5050505050505  C 4.49943883277217 20.8350168350168  4.13692480359146 21  3.71043771043776 21  C 3.28395061728395 21  2.92143658810323 20.8350168350168  2.62289562289561 20.5050505050505  L 0.447811447811432 18.1010101010101  C 0.149270482603811 17.7710437710438  0 17.3703703703704  0 16.8989898989899  C 0 16.4276094276094  0.149270482603811 16.026936026936  0.447811447811432 15.6969696969697  L 5.14983164983164 10.5  L 0.447811447811432 5.3030303030303  C 0.149270482603811 4.97306397306397  0 4.57239057239057  0 4.1010101010101  C 0 3.62962962962963  0.149270482603811 3.22895622895622  0.447811447811432 2.8989898989899  L 2.62289562289561 0.494949494949495  C 2.92143658810323 0.164983164983164  3.28395061728395 0  3.71043771043776 0  C 4.13692480359146 0  4.49943883277217 0.164983164983164  4.79797979797979 0.494949494949495  L 9.5 5.69191919191919  L 14.2020202020202 0.494949494949495  C 14.5005611672278 0.164983164983164  14.8630751964085 0  15.2895622895622 0  C 15.7160493827161 0  16.0785634118968 0.164983164983164  16.3771043771044 0.494949494949495  L 18.5521885521886 2.8989898989899  C 18.8507295173962 3.22895622895622  19 3.62962962962963  19 4.1010101010101  C 19 4.57239057239057  18.8507295173962 4.97306397306397  18.5521885521886 5.3030303030303  L 13.8501683501684 10.5  L 18.5521885521886 15.6969696969697  Z " fill-rule="nonzero" fill="#ffffff" stroke="none" transform="matrix(1 0 0 1 552 16 )" />
  </g>
</svg>