<?xml version="1.0" encoding="utf-8"?>
<svg version="1.1" xmlns:xlink="http://www.w3.org/1999/xlink" width="18px" height="18px" xmlns="http://www.w3.org/2000/svg">
  <g transform="matrix(1 0 0 1 -548 -42 )">
    <path d="M 5.21917808219177 16.1934005499542  C 5.67945205479441 16.3253895508708  6.07397260273979 16.4573785517873  6.53424657534242 16.6553620531622  L 7.38904109589043 15.6654445462878  L 7.52054794520541 15.5334555453712  C 8.30958904109593 14.80751604033  9.55890410958898 14.8735105407883  10.2821917808219 15.6654445462878  L 11.1369863013699 16.6553620531622  C 11.5972602739726 16.5233730522457  12.0575342465754 16.3253895508708  12.4520547945206 16.1274060494959  L 12.3863013698631 14.80751604033  L 12.3863013698631 14.6095325389551  C 12.4520547945206 13.487626031164  13.3726027397261 12.6956920256645  14.4904109589041 12.7616865261228  L 15.8054794520548 12.8276810265811  C 16.0027397260274 12.4317140238313  16.2 11.9697525206233  16.3315068493151 11.5077910174152  L 15.345205479452 10.6498625114574  L 15.2136986301371 10.5178735105408  C 14.4904109589041 9.72593950504125  14.5561643835616 8.47204399633364  15.345205479452 7.74610449129239  L 16.3315068493151 6.88817598533456  C 16.2 6.42621448212648  16.0027397260274 5.96425297891842  15.8054794520548 5.56828597616865  L 14.4904109589041 5.63428047662696  L 14.2931506849316 5.63428047662696  C 13.1753424657534 5.56828597616865  12.3863013698631 4.64436296975254  12.4520547945206 3.52245646196151  L 12.5178082191781 2.20256645279561  C 12.1232876712329 2.00458295142073  11.6630136986302 1.80659945004584  11.2027397260274 1.67461044912926  L 10.3479452054794 2.6645279560037  L 10.2164383561644 2.79651695692026  C 9.42739726027389 3.52245646196151  8.17808219178073 3.45646196150324  7.45479452054792 2.6645279560037  L 6.59999999999991 1.67461044912926  C 6.27123287671225 1.80659945004584  5.8109589041095 2.00458295142073  5.28493150684926 2.2685609532539  L 5.35068493150675 3.58845096241981  L 5.35068493150675 3.78643446379471  C 5.28493150684926 4.90834097158572  4.36438356164376 5.70027497708526  3.24657534246569 5.63428047662696  L 1.93150684931504 5.56828597616865  C 1.73424657534235 5.96425297891842  1.53698630136978 6.42621448212648  1.40547945205481 6.88817598533456  L 2.39178082191779 7.74610449129239  L 2.52328767123277 7.87809349220896  C 3.24657534246569 8.67002749770853  3.1808219178082 9.92392300641615  2.39178082191779 10.6498625114574  L 1.40547945205481 11.5077910174152  C 1.53698630136978 11.9697525206233  1.73424657534235 12.4317140238313  1.93150684931504 12.8276810265811  L 3.24657534246569 12.7616865261228  L 3.44383561643826 12.7616865261228  C 4.56164383561645 12.8276810265811  5.35068493150675 13.7516040329972  5.28493150684926 14.8735105407883  L 5.21917808219177 16.1934005499542  Z M 4.29863013698628 16.9853345554537  C 4.0356164383561 16.9193400549954  3.90410958904113 16.6553620531622  3.90410958904113 16.3913840513291  L 3.96986301369861 14.6755270394134  C 3.96986301369861 14.2795600366636  3.70684931506844 14.0155820348304  3.37808219178078 13.9495875343721  L 3.31232876712329 13.9495875343721  L 1.60273972602727 14.0155820348304  C 1.33972602739721 14.0155820348304  1.14246575342463 13.8835930339139  1.01095890410954 13.6856095325389  C 0.550684931506794 12.9596700274977  0.221917808219132 12.1677360219982  0.0246575342465576 11.3098075160403  C -0.0410958904109293 11.0458295142072  0.0246575342465576 10.8478460128323  0.221917808219132 10.6498625114574  L 1.53698630136978 9.46196150320804  C 1.79999999999995 9.19798350137489  1.79999999999995 8.80201649862511  1.60273972602727 8.53803849679193  L 1.53698630136978 8.47204399633364  L 0.221917808219132 7.28414298808431  C 0.0246575342465576 7.15215398716774  -0.0410958904109293 6.88817598533456  0.0246575342465576 6.62419798350138  C 0.221917808219132 5.76626947754353  0.550684931506794 4.97433547204402  1.01095890410954 4.24839596700276  C 1.14246575342463 4.05041246562787  1.33972602739721 3.91842346471128  1.60273972602727 3.91842346471128  L 3.31232876712329 3.9844179651696  C 3.70684931506844 3.9844179651696  3.96986301369861 3.7204399633364  4.0356164383561 3.39046746104492  L 4.0356164383561 3.32447296058665  L 3.96986301369861 1.60861594867094  C 3.96986301369861 1.34463794683779  4.1013698630137 1.0806599450046  4.36438356164376 1.0146654445463  C 5.35068493150675 0.486709440879935  6.13972602739727 0.222731439046754  6.731506849315 0.0247479376718616  C 6.99452054794529 -0.0412465627864265  7.19178082191775 0.0247479376718616  7.38904109589043 0.222731439046754  L 8.57260273972599 1.54262144821266  C 8.83561643835606 1.80659945004584  9.23013698630143 1.80659945004584  9.49315068493149 1.60861594867094  L 9.55890410958898 1.54262144821266  L 10.7424657534247 0.222731439046754  C 10.8739726027396 0.0247479376718616  11.1369863013699 -0.0412465627864265  11.4 0.0247479376718616  C 12.2547945205479 0.222731439046754  13.0438356164384 0.552703941338223  13.7671232876712 1.0146654445463  C 13.9643835616438 1.14665444546289  14.0958904109589 1.34463794683779  14.0958904109589 1.60861594867094  L 14.0301369863014 3.32447296058665  C 14.0301369863014 3.7204399633364  14.2931506849316 3.9844179651696  14.6219178082191 4.05041246562787  L 14.6876712328767 4.05041246562787  L 16.3972602739726 3.9844179651696  C 16.6602739726028 3.9844179651696  16.8575342465753 4.11640696608617  16.9890410958905 4.31439046746107  C 17.4493150684932 5.04032997250229  17.7780821917808 5.83226397800185  17.9753424657534 6.69019248395969  C 18.0410958904109 6.95417048579284  17.9753424657534 7.15215398716774  17.7780821917808 7.35013748854263  L 16.4630136986301 8.53803849679193  C 16.2 8.80201649862511  16.2 9.19798350137489  16.3972602739726 9.46196150320804  L 16.4630136986301 9.52795600366636  L 17.7780821917808 10.7158570119157  C 17.9753424657534 10.8478460128323  18.0410958904109 11.1118240146654  17.9753424657534 11.3758020164986  C 17.7780821917808 12.2337305224565  17.4493150684932 13.025664527956  16.9890410958905 13.7516040329972  C 16.8575342465753 13.9495875343721  16.6602739726028 14.0815765352887  16.3972602739726 14.0815765352887  L 14.6876712328767 14.0155820348304  C 14.2931506849316 14.0155820348304  14.0301369863014 14.2795600366636  13.9643835616438 14.6095325389551  L 13.9643835616438 14.6755270394134  L 14.0301369863014 16.3913840513291  C 14.0301369863014 16.6553620531622  13.8986301369863 16.8533455545371  13.7013698630136 16.9853345554537  C 12.9780821917808 17.4472960586618  12.1890410958904 17.7772685609532  11.3342465753425 17.9752520623281  C 11.0712328767124 18.0412465627865  10.8739726027396 17.9752520623281  10.6767123287671 17.7772685609532  L 9.49315068493149 16.4573785517873  C 9.23013698630143 16.1934005499542  8.83561643835606 16.1934005499542  8.57260273972599 16.3913840513291  L 8.50684931506839 16.4573785517873  L 7.32328767123295 17.7772685609532  C 7.19178082191775 17.9752520623281  6.92876712328757 18.0412465627865  6.6657534246574 17.9752520623281  C 5.8109589041095 17.7772685609532  5.0219178082192 17.4472960586618  4.29863013698628 16.9853345554537  Z M 12.8465753424657 9.06599450045832  C 12.8465753424657 11.243813015582  11.0712328767124 13.025664527956  8.90136986301366 13.025664527956  C 6.731506849315 13.025664527956  4.9561643835616 11.243813015582  4.9561643835616 9.06599450045832  C 4.9561643835616 6.88817598533456  6.731506849315 5.10632447296061  8.90136986301366 5.10632447296061  C 11.0712328767124 5.10632447296061  12.8465753424657 6.88817598533456  12.8465753424657 9.06599450045832  Z M 6.27123287671225 9.06599450045832  C 6.27123287671225 10.5178735105408  7.45479452054792 11.7057745187901  8.90136986301366 11.7057745187901  C 10.3479452054794 11.7057745187901  11.5315068493151 10.5178735105408  11.5315068493151 9.06599450045832  C 11.5315068493151 7.61411549037581  10.3479452054794 6.42621448212648  8.90136986301366 6.42621448212648  C 7.45479452054792 6.42621448212648  6.27123287671225 7.61411549037581  6.27123287671225 9.06599450045832  Z " fill-rule="nonzero" fill="#cccccc" stroke="none" transform="matrix(1 0 0 1 548 42 )" />
  </g>
</svg>