<?xml version="1.0" encoding="utf-8"?>
<svg version="1.1" xmlns:xlink="http://www.w3.org/1999/xlink" width="12px" height="12px" viewBox="17 72  12 12" xmlns="http://www.w3.org/2000/svg">
  <path d="M 23 72  C 26.36 72  29 74.64  29 78  C 29 81.36  26.36 84  23 84  C 19.64 84  17 81.36  17 78  C 17 74.64  19.64 72  23 72  Z " fill-rule="nonzero" fill="#ffffff" stroke="none" />
  <path d="M 23 72.5  C 26.08 72.5  28.5 74.92  28.5 78  C 28.5 81.08  26.08 83.5  23 83.5  C 19.92 83.5  17.5 81.08  17.5 78  C 17.5 74.92  19.92 72.5  23 72.5  Z " stroke-width="1" stroke="#797979" fill="none" />
  <path d="M 23 81  C 21.32 81  20 79.68  20 78  C 20 76.32  21.32 75  23 75  C 24.68 75  26 76.32  26 78  C 26 79.68  24.68 81  23 81  " fill-rule="nonzero" fill="#797979" stroke="none" />
</svg>