<?xml version="1.0" encoding="utf-8"?>
<svg version="1.1" xmlns:xlink="http://www.w3.org/1999/xlink" width="20px" height="17px" xmlns="http://www.w3.org/2000/svg">
  <g transform="matrix(1 0 0 1 -435 -38 )">
    <path d="M 19.7009102730819 7.00780234070221  L 17.9063719115735 8.5  L 19.7009102730819 9.99219765929779  C 19.9609882964889 10.198526224534  20.047680970958 10.4564369310793  19.9609882964889 10.7659297789337  C 19.8569570871261 11.0680537494582  19.6315561335067 11.2559601213697  19.2847854356307 11.3296488946684  L 16.8400520156047 11.8602080624187  L 17.5292587776333 13.9161248374512  C 17.6332899869961 14.2182488079757  17.5509319462505 14.476159514521  17.2821846553966 14.6898569570871  C 17.0307758994365 14.918292154313  16.727351538795 14.9882964889467  16.371911573472 14.8998699609883  L 13.9531859557867 14.314044213264  L 13.3289986996099 16.3920676202861  C 13.2423060251409 16.6868227134807  13.0212397052449 16.8784135240572  12.665799739922 16.9668400520156  C 12.5617685305592 16.9815778066753  12.4794104898136 16.9889466840052  12.4187256176853 16.9889466840052  C 12.1499783268314 16.9889466840052  11.9289120069354 16.9078890333767  11.7555266579974 16.7457737321196  L 10 15.2204161248375  L 8.2444733420026 16.7457737321196  C 8.00173385348938 16.9668400520156  7.69830949284786 17.0405288253143  7.33420026007802 16.9668400520156  C 6.97876029475509 16.8857824013871  6.75769397485913 16.6941915908106  6.67100130039012 16.3920676202861  L 6.04681404421326 14.314044213264  L 3.62808842652796 14.8998699609883  C 3.27264846120503 14.9882964889467  2.9692241005635 14.918292154313  2.71781534460338 14.6898569570871  C 2.44906805374946 14.476159514521  2.3667100130039 14.2182488079757  2.47074122236671 13.9161248374512  L 3.15994798439532 11.8602080624187  L 0.715214564369311 11.3296488946684  C 0.368443866493281 11.2559601213697  0.143042912873862 11.0680537494582  0.0390117035110533 10.7659297789337  C -0.0476809709579541 10.4564369310793  0.0390117035110533 10.198526224534  0.299089726918075 9.99219765929779  L 2.09362808842653 8.5  L 0.299089726918075 7.00780234070221  C 0.0390117035110533 6.80147377546597  -0.0476809709579541 6.54356306892068  0.0390117035110533 6.23407022106632  C 0.143042912873862 5.93194625054183  0.368443866493281 5.74403987863026  0.715214564369311 5.6703511053316  L 3.15994798439532 5.13979193758127  L 2.47074122236671 3.08387516254876  C 2.3667100130039 2.78175119202427  2.44906805374946 2.52384048547898  2.71781534460338 2.31014304291287  C 2.9692241005635 2.08170784568704  3.27264846120503 2.01170351105332  3.62808842652796 2.1001300390117  L 6.04681404421326 2.68595578673602  L 6.67100130039012 0.607932379713914  C 6.75769397485913 0.305808409189422  6.97876029475509 0.117902037277849  7.33420026007802 0.044213263979193  C 7.68964022540095 -0.044213263979193  7.99306458604248 0.0257910706545296  8.2444733420026 0.254226267880365  L 10 1.79063719115735  L 11.7555266579974 0.254226267880365  C 12.0069354139575 0.0331599479843957  12.310359774599 -0.0368443866493307  12.665799739922 0.044213263979193  C 13.0212397052449 0.117902037277849  13.2423060251409 0.305808409189422  13.3289986996099 0.607932379713914  L 13.9531859557867 2.68595578673602  L 16.371911573472 2.1001300390117  C 16.727351538795 2.01170351105332  17.0307758994365 2.08170784568704  17.2821846553966 2.31014304291287  C 17.5509319462505 2.52384048547898  17.6332899869961 2.78175119202427  17.5292587776333 3.08387516254876  L 16.8400520156047 5.13979193758127  L 19.2847854356307 5.6703511053316  C 19.6315561335067 5.74403987863026  19.8569570871261 5.93194625054183  19.9609882964889 6.23407022106632  C 20.047680970958 6.54356306892068  19.9609882964889 6.80147377546597  19.7009102730819 7.00780234070221  Z " fill-rule="nonzero" fill="#38acf8" stroke="none" transform="matrix(1 0 0 1 435 38 )" />
  </g>
</svg>