<?xml version="1.0" encoding="utf-8"?>
<svg version="1.1" xmlns:xlink="http://www.w3.org/1999/xlink" width="15px" height="11px" xmlns="http://www.w3.org/2000/svg">
  <g transform="matrix(1 0 0 1 -487 -52 )">
    <path d="M 14.8496993987976 1.1340206185567  C 14.9498997995992 1.26002290950744  15 1.4049255441008  15 1.56872852233677  C 15 1.73253150057274  14.9498997995992 1.87743413516609  14.8496993987976 2.00343642611684  L 7.84569138276553 10.8109965635739  C 7.74549098196393 10.9369988545246  7.63026052104208 11  7.5 11  C 7.36973947895792 11  7.25450901803607 10.9369988545246  7.15430861723447 10.8109965635739  L 0.150300601202405 2.00343642611684  C 0.0501002004008018 1.87743413516609  0 1.73253150057274  0 1.56872852233677  C 0 1.4049255441008  0.0501002004008018 1.26002290950744  0.150300601202405 1.1340206185567  L 0.901803607214429 0.189003436426117  C 1.00200400801603 0.0630011454753708  1.11723446893788 0  1.24749498997996 0  C 1.37775551102204 0  1.49298597194389 0.0630011454753708  1.59318637274549 0.189003436426117  L 7.5 7.61683848797251  L 13.4068136272545 0.189003436426117  C 13.5070140280561 0.0630011454753708  13.622244488978 0  13.75250501002 0  C 13.8827655310621 0  13.997995991984 0.0630011454753708  14.0981963927856 0.189003436426117  L 14.8496993987976 1.1340206185567  Z " fill-rule="nonzero" fill="#02a7f0" stroke="none" transform="matrix(1 0 0 1 487 52 )" />
  </g>
</svg>