<?xml version="1.0" encoding="utf-8"?>
<svg version="1.1" xmlns:xlink="http://www.w3.org/1999/xlink" width="22px" height="22px" preserveAspectRatio="xMinYMid meet" viewBox="346 325  22 20" xmlns="http://www.w3.org/2000/svg">
  <path d="M 357 335.5  L 395 335.5  A 5 5 0 0 0 400.5 330.5 L 400.5 305  A 5 5 0 0 1 405.5 300.5 L 431 300.5  A 1 1 0 0 1 432.5 301.5 " stroke-width="3" stroke-dasharray="27,12" stroke="#f59a23" fill="none" />
  <path d="M 362.16066017178 339.43933982822  L 358.22132034356 335.5  L 362.16066017178 331.56066017178  L 360.03933982822 329.43933982822  L 355.03933982822 334.43933982822  L 353.97867965644 335.5  L 355.03933982822 336.56066017178  L 360.03933982822 341.56066017178  L 362.16066017178 339.43933982822  Z M 436.43933982822 293.83933982822  L 432.5 297.77867965644  L 428.56066017178 293.83933982822  L 426.43933982822 295.96066017178  L 431.43933982822 300.96066017178  L 432.5 302.02132034356  L 433.56066017178 300.96066017178  L 438.56066017178 295.96066017178  L 436.43933982822 293.83933982822  Z " fill-rule="nonzero" fill="#f59a23" stroke="none" />
</svg>