<?xml version="1.0" encoding="utf-8"?>
<svg version="1.1" xmlns:xlink="http://www.w3.org/1999/xlink" width="18px" height="28px" xmlns="http://www.w3.org/2000/svg">
  <g transform="matrix(1 0 0 1 -154 -119 )">
    <path d="M 0.0803878050682272 10.31026382846  C 3.4532504951267 13.7052104483431  7.7247984405458 15.8338395945419  13.7487696842105 15.4654280233918  C 13.8711405536062 16.4223108615984  13.9586967329435 17.3212559844055  14.0072814035088 18.1744743547758  C 14.1171813177388 20.0970736530214  14.0254681325536 21.7858432748538  13.6812189317739 23.3753652397661  C 13.6773217933723 23.3932921637427  13.6744638752437 23.4117387602339  13.6703068693957 23.4299254892788  C 13.6565368888889 23.4920202729045  13.6419874931774 23.5541149941521  13.6274380974659 23.6156901052632  C 13.3146259961014 24.9505975516569  12.8183875243665 26.2195130760234  12.1036482495127 27.5016789707602  C 12.0916969668616 27.522983423002  12.0815643196881 27.5440281325536  12.069613037037 27.5653326471735  C 15.8961052319688 24.1506404054581  17.6108559844055 19.6257770292398  17.7168587602339 15.2417309941521  C 17.9408155945419 5.96285111890839  10.952946588694 -2.68494852241715  1.49193943079923 1.15791176608187  C 1.48128717348929 1.16232857699805  1.47089478362575 1.16570610526316  1.4602425263158 1.16986304873295  C 1.28227218713452 1.24261002729045  1.1027429551657 1.32341115009747  0.923213785575058 1.40499175048733  C 0.874369372319698 1.42733548538012  0.825784764132564 1.44630162962963  0.776680545808979 1.4694247797271  C 0.544398551793073 1.57805941493933  0.314664257469879 1.69206031284477  0.0876625341130648 1.81133573489279  L 0.0806476101364595 1.80380120077973  L 0.0806476101364595 10.31026382846  Z " fill-rule="nonzero" fill="#f7b970" stroke="none" transform="matrix(1 0 0 1 154 119 )" />
  </g>
</svg>