<?xml version="1.0" encoding="utf-8"?>
<svg version="1.1" xmlns:xlink="http://www.w3.org/1999/xlink" width="33px" height="35px" xmlns="http://www.w3.org/2000/svg">
  <g transform="matrix(1 0 0 1 -138 -129 )">
    <path d="M 32.8207716179337 34.1719139181287  C 31.7446356335283 31.3870028849903  30.0116981520468 29.1578269317739  27.8820297231969 27.4862047563353  C 30.0740527407407 29.2230393762183  31.7649008654971 31.4989812397661  32.81453617154 34.1760708615984  C 32.8166146744639 34.1747718362573  32.8189529824561 34.173472748538  32.8207716179337 34.1719139181287  Z M 14.998016374269 23.6041130916179  C 16.2105529512671 23.7631172241715  16.781097294347 23.7171307290448  17.9824620662768 23.6802375984405  C 18.0263700584795 23.6750413723197  18.0705379181287 23.6719236491228  18.1144459103314 23.6664676179337  C 18.7777426588694 23.4687516569201  23.6642626120858 20.5780976530214  24.9386341676413 20.9979518128655  C 26.1820882339181 20.0662705653022  27.2641998596491 18.9015391812866  28.1039080545809 17.501419165692  C 28.8186473294347 16.2192532709552  29.3148858011696 14.9503377465887  29.6276979025341 13.6154303001949  C 29.6414678830409 13.553075711501  29.6575761091618 13.4925398206628  29.6705666744639 13.4296656842105  C 29.6747236179337 13.4114789551657  29.6775815360624 13.3930323586745  29.6814787368421 13.3751054346979  C 29.8789348927875 12.3956190565302  29.9846778635478 11.3475426432749  29.9846778635478 10.2300967173489  C 29.9846778635478 9.53328436647173  29.9968889512671 8.84712427290449  30.007541208577 8.17447435477583  C 29.9586967953216 7.32125598440545  29.8714004210526 6.42231092397661  29.7490295516569 5.46542802339182  C 23.724798502924 5.83357978947368  19.4535103625731 3.70521044834308  16.0806476101364 0.310263828460041  C 11.3450777076023 3.53607366861598  6.83788145029239 5.39190162962963  2.61803583625731 5.46542802339182  C 2.5551616374269 6.60547742690058  2.51047423001949 7.67589757504874  2.50008177777778 8.69357617153997  C 2.50787611695906 9.18851555555555  2.51463117348928 9.69228856140352  2.5148909785575 10.2038558440546  C 2.57023064327485 11.9274401559454  2.77184380506823 13.4894221598441  3.23248817153996 14.9448817777778  C 4.05271061208577 17.4468589785575  5.52427845614035 19.4175232124756  7.37231207797271 20.8563549317739  C 9.35077065107212 21.0444579181287  14.6488307524366 23.635550128655  14.998016374269 23.6041130916179  Z M 0.0391546510721241 34.6011211851852  C 1.07450036647174 31.7330707212476  2.83315904873294 29.3041003040936  5.14729313060429 27.4747730838207  C 2.90356778167641 29.232392545809  1.10100104483431 31.6091409590643  0.0381154307992198 34.6003417699805  L 0.0391546510721241 34.6011211851852  Z " fill-rule="nonzero" fill="#fce9ea" stroke="none" transform="matrix(1 0 0 1 138 129 )" />
  </g>
</svg>