<?xml version="1.0" encoding="utf-8"?>
<svg version="1.1" xmlns:xlink="http://www.w3.org/1999/xlink" width="64px" height="60px" xmlns="http://www.w3.org/2000/svg">
  <g transform="matrix(1 0 0 1 -122 -104 )">
    <path d="M 63.9983939493177 31.9902570916179  C 63.9983939493177 14.3592421676413  49.7038682573099 0.064456670565304  32.0725935282651 0.0644566705653039  C 14.4418384093567 0.0644566705653039  0.14731265497076 14.3592421676413  0.14731265497076 31.9899972865497  C 0.14731265497076 43.7757907212476  6.53605813645224 54.0694912748538  16.0381154307992 59.6003417699805  C 17.1010010448343 56.6091410214425  18.9035677816764 54.2323926081871  21.1472931306043 52.4747730838207  C 22.5468934736842 51.3684990877193  24.148886331384 50.482024920078  25.9143001325536 49.8488661832359  C 22.2005657699805 46.6152620038986  22.0948227992203 45.7352831500975  23.3717924678363 45.8568745419103  C 21.5237588460039 44.4180428226121  20.0521909395712 42.4473785263158  19.2319685614035 39.9454013879142  C 19.5289321793372 40.884097497076  19.9311192202729 41.7801846393762  20.4733441247563 42.646653380117  C 8.33109033918129 30.9388031500975  17.3259970994152 9.05650551267057  32.0803878050682 16.8079581442495  L 32.0803878050682 16.804061005848  L 32.0874027290448 16.811595539961  C 32.3186342923977 16.6902639532164  32.5480470955166 16.5762070331384  32.7764207407407 16.4696846471735  C 32.8255249590643 16.4468213021442  32.8741095672515 16.4275952904483  32.9229539805068 16.4052515555556  C 33.1004711545369 16.3235099290121  33.2795125004634 16.2451197870432  33.4599827212476 16.1701228538012  C 33.4706349785575 16.165706042885  33.481027368421 16.1623285146199  33.491679625731 16.1581715711501  C 42.9526867836257 12.3153112826511  49.9408155945419 20.9628511189084  49.7165989551657 30.2419907992203  C 49.6451510019493 34.6805970214425  47.9332582300195 39.2368975594542  44.0693532319688 42.5655924522417  C 44.0813045146199 42.544288  44.0914371617934 42.5232432904483  44.1033884444444 42.5019388382066  C 43.2639400545809 43.902058791423  42.1818284288499 45.0667902378168  40.9381144951267 45.9984714230019  C 41.5751703703704 46.2083984717349  41.3093839844055 47.2458226900585  39.1573718830409 49.8641950565302  L 39.1407439844054 49.8641950565302  C 40.8962850058479 50.4989126237817  42.48996391423 51.383308288499  43.8820297231969 52.4864645614035  C 46.0114383469785 54.1583465419103  47.74437582846 56.3875224327485  48.8210314230019 59.1721737231969  C 57.9279166003899 53.5485708226121  63.9983939493177 43.4785672982456  63.9983939493177 31.9902570916179  Z " fill-rule="nonzero" fill="#a0d9f6" stroke="none" transform="matrix(1 0 0 1 122 104 )" />
  </g>
</svg>