<?xml version="1.0" encoding="utf-8"?>
<svg version="1.1" xmlns:xlink="http://www.w3.org/1999/xlink" width="20px" height="5px" xmlns="http://www.w3.org/2000/svg">
  <g transform="matrix(1 0 0 1 -144 -149 )">
    <path d="M 3.91430013255361 4.84886618323586  C 3.91745771444168 4.85131301938019  3.92049253225887 4.85391430071695  3.92339349707602 4.85666052241715  L 17.1410037894737 4.86393525146199  L 17.1576316881092 4.86393525146199  C 19.3096438518519 2.24556288499026  19.5756899805068 1.20813866666666  18.9383743001949 0.99821161793372  C 17.6642625497076 0.578357520467833  12.777482791423 3.46901152436647  12.1141861052632 3.66672742300194  C 12.0947343994702 3.67369845531072  12.0743045354125 3.67755645611307  12.053650214425 3.67815909551656  L 11.9824620662768 3.68049740350877  C 10.781097294347 3.71739053411305  10.2105530136452 3.76337702923976  8.99749676413256 3.60463270175438  C 8.64857094736842 3.63606980116958  3.35051090838207 1.04471772319687  1.37179246783626 0.856874541910322  C 0.0945629941520494 0.735283150097459  0.200565769980511 1.61526200389863  3.91430013255361 4.84886618323586  Z " fill-rule="nonzero" fill="#ed7667" stroke="none" transform="matrix(1 0 0 1 144 149 )" />
  </g>
</svg>