<?xml version="1.0" encoding="utf-8"?>
<svg version="1.1" xmlns:xlink="http://www.w3.org/1999/xlink" width="36px" height="28px" xmlns="http://www.w3.org/2000/svg">
  <g transform="matrix(1 0 0 1 -136 -119 )">
    <path d="M 19.4919394307992 1.1581715711501  L 19.4602425263158 1.17012285380117  C 19.4708947836257 1.16570604288499  19.4812871734893 1.16232851461988  19.4919394307992 1.1581715711501  Z M 4.51463117348927 20.2041156491228  C 4.49890844250438 19.7008526462218  4.49397090905843 19.1973105235445  4.49982197270955 18.6938359766082  C 4.51047423001949 17.676157380117  4.55490183235867 16.6054774269006  4.61777603118908 15.46568782846  C 8.83762164522417 15.3919015672515  13.3448179649123 13.536073668616  18.0803878050682 10.3105236335283  L 18.0803878050682 1.80795814424951  C 3.3259970994152 -5.9434945497076  -5.66864979337233 15.9385432826511  6.47360392982455 27.6463935750487  C 5.93137896296296 26.7796650292398  5.52919198440545 25.8838376920078  5.23222836647173 24.945141582846  C 4.77158399999999 23.4896819649123  4.56997083820662 21.9276999610136  4.51463117348927 20.2041156491228  Z M 18.9229539805068 1.40525155555556  C 18.8741095672515 1.42759529044834  18.8257847641326 1.44656143469786  18.7764207407407 1.46968464717349  C 18.8255249590643 1.44682130214425  18.8741095672515 1.42759529044834  18.9229539805068 1.40525155555556  Z M 35.7168587602339 15.2417309941521  C 35.6108559844055 19.6257769668616  33.896105294347 24.1506404054581  30.069613037037 27.5653326471735  C 33.9335179727096 24.236637754386  35.6454108070175 19.6803372787524  35.7168587602339 15.2417309941521  Z " fill-rule="nonzero" fill="#fbce77" stroke="none" transform="matrix(1 0 0 1 136 119 )" />
  </g>
</svg>