<?xml version="1.0" encoding="utf-8"?>
<svg version="1.1" xmlns:xlink="http://www.w3.org/1999/xlink" width="11px" height="15px" xmlns="http://www.w3.org/2000/svg">
  <g transform="matrix(1 0 0 1 -680 -198 )">
    <path d="M 8.740120703125 4.38383775878906  C 8.740105703125 4.77675136230469  8.42044744140625 5.09637965332031  8.02757880859375 5.09637965332031  L 2.97673827636719 5.09637965332031  C 2.58385465820313 5.09637965332031  2.26416639648438 4.77675136230469  2.26416639648438 4.38383775878906  L 2.26416639648438 2.50821943359375  C 2.26416639648438 2.11533581542969  2.58383965820313 1.79572250976562  2.97673827636719 1.79572250976562  L 3.83827915527344 1.79572250976562  C 3.95008834960938 0.977397333984375  4.65363633789063 0.344856196289062  5.50215104980469 0.344856196289062  C 6.35068074707031 0.344856196289062  7.05424373535156 0.977397333984375  7.1660379296875 1.79572250976562  L 8.02759379394531 1.79572250976562  C 8.42046242675781 1.79572250976562  8.740120703125 2.11533581542969  8.740120703125 2.50821943359375  L 8.740120703125 4.38383775878906  Z M 2.97673827636719 2.48549482910156  C 2.96419178710937 2.48549482910156  2.95395373046875 2.49568791503906  2.95395373046875 2.50823441894531  L 2.95395373046875 4.38385274414063  C 2.95395373046875 4.39641423339844  2.96419178710937 4.4066223046875  2.97673827636719 4.4066223046875  L 8.02757880859375 4.4066223046875  C 8.04012529785156 4.4066223046875  8.05036335449219 4.39641421875  8.05036335449219 4.38385274414063  L 8.05036335449219 2.50821943359375  C 8.05036335449219 2.49567294433594  8.04012529785156 2.48547984375  8.02757880859375 2.48547984375  L 6.45521986328125 2.48547984375  L 6.48770284667969 2.11082386230469  C 6.49041600097656 2.07895546875  6.49176509277344 2.05062467285156  6.49176509277344 2.02422757324219  C 6.49176509277344 1.47858251953125  6.04782608886719 1.03461353027344  5.50215104980469 1.03461353027344  C 4.95650599609375 1.03461353027344  4.5125519921875 1.47856753417969  4.5125519921875 2.02422757324219  C 4.5125519921875 2.05062467285156  4.51388608398437 2.07895546875  4.51661423828125 2.11082386230469  L 4.54906723632813 2.48547984375  L 2.97673827636719 2.48547984375  Z M 2.57309193847656 11.8627470556641  L 2.57309193847656 11.1729747216797  L 8.41415170410156 11.1729747216797  L 8.41415170410156 11.8627470556641  L 2.57309193847656 11.8627470556641  Z M 2.57309193847656 9.66411272460937  L 2.57309193847656 8.97432540527344  L 8.41415170410156 8.97432540527344  L 8.41415170410156 9.66411272460937  L 2.57309193847656 9.66411272460937  Z M 2.57309193847656 7.46546340820312  L 2.57309193847656 6.77567608886719  L 8.41415170410156 6.77567608886719  L 8.41415170410156 7.46546340820312  L 2.57309193847656 7.46546340820312  Z M 10.8238129492187 13.3118595556641  C 10.8238129492188 13.7886562939453  10.4358459912109 14.1766082666016  9.95903426757813 14.1766082666016  L 1.00861766113281 14.1766082666016  C 0.531790952148437 14.1766082666016  0.14385396484375 13.7886562939453  0.14385396484375 13.3118595703125  L 0.14385396484375 3.97542465820312  C 0.14385396484375 3.49858296386719  0.5318059375 3.11066096191406  1.00861766113281 3.11066096191406  L 2.23468139160156 3.11066096191406  L 2.23468139160156 2.51568435058594  C 2.23468139160156 2.121451640625  2.55546390625 1.80072909667969  2.9497116015625 1.80072909667969  L 3.81422045898437 1.80072909667969  C 3.92640440429687 0.979585825195312  4.63236575195312 0.344856181640624  5.48381847167969 0.344856181640624  C 6.33528617675781 0.344856181640624  7.0412475390625 0.979585839843749  7.15343146972656 1.80072909667969  L 8.01795532714844 1.80072909667969  C 8.41218803710937 1.80072909667969  8.73294056640625 2.121451640625  8.73294056640625 2.51568435058594  L 8.73294056640625 3.11066096191406  L 9.95903426757812 3.11066096191406  C 10.4358609765625 3.11066096191406  10.8238129492187 3.49859793457031  10.8238129492187 3.97542465820312  L 10.8238129492187 13.3118595556641  Z M 1.00861766113281 3.80281668457031  C 0.913432202148437 3.80281668457031  0.8360096875 3.88025418457031  0.8360096875 3.97543964355469  L 0.8360096875 13.3118745410156  C 0.8360096875 13.40706  0.913432202148438 13.4844825146484  1.00861766113281 13.4844825146484  L 9.95903428222656 13.4844825146484  C 10.0542347412109 13.4844825146484  10.1316872265625 13.40706  10.1316872265625 13.3118745410156  L 10.1316872119141 3.97542465820312  C 10.1316872119141 3.88023919921875  10.0542347265625 3.80280169921875  9.95903426757813 3.80280169921875  L 8.04079984375 3.80280169921875  L 8.04079984375 2.51566937988281  C 8.04079984375 2.50309290527344  8.03053180175781 2.49285484863281  8.01795532714844 2.49285484863281  L 6.44011010253906 2.49285484863281  L 6.47277295410156 2.11690974609375  C 6.47548610839844 2.08495141113281  6.47683520019531 2.05653068847656  6.47683520019531 2.03001366210937  C 6.47683520019531 1.48246489746094  6.03135223632813 1.03699693359375  5.48381847167969 1.03699693359375  C 4.93629969238281 1.03699693359375  4.49081672851563 1.48244991210937  4.49081672851563 2.03001366210937  C 4.49081672851563 2.05653068847656  4.4921508203125 2.08495141113281  4.49489395996094 2.11690974609375  L 4.52751184082031 2.49285484863281  L 2.9497116015625 2.49285484863281  C 2.93712014160156 2.49285484863281  2.92685209960938 2.50309290527344  2.92685209960938 2.51566937988281  L 2.92685209960938 3.80280169921875  L 1.00861766113281 3.80280169921875  Z " fill-rule="nonzero" fill="#ffffff" stroke="none" transform="matrix(1 0 0 1 680 198 )" />
  </g>
</svg>