<?xml version="1.0" encoding="utf-8"?>
<svg version="1.1" xmlns:xlink="http://www.w3.org/1999/xlink" width="12px" height="7px" xmlns="http://www.w3.org/2000/svg">
  <g transform="matrix(1 0 0 1 -339 -93 )">
    <path d="M 11.3125 1.8125  C 11.75 1.375  11.6875 0.812500000000002  11.375 0.4375  C 11.1875 0.25  10.9375 0.1875  10.6875 0.1875  L 1.3125 0.25  C 1.0625 0.25  0.8125 0.3125  0.625 0.5  C 0.25 0.875  0.25 1.4375  0.625 1.8125  L 5.3125 6.5  C 5.375 6.5625  5.5 6.625  5.5625 6.6875  L 5.625 6.75  C 5.9375 6.875  6.375 6.8125  6.625 6.5625  L 11.3125 1.8125  Z " fill-rule="nonzero" fill="#cccccc" stroke="none" transform="matrix(1 0 0 1 339 93 )" />
  </g>
</svg>