<?xml version="1.0" encoding="utf-8"?>
<svg version="1.1" xmlns:xlink="http://www.w3.org/1999/xlink" width="33px" height="15px" xmlns="http://www.w3.org/2000/svg">
  <g transform="matrix(1 0 0 1 -138 -153 )">
    <path d="M 32.8142763664717 10.1760708615984  C 31.7651606705653 7.49898123976609  30.0740527407407 5.2227795711501  27.8820297231969 3.48620475633528  C 26.48996391423 2.3830484834308  24.896285005848 1.49891262378168  23.1407439844055 1  L 9.9231336920078 1  C 9.92023272719064 0.853914300716959  9.91719790937345 0.851313019380193  9.91404032748538 0.848866183235863  C 8.14862652631579 1.4822847251462  6.54663366861598 2.36875889278752  5.14703332553606 3.47477308382067  C 2.83289930604288 5.30410030409357  1.07424056140351 7.73333052631579  0.0388948460038989 10.6011211851852  C 4.75082198830409 13.3436831189084  10.2278916491228 14.9155379025341  16.0723336608187 14.9155379025341  C 22.212180460039 14.9155379025341  27.9464627524366 13.1802621130604  32.8142763664717 10.1760708615984  Z " fill-rule="nonzero" fill="#cfe07d" stroke="none" transform="matrix(1 0 0 1 138 153 )" />
  </g>
</svg>