<?xml version="1.0" encoding="utf-8"?>
<svg version="1.1" xmlns:xlink="http://www.w3.org/1999/xlink" width="29px" height="16px" xmlns="http://www.w3.org/2000/svg">
  <g transform="matrix(1 0 0 1 -140 -137 )">
    <path d="M 27.6812189317739 5.37510543469786  C 28.0254681325536 3.78610307992203  28.1171813177388 2.09733345808967  28.0072814035088 0.174474354775832  C 27.9966291461988 0.847124272904487  27.9844180584795 1.53328436647173  27.9844180584795 2.23009671734893  C 27.9844180584795 3.34780238596492  27.8786750877193 4.39587886159844  27.6812189317739 5.37510543469786  Z M 0.499562105263156 0.693835976608185  C 0.494365879142297 1.21111909551657  0.498782690058476 1.71411262378168  0.514371368421052 2.20411564912281  C 0.514371368421052 1.69228856140351  0.50735650682261 1.18877536062379  0.499562105263156 0.693835976608185  Z M 15.9822022612086 15.6802375984405  L 16.053650214425 15.6778992904483  C 16.0743087881914 15.6773360859373  16.0947448205897 15.6734769202978  16.1141861052632 15.6664676179337  C 16.0702781130604 15.6719236491228  16.0261102534113 15.6750413723197  15.9822022612086 15.6802375984405  Z M 27.6703068693957 5.42992548927875  C 27.6573163040936 5.49279968810917  27.6412080779727 5.55333557894737  27.6274380974659 5.61569010526316  C 27.6419874931774 5.55411499415204  27.6565368888889 5.49202021052631  27.6703068693957 5.42992548927875  Z " fill-rule="nonzero" fill="#a0d9f6" stroke="none" transform="matrix(1 0 0 1 140 137 )" />
  </g>
</svg>