<?xml version="1.0" encoding="utf-8"?>
<svg version="1.1" xmlns:xlink="http://www.w3.org/1999/xlink" width="12px" height="12px" viewBox="351 652  12 12" xmlns="http://www.w3.org/2000/svg">
  <path d="M 357 652  C 360.36 652  363 654.64  363 658  C 363 661.36  360.36 664  357 664  C 353.64 664  351 661.36  351 658  C 351 654.64  353.64 652  357 652  Z " fill-rule="nonzero" fill="#ffffff" stroke="none" />
  <path d="M 357 652.5  C 360.08 652.5  362.5 654.92  362.5 658  C 362.5 661.08  360.08 663.5  357 663.5  C 353.92 663.5  351.5 661.08  351.5 658  C 351.5 654.92  353.92 652.5  357 652.5  Z " stroke-width="1" stroke="#797979" fill="none" />
  <path d="M 357 661  C 355.32 661  354 659.68  354 658  C 354 656.32  355.32 655  357 655  C 358.68 655  360 656.32  360 658  C 360 659.68  358.68 661  357 661  " fill-rule="nonzero" fill="#797979" stroke="none" />
</svg>