<?xml version="1.0" encoding="utf-8"?>
<svg version="1.1" xmlns:xlink="http://www.w3.org/1999/xlink" width="12px" height="12px" viewBox="351 626  12 12" xmlns="http://www.w3.org/2000/svg">
  <path d="M 357 626  C 360.36 626  363 628.64  363 632  C 363 635.36  360.36 638  357 638  C 353.64 638  351 635.36  351 632  C 351 628.64  353.64 626  357 626  Z " fill-rule="nonzero" fill="#ffffff" stroke="none" />
  <path d="M 357 626.5  C 360.08 626.5  362.5 628.92  362.5 632  C 362.5 635.08  360.08 637.5  357 637.5  C 353.92 637.5  351.5 635.08  351.5 632  C 351.5 628.92  353.92 626.5  357 626.5  Z " stroke-width="1" stroke="#797979" fill="none" />
  <path d="M 357 635  C 355.32 635  354 633.68  354 632  C 354 630.32  355.32 629  357 629  C 358.68 629  360 630.32  360 632  C 360 633.68  358.68 635  357 635  " fill-rule="nonzero" fill="#797979" stroke="none" />
</svg>