<?xml version="1.0" encoding="utf-8"?>
<svg version="1.1" xmlns:xlink="http://www.w3.org/1999/xlink" width="12px" height="12px" viewBox="351 378  12 12" xmlns="http://www.w3.org/2000/svg">
  <path d="M 357 378  C 360.36 378  363 380.64  363 384  C 363 387.36  360.36 390  357 390  C 353.64 390  351 387.36  351 384  C 351 380.64  353.64 378  357 378  Z " fill-rule="nonzero" fill="#ffffff" stroke="none" />
  <path d="M 357 378.5  C 360.08 378.5  362.5 380.92  362.5 384  C 362.5 387.08  360.08 389.5  357 389.5  C 353.92 389.5  351.5 387.08  351.5 384  C 351.5 380.92  353.92 378.5  357 378.5  Z " stroke-width="1" stroke="#797979" fill="none" />
  <path d="M 357 387  C 355.32 387  354 385.68  354 384  C 354 382.32  355.32 381  357 381  C 358.68 381  360 382.32  360 384  C 360 385.68  358.68 387  357 387  " fill-rule="nonzero" fill="#797979" stroke="none" />
</svg>