<?xml version="1.0" encoding="utf-8"?>
<svg version="1.1" xmlns:xlink="http://www.w3.org/1999/xlink" width="12px" height="12px" viewBox="351 404  12 12" xmlns="http://www.w3.org/2000/svg">
  <path d="M 357 404  C 360.36 404  363 406.64  363 410  C 363 413.36  360.36 416  357 416  C 353.64 416  351 413.36  351 410  C 351 406.64  353.64 404  357 404  Z " fill-rule="nonzero" fill="#ffffff" stroke="none" />
  <path d="M 357 404.5  C 360.08 404.5  362.5 406.92  362.5 410  C 362.5 413.08  360.08 415.5  357 415.5  C 353.92 415.5  351.5 413.08  351.5 410  C 351.5 406.92  353.92 404.5  357 404.5  Z " stroke-width="1" stroke="#797979" fill="none" />
  <path d="M 357 413  C 355.32 413  354 411.68  354 410  C 354 408.32  355.32 407  357 407  C 358.68 407  360 408.32  360 410  C 360 411.68  358.68 413  357 413  " fill-rule="nonzero" fill="#797979" stroke="none" />
</svg>