<?xml version="1.0" encoding="utf-8"?>
<svg version="1.1" xmlns:xlink="http://www.w3.org/1999/xlink" width="12px" height="12px" viewBox="35 463  12 12" xmlns="http://www.w3.org/2000/svg">
  <path d="M 41 463  C 44.36 463  47 465.64  47 469  C 47 472.36  44.36 475  41 475  C 37.64 475  35 472.36  35 469  C 35 465.64  37.64 463  41 463  Z " fill-rule="nonzero" fill="#ffffff" stroke="none" />
  <path d="M 41 463.5  C 44.08 463.5  46.5 465.92  46.5 469  C 46.5 472.08  44.08 474.5  41 474.5  C 37.92 474.5  35.5 472.08  35.5 469  C 35.5 465.92  37.92 463.5  41 463.5  Z " stroke-width="1" stroke="#797979" fill="none" />
  <path d="M 41 472  C 39.32 472  38 470.68  38 469  C 38 467.32  39.32 466  41 466  C 42.68 466  44 467.32  44 469  C 44 470.68  42.68 472  41 472  " fill-rule="nonzero" fill="#797979" stroke="none" />
</svg>