<?xml version="1.0" encoding="utf-8"?>
<svg version="1.1" xmlns:xlink="http://www.w3.org/1999/xlink" width="12px" height="12px" viewBox="35 626  12 12" xmlns="http://www.w3.org/2000/svg">
  <path d="M 41 626  C 44.36 626  47 628.64  47 632  C 47 635.36  44.36 638  41 638  C 37.64 638  35 635.36  35 632  C 35 628.64  37.64 626  41 626  Z " fill-rule="nonzero" fill="#ffffff" stroke="none" />
  <path d="M 41 626.5  C 44.08 626.5  46.5 628.92  46.5 632  C 46.5 635.08  44.08 637.5  41 637.5  C 37.92 637.5  35.5 635.08  35.5 632  C 35.5 628.92  37.92 626.5  41 626.5  Z " stroke-width="1" stroke="#797979" fill="none" />
  <path d="M 41 635  C 39.32 635  38 633.68  38 632  C 38 630.32  39.32 629  41 629  C 42.68 629  44 630.32  44 632  C 44 633.68  42.68 635  41 635  " fill-rule="nonzero" fill="#797979" stroke="none" />
</svg>