<?xml version="1.0" encoding="utf-8"?>
<svg version="1.1" xmlns:xlink="http://www.w3.org/1999/xlink" width="12px" height="12px" viewBox="35 125  12 12" xmlns="http://www.w3.org/2000/svg">
  <path d="M 41 125  C 44.36 125  47 127.64  47 131  C 47 134.36  44.36 137  41 137  C 37.64 137  35 134.36  35 131  C 35 127.64  37.64 125  41 125  Z " fill-rule="nonzero" fill="#ffffff" stroke="none" />
  <path d="M 41 125.5  C 44.08 125.5  46.5 127.92  46.5 131  C 46.5 134.08  44.08 136.5  41 136.5  C 37.92 136.5  35.5 134.08  35.5 131  C 35.5 127.92  37.92 125.5  41 125.5  Z " stroke-width="1" stroke="#797979" fill="none" />
  <path d="M 41 134  C 39.32 134  38 132.68  38 131  C 38 129.32  39.32 128  41 128  C 42.68 128  44 129.32  44 131  C 44 132.68  42.68 134  41 134  " fill-rule="nonzero" fill="#797979" stroke="none" />
</svg>