<?xml version="1.0" encoding="utf-8"?>
<svg version="1.1" xmlns:xlink="http://www.w3.org/1999/xlink" width="12px" height="12px" viewBox="35 378  12 12" xmlns="http://www.w3.org/2000/svg">
  <path d="M 41 378  C 44.36 378  47 380.64  47 384  C 47 387.36  44.36 390  41 390  C 37.64 390  35 387.36  35 384  C 35 380.64  37.64 378  41 378  Z " fill-rule="nonzero" fill="#ffffff" stroke="none" />
  <path d="M 41 378.5  C 44.08 378.5  46.5 380.92  46.5 384  C 46.5 387.08  44.08 389.5  41 389.5  C 37.92 389.5  35.5 387.08  35.5 384  C 35.5 380.92  37.92 378.5  41 378.5  Z " stroke-width="1" stroke="#797979" fill="none" />
  <path d="M 41 387  C 39.32 387  38 385.68  38 384  C 38 382.32  39.32 381  41 381  C 42.68 381  44 382.32  44 384  C 44 385.68  42.68 387  41 387  " fill-rule="nonzero" fill="#797979" stroke="none" />
</svg>