<?xml version="1.0" encoding="utf-8"?>
<svg version="1.1" xmlns:xlink="http://www.w3.org/1999/xlink" width="12px" height="12px" viewBox="160 65  12 12" xmlns="http://www.w3.org/2000/svg">
  <path d="M 166 65  C 169.36 65  172 67.64  172 71  C 172 74.36  169.36 77  166 77  C 162.64 77  160 74.36  160 71  C 160 67.64  162.64 65  166 65  Z " fill-rule="nonzero" fill="#ffffff" stroke="none" />
  <path d="M 166 65.5  C 169.08 65.5  171.5 67.92  171.5 71  C 171.5 74.08  169.08 76.5  166 76.5  C 162.92 76.5  160.5 74.08  160.5 71  C 160.5 67.92  162.92 65.5  166 65.5  Z " stroke-width="1" stroke="#797979" fill="none" />
  <path d="M 166 74  C 164.32 74  163 72.68  163 71  C 163 69.32  164.32 68  166 68  C 167.68 68  169 69.32  169 71  C 169 72.68  167.68 74  166 74  " fill-rule="nonzero" fill="#797979" stroke="none" />
</svg>