<?xml version="1.0" encoding="utf-8"?>
<svg version="1.1" xmlns:xlink="http://www.w3.org/1999/xlink" width="12px" height="12px" viewBox="35 65  12 12" xmlns="http://www.w3.org/2000/svg">
  <path d="M 41 65  C 44.36 65  47 67.64  47 71  C 47 74.36  44.36 77  41 77  C 37.64 77  35 74.36  35 71  C 35 67.64  37.64 65  41 65  Z " fill-rule="nonzero" fill="#ffffff" stroke="none" />
  <path d="M 41 65.5  C 44.08 65.5  46.5 67.92  46.5 71  C 46.5 74.08  44.08 76.5  41 76.5  C 37.92 76.5  35.5 74.08  35.5 71  C 35.5 67.92  37.92 65.5  41 65.5  Z " stroke-width="1" stroke="#797979" fill="none" />
  <path d="M 41 74  C 39.32 74  38 72.68  38 71  C 38 69.32  39.32 68  41 68  C 42.68 68  44 69.32  44 71  C 44 72.68  42.68 74  41 74  " fill-rule="nonzero" fill="#797979" stroke="none" />
</svg>