<?xml version="1.0" encoding="utf-8"?>
<svg version="1.1" xmlns:xlink="http://www.w3.org/1999/xlink" width="12px" height="12px" viewBox="351 268  12 12" xmlns="http://www.w3.org/2000/svg">
  <path d="M 357 268  C 360.36 268  363 270.64  363 274  C 363 277.36  360.36 280  357 280  C 353.64 280  351 277.36  351 274  C 351 270.64  353.64 268  357 268  Z " fill-rule="nonzero" fill="#ffffff" stroke="none" />
  <path d="M 357 268.5  C 360.08 268.5  362.5 270.92  362.5 274  C 362.5 277.08  360.08 279.5  357 279.5  C 353.92 279.5  351.5 277.08  351.5 274  C 351.5 270.92  353.92 268.5  357 268.5  Z " stroke-width="1" stroke="#797979" fill="none" />
  <path d="M 357 277  C 355.32 277  354 275.68  354 274  C 354 272.32  355.32 271  357 271  C 358.68 271  360 272.32  360 274  C 360 275.68  358.68 277  357 277  " fill-rule="nonzero" fill="#797979" stroke="none" />
</svg>