<?xml version="1.0" encoding="utf-8"?>
<svg version="1.1" xmlns:xlink="http://www.w3.org/1999/xlink" width="12px" height="12px" viewBox="351 489  12 12" xmlns="http://www.w3.org/2000/svg">
  <path d="M 357 489  C 360.36 489  363 491.64  363 495  C 363 498.36  360.36 501  357 501  C 353.64 501  351 498.36  351 495  C 351 491.64  353.64 489  357 489  Z " fill-rule="nonzero" fill="#ffffff" stroke="none" />
  <path d="M 357 489.5  C 360.08 489.5  362.5 491.92  362.5 495  C 362.5 498.08  360.08 500.5  357 500.5  C 353.92 500.5  351.5 498.08  351.5 495  C 351.5 491.92  353.92 489.5  357 489.5  Z " stroke-width="1" stroke="#797979" fill="none" />
  <path d="M 357 498  C 355.32 498  354 496.68  354 495  C 354 493.32  355.32 492  357 492  C 358.68 492  360 493.32  360 495  C 360 496.68  358.68 498  357 498  " fill-rule="nonzero" fill="#797979" stroke="none" />
</svg>