<?xml version="1.0" encoding="utf-8"?>
<svg version="1.1" xmlns:xlink="http://www.w3.org/1999/xlink" width="12px" height="12px" viewBox="35 567  12 12" xmlns="http://www.w3.org/2000/svg">
  <path d="M 41 567  C 44.36 567  47 569.64  47 573  C 47 576.36  44.36 579  41 579  C 37.64 579  35 576.36  35 573  C 35 569.64  37.64 567  41 567  Z " fill-rule="nonzero" fill="#ffffff" stroke="none" />
  <path d="M 41 567.5  C 44.08 567.5  46.5 569.92  46.5 573  C 46.5 576.08  44.08 578.5  41 578.5  C 37.92 578.5  35.5 576.08  35.5 573  C 35.5 569.92  37.92 567.5  41 567.5  Z " stroke-width="1" stroke="#797979" fill="none" />
  <path d="M 41 576  C 39.32 576  38 574.68  38 573  C 38 571.32  39.32 570  41 570  C 42.68 570  44 571.32  44 573  C 44 574.68  42.68 576  41 576  " fill-rule="nonzero" fill="#797979" stroke="none" />
</svg>