<?xml version="1.0" encoding="utf-8"?>
<svg version="1.1" xmlns:xlink="http://www.w3.org/1999/xlink" width="12px" height="12px" viewBox="35 652  12 12" xmlns="http://www.w3.org/2000/svg">
  <path d="M 41 652  C 44.36 652  47 654.64  47 658  C 47 661.36  44.36 664  41 664  C 37.64 664  35 661.36  35 658  C 35 654.64  37.64 652  41 652  Z " fill-rule="nonzero" fill="#ffffff" stroke="none" />
  <path d="M 41 652.5  C 44.08 652.5  46.5 654.92  46.5 658  C 46.5 661.08  44.08 663.5  41 663.5  C 37.92 663.5  35.5 661.08  35.5 658  C 35.5 654.92  37.92 652.5  41 652.5  Z " stroke-width="1" stroke="#797979" fill="none" />
  <path d="M 41 661  C 39.32 661  38 659.68  38 658  C 38 656.32  39.32 655  41 655  C 42.68 655  44 656.32  44 658  C 44 659.68  42.68 661  41 661  " fill-rule="nonzero" fill="#797979" stroke="none" />
</svg>