<?xml version="1.0" encoding="utf-8"?>
<svg version="1.1" xmlns:xlink="http://www.w3.org/1999/xlink" width="22px" height="22px" xmlns="http://www.w3.org/2000/svg">
  <g transform="matrix(1 0 0 1 -501 -88 )">
    <path d="M 512 88  C 518.16 88  523 92.84  523 99  C 523 105.16  518.16 110  512 110  C 505.84 110  501 105.16  501 99  C 501 92.84  505.84 88  512 88  Z " fill-rule="nonzero" fill="#ffffff" stroke="none" />
    <path d="M 512 88.5  C 517.88 88.5  522.5 93.12  522.5 99  C 522.5 104.88  517.88 109.5  512 109.5  C 506.12 109.5  501.5 104.88  501.5 99  C 501.5 93.12  506.12 88.5  512 88.5  Z " stroke-width="1" stroke="#4285f4" fill="none" />
  </g>
</svg>