<?xml version="1.0" encoding="utf-8"?>
<svg version="1.1" xmlns:xlink="http://www.w3.org/1999/xlink" width="31px" height="28px" xmlns="http://www.w3.org/2000/svg">
  <g transform="matrix(1 0 0 1 -140 -275 )">
    <path d="M 30.9999999934532 21.8295414141403  C 31.0000711951291 20.2138551148222  30.4193556193192 18.6860854767521  29.3649180944008 17.5276176698958  C 28.5445981208357 16.6263515284976  27.5081888254198 16.0244780505909  26.3776123368283 15.7789589447549  C 26.2010711066763 13.6025113106198  25.3267377159145 11.5800944796682  23.8712255728667 10.0145240156654  C 22.6402111995497 8.69045450183662  21.1044627410376 7.81147444294809  19.4329325474498 7.45244131255549  L 18.9867161016623 5.65675483030663  C 18.9838658063127 5.64525831526203  18.9808373152775 5.63379903094783  18.9776307330091 5.62241413537807  C 18.0746517068594 2.41392298371428  15.3174730384062 0.157632339460217  12.1167145100354 0.00795458672153675  C 8.2584601048375 -0.17249211046681  4.94130191244003 2.73772249973767  4.36824655760858 6.63529680661848  C 3.42593321887485 6.81414367314475  2.55010340912749 7.2707296431297  1.83556565888606 7.96714227116589  C 0.869238414707664 8.90892522754913  0.304555854692026 10.1862274175919  0.245483149322708 11.5636868168046  C 0.1855197092479 12.9617208847483  0.642068510495385 14.2951661799577  1.53108104068732 15.3183547827497  C 1.93447154119699 15.7826422783506  2.4060201157292 16.1589387603171  2.92434947952657 16.4376452083191  C 2.36493998679827 16.7780383590674  1.85754873237584 17.2191096219875  1.42640333118378 17.7470185457793  C 0.506571825845103 18.8732663913711  0 20.3181793662175  0 21.8155893433653  C 0 25.2256599219644  2.5940695212896 28  5.78260733523211 28  L 25.2403732863389 28  C 26.7670719944443 28  28.210434659557 27.3557122851103  29.3045627839781 26.1857479632094  C 30.3979070632511 25.0167137914795  30.9999999934532 23.4696344932741  30.9999999934532 21.8295414141403  Z M 3.11432272303216 13.818414861127  C 2.60696708685637 13.2344000265408  2.3465554007422 12.4691571948005  2.38107982251494 11.6635835926525  C 2.41499856000764 10.8731526447727  2.73925722405574 10.1399809604498  3.29417745982736 9.59912454115653  C 3.84863451912293 9.05871456340453  4.57193696934551 8.76862325619094  5.32955006222612 8.782984574135  C 5.91732013991684 8.79410903638281  6.40297778784572 8.30991658890006  6.41708682642495 7.69632339335725  C 6.41751438465437 7.68650113407729  6.41829819498509 7.67682772500256  6.41893953232922 7.6671170851975  C 6.42093474603746 7.63794797140991  6.42278745194174 7.60863004377526  6.4241057100592 7.57864239929152  C 6.55632457594787 4.49568261751466  9.06687992819406 2.09916442700503  12.0210864464861 2.23805257592048  C 14.3042937336519 2.34483238304632  16.2717576593895 3.95051034214883  16.92202083865 6.23552365864925  L 17.183109480355 7.28628154456682  C 14.1694026984642 7.47855957886611  11.485405808777 9.33009153858736  10.0605345496429 12.1293593357988  C 9.46777642027277 11.788631326626  8.7986655132975 11.6052825958078  8.10418685933089 11.6052825958078  C 6.29516469774963 11.6052825958078  4.75439260412903 12.8543458222341  4.19765528069979 14.5873038320908  C 3.78731716786657 14.4268364755289  3.416776509276 14.1665095738493  3.11432272303216 13.818414861127  Z M 28.8623011473605 21.8296157301685  C 28.8623367307897 22.8833501111767  28.4762618859451 23.8765138751127  27.7752631082495 24.6260559552107  C 27.0867700954076 25.3622412926384  26.1865344750502 25.7677068883925  25.2404088349506 25.7677068883925  L 5.78267853690795 25.7677068883925  C 3.77288749543272 25.7677068883925  2.13780566601522 23.9948273552972  2.13780566601522 21.8156265377375  C 2.13780566601522 19.8480506089847  3.48903200472476 18.1649479647632  5.28084540019831 17.9005656403331  C 5.57834678782688 17.8566631558046  5.8443878281471 17.6840667980794  6.01387455641824 17.4250420630095  C 6.1833612846894 17.1659801335674  6.24061693721851 16.8444129343248  6.17160374673714 16.5390673533683  C 6.13276822887581 16.3672895263393  6.11310107258379 16.1909726406461  6.11310107258379 16.0150278077497  C 6.11310107258379 14.8143689665018  7.00631777448951 13.8376128290713  8.10422258202986 13.8376128290713  C 8.699652880699 13.8376128290713  9.25924049947792 14.1258066779286  9.6395434823125 14.6283042102731  C 9.88306707099103 14.9500574177351  10.2760539099125 15.1065809710213  10.6628413285946 15.0356300700112  C 11.0497000185874 14.9647535941037  11.3681868206254 14.6780479564335  11.4922822890596 14.28887836771  C 12.4052730368147 11.4255427007664  14.9013986818096 9.501720442695  17.7035053988062 9.501720442695  C 21.3260033258613 9.501720442695  24.2731553074549 12.6873301837444  24.2731553074549 16.6029491785231  C 24.2731553074549 16.6372526427213  24.2738678812924 16.6707004182092  24.2746517264405 16.7040365378641  C 24.2750436316059 16.7192535808765  24.2757562054433 16.7343590407724  24.2754355715886 16.7499109422094  C 24.263571144079 17.3629832711083  24.7274951506969 17.8712476763403  25.3144457649929 17.8882505582342  C 26.2611414711259 17.9156710275126  27.1493701561697 18.3338236854461  27.8154169538631 19.0656187780568  C 28.4905135019632 19.8073105186918  28.8623011473605 20.7888661481084  28.8623011473605 21.8296157301685  Z " fill-rule="nonzero" fill="#000000" stroke="none" transform="matrix(1 0 0 1 140 275 )" />
  </g>
</svg>