<?xml version="1.0" standalone="no"?><!DOCTYPE svg PUBLIC "-//W3C//DTD SVG 1.1//EN" "http://www.w3.org/Graphics/SVG/1.1/DTD/svg11.dtd"><svg t="1561364411921" class="icon" viewBox="0 0 1024 1024" version="1.1" xmlns="http://www.w3.org/2000/svg" p-id="3594" xmlns:xlink="http://www.w3.org/1999/xlink" width="64" height="64"><defs><style type="text/css"></style></defs><path d="M769.896296 743.348148a174.277215 174.277215 0 0 1-37.925926-4.278044v-66.673778A106.192593 106.192593 0 1 0 777.481481 470.281481c-3.284385 0-6.515674 0.197215-9.724207 0.493038A227.555556 227.555556 0 0 0 320.018963 391.448652 144.118519 144.118519 0 1 0 329.955556 667.496296v50.896593A195.197156 195.197156 0 0 1 269.274074 728.177778a197.214815 197.214815 0 0 1-0.42477-394.42963 288.191526 288.191526 0 0 1 560.969955 71.4752A174.353067 174.353067 0 0 1 769.896296 743.348148z m-265.481481-18.962963a41.718519 41.718519 0 0 1-83.437037 0c0-23.043793 41.718519-72.059259 41.718518-72.059259s41.718519 49.015467 41.718519 72.059259z m144.118518-83.437037a41.718519 41.718519 0 0 1-83.437037 0c0-23.043793 41.718519-72.059259 41.718519-72.059259s41.718519 49.015467 41.718518 72.059259z m0 174.459259a41.718519 41.718519 0 0 1-83.437037 0c0-23.043793 41.718519-72.059259 41.718519-72.059259s41.718519 49.015467 41.718518 72.059259z" fill="#2c2c2c" p-id="3595"></path></svg>