<?xml version="1.0" encoding="utf-8"?>
<svg version="1.1" xmlns:xlink="http://www.w3.org/1999/xlink" width="58px" height="55px" xmlns="http://www.w3.org/2000/svg">
  <g transform="matrix(1 0 0 1 -926 -213 )">
    <path d="M 926 213  L 984 213  L 984 268  L 926 268  L 926 213  " fill-rule="nonzero" fill="#cccccc" stroke="none" />
    <path d="M 930 217  L 980 217  L 980 264  L 930 264  L 930 217  " fill-rule="nonzero" fill="#ffffff" stroke="none" />
    <path d="M 960.285 229.5  C 957.975 229.5  956.16 227.685  956.16 225.375  C 956.16 223.065  957.975 221.25  960.285 221.25  C 962.595 221.25  964.41 223.065  964.41 225.375  C 964.41 227.685  962.595 229.5  960.285 229.5  " fill-rule="nonzero" fill="#cccccc" stroke="none" />
    <path d="M 932 263  L 932 238.8  L 943.75 227.8  L 960.2 237.965517241379  L 969.6 234.4  L 979 237.965517241379  L 979 263  L 932 263  " fill-rule="nonzero" fill="#169bd5" stroke="none" />
  </g>
</svg>