<?xml version="1.0" encoding="utf-8"?>
<svg version="1.1" xmlns:xlink="http://www.w3.org/1999/xlink" width="19px" height="18px" xmlns="http://www.w3.org/2000/svg">
  <g transform="matrix(1 0 0 1 -774 -179 )">
    <path d="M 18.05800565625 9.11665690625  C 18.0580056875 6.80775834375  17.15887128125 4.6370700625  15.52621821875 3.00438503125  C 13.89356515625 1.37173196875  11.72284490625 0.472597593749999  9.41394634375 0.472597593749999  C 7.1050158125 0.472597593749999  4.93432753125 1.37173196875  3.3016425 3.00438503125  C 1.6689894375 4.63703809375  0.769855062499998 6.80775834375  0.769855062499998 9.11665690625  C 0.769855062499998 11.42555546875  1.6689894375 13.59627571875  3.3016425 15.22896075  C 4.9342955625 16.8616138125  7.1050158125 17.7607481875  9.41394634375 17.7607481875  C 11.72284490625 17.7607481875  13.89356515625 16.8616138125  15.52621821875 15.22896075  C 17.15887128125 13.59627571875  18.05800565625 11.42555546875  18.05800565625 9.11665690625  Z M 16.1393065625 9.11665690625  C 16.1393065625 12.825054625  13.1223120625 15.84204909375  9.41394634375 15.84204909375  C 5.705548625 15.84204909375  2.68855415625 12.825054625  2.68855415625 9.11665690625  C 2.68855415625 5.4082911875  5.705548625 2.3912966875  9.41394634375 2.3912966875  C 13.1223120625 2.3912966875  16.1393065625 5.40829115625  16.1393065625 9.11665690625  Z " fill-rule="nonzero" fill="#cccccc" stroke="none" transform="matrix(1 0 0 1 774 179 )" />
  </g>
</svg>