<?xml version="1.0" encoding="utf-8"?>
<svg version="1.1" xmlns:xlink="http://www.w3.org/1999/xlink" width="193px" height="12px" preserveAspectRatio="xMinYMid meet" viewBox="346 26  193 10" xmlns="http://www.w3.org/2000/svg">
  <path d="M 349 31.5  L 528 31.5  A 5 5 0 0 1 533.5 36.5 L 533.5 165  A 5 5 0 0 0 538.5 170.5 L 728 170.5  A 5 5 0 0 1 733.5 175.5 L 733.5 244  " stroke-width="3" stroke-dasharray="27,12" stroke="#f59a23" fill="none" />
  <path d="M 354.16066017178 35.4393398282202  L 350.22132034356 31.5  L 354.16066017178 27.5606601717798  L 352.03933982822 25.4393398282202  L 347.03933982822 30.4393398282202  L 345.97867965644 31.5  L 347.03933982822 32.5606601717798  L 352.03933982822 37.5606601717798  L 354.16066017178 35.4393398282202  Z M 737.43933982822 238.83933982822  L 733.5 242.77867965644  L 729.56066017178 238.83933982822  L 727.43933982822 240.96066017178  L 732.43933982822 245.96066017178  L 733.5 247.02132034356  L 734.56066017178 245.96066017178  L 739.56066017178 240.96066017178  L 737.43933982822 238.83933982822  Z " fill-rule="nonzero" fill="#f59a23" stroke="none" />
</svg>