<?xml version="1.0" encoding="utf-8"?>
<svg version="1.1" xmlns:xlink="http://www.w3.org/1999/xlink" width="12px" height="12px" viewBox="15 42  12 12" xmlns="http://www.w3.org/2000/svg">
  <path d="M 21 42  C 24.36 42  27 44.64  27 48  C 27 51.36  24.36 54  21 54  C 17.64 54  15 51.36  15 48  C 15 44.64  17.64 42  21 42  Z " fill-rule="nonzero" fill="#ffffff" stroke="none" />
  <path d="M 21 42.5  C 24.08 42.5  26.5 44.92  26.5 48  C 26.5 51.08  24.08 53.5  21 53.5  C 17.92 53.5  15.5 51.08  15.5 48  C 15.5 44.92  17.92 42.5  21 42.5  Z " stroke-width="1" stroke="#797979" fill="none" />
  <path d="M 21 51  C 19.32 51  18 49.68  18 48  C 18 46.32  19.32 45  21 45  C 22.68 45  24 46.32  24 48  C 24 49.68  22.68 51  21 51  " fill-rule="nonzero" fill="#797979" stroke="none" />
</svg>