<?xml version="1.0" encoding="utf-8"?>
<svg version="1.1" xmlns:xlink="http://www.w3.org/1999/xlink" width="12px" height="12px" viewBox="15 71  12 12" xmlns="http://www.w3.org/2000/svg">
  <path d="M 21 71  C 24.36 71  27 73.64  27 77  C 27 80.36  24.36 83  21 83  C 17.64 83  15 80.36  15 77  C 15 73.64  17.64 71  21 71  Z " fill-rule="nonzero" fill="#ffffff" stroke="none" />
  <path d="M 21 71.5  C 24.08 71.5  26.5 73.92  26.5 77  C 26.5 80.08  24.08 82.5  21 82.5  C 17.92 82.5  15.5 80.08  15.5 77  C 15.5 73.92  17.92 71.5  21 71.5  Z " stroke-width="1" stroke="#797979" fill="none" />
  <path d="M 21 80  C 19.32 80  18 78.68  18 77  C 18 75.32  19.32 74  21 74  C 22.68 74  24 75.32  24 77  C 24 78.68  22.68 80  21 80  " fill-rule="nonzero" fill="#797979" stroke="none" />
</svg>