<?xml version="1.0" encoding="utf-8"?>
<svg version="1.1" xmlns:xlink="http://www.w3.org/1999/xlink" width="43px" height="47px" xmlns="http://www.w3.org/2000/svg">
  <g transform="matrix(1 0 0 1 -2186 -692 )">
    <path d="M 2207.5 692  C 2219.54 692  2229 702.34  2229 715.5  C 2229 728.66  2219.54 739  2207.5 739  C 2195.46 739  2186 728.66  2186 715.5  C 2186 702.34  2195.46 692  2207.5 692  Z " fill-rule="nonzero" fill="#ffffff" stroke="none" />
    <path d="M 2207.5 692.5  C 2219.26 692.5  2228.5 702.62  2228.5 715.5  C 2228.5 728.38  2219.26 738.5  2207.5 738.5  C 2195.74 738.5  2186.5 728.38  2186.5 715.5  C 2186.5 702.62  2195.74 692.5  2207.5 692.5  Z " stroke-width="1" stroke="#797979" fill="none" />
  </g>
</svg>