<?xml version="1.0" encoding="utf-8"?>
<svg version="1.1" xmlns:xlink="http://www.w3.org/1999/xlink" width="52px" height="47px" xmlns="http://www.w3.org/2000/svg">
  <g transform="matrix(1 0 0 1 -2196 -612 )">
    <path d="M 2222 612  C 2236.56 612  2248 622.34  2248 635.5  C 2248 648.66  2236.56 659  2222 659  C 2207.44 659  2196 648.66  2196 635.5  C 2196 622.34  2207.44 612  2222 612  Z " fill-rule="nonzero" fill="#ffffff" stroke="none" />
    <path d="M 2222 612.5  C 2236.28 612.5  2247.5 622.62  2247.5 635.5  C 2247.5 648.38  2236.28 658.5  2222 658.5  C 2207.72 658.5  2196.5 648.38  2196.5 635.5  C 2196.5 622.62  2207.72 612.5  2222 612.5  Z " stroke-width="1" stroke="#797979" fill="none" />
  </g>
</svg>