<?xml version="1.0" encoding="utf-8"?>
<svg version="1.1" xmlns:xlink="http://www.w3.org/1999/xlink" width="43px" height="47px" xmlns="http://www.w3.org/2000/svg">
  <g transform="matrix(1 0 0 1 -2196 -702 )">
    <path d="M 2217.5 702  C 2229.54 702  2239 712.34  2239 725.5  C 2239 738.66  2229.54 749  2217.5 749  C 2205.46 749  2196 738.66  2196 725.5  C 2196 712.34  2205.46 702  2217.5 702  Z " fill-rule="nonzero" fill="#ffffff" stroke="none" />
    <path d="M 2217.5 702.5  C 2229.26 702.5  2238.5 712.62  2238.5 725.5  C 2238.5 738.38  2229.26 748.5  2217.5 748.5  C 2205.74 748.5  2196.5 738.38  2196.5 725.5  C 2196.5 712.62  2205.74 702.5  2217.5 702.5  Z " stroke-width="1" stroke="#797979" fill="none" />
  </g>
</svg>