<?xml version="1.0" encoding="utf-8"?>
<svg version="1.1" xmlns:xlink="http://www.w3.org/1999/xlink" width="52px" height="47px" xmlns="http://www.w3.org/2000/svg">
  <g transform="matrix(1 0 0 1 -2186 -602 )">
    <path d="M 2212 602  C 2226.56 602  2238 612.34  2238 625.5  C 2238 638.66  2226.56 649  2212 649  C 2197.44 649  2186 638.66  2186 625.5  C 2186 612.34  2197.44 602  2212 602  Z " fill-rule="nonzero" fill="#ffffff" stroke="none" />
    <path d="M 2212 602.5  C 2226.28 602.5  2237.5 612.62  2237.5 625.5  C 2237.5 638.38  2226.28 648.5  2212 648.5  C 2197.72 648.5  2186.5 638.38  2186.5 625.5  C 2186.5 612.62  2197.72 602.5  2212 602.5  Z " stroke-width="1" stroke="#797979" fill="none" />
  </g>
</svg>