<?xml version="1.0" encoding="utf-8"?>
<svg version="1.1" xmlns:xlink="http://www.w3.org/1999/xlink" width="58px" height="47px" xmlns="http://www.w3.org/2000/svg">
  <g transform="matrix(1 0 0 1 -1903 -595 )">
    <path d="M 1932 595  C 1948.24 595  1961 605.34  1961 618.5  C 1961 631.66  1948.24 642  1932 642  C 1915.76 642  1903 631.66  1903 618.5  C 1903 605.34  1915.76 595  1932 595  Z " fill-rule="nonzero" fill="#ffffff" stroke="none" />
    <path d="M 1932 595.5  C 1947.96 595.5  1960.5 605.62  1960.5 618.5  C 1960.5 631.38  1947.96 641.5  1932 641.5  C 1916.04 641.5  1903.5 631.38  1903.5 618.5  C 1903.5 605.62  1916.04 595.5  1932 595.5  Z " stroke-width="1" stroke="#797979" fill="none" />
  </g>
</svg>