<?xml version="1.0" encoding="utf-8"?>
<svg version="1.1" xmlns:xlink="http://www.w3.org/1999/xlink" width="43px" height="47px" xmlns="http://www.w3.org/2000/svg">
  <g transform="matrix(1 0 0 1 -2097 -692 )">
    <path d="M 2118.5 692  C 2130.54 692  2140 702.34  2140 715.5  C 2140 728.66  2130.54 739  2118.5 739  C 2106.46 739  2097 728.66  2097 715.5  C 2097 702.34  2106.46 692  2118.5 692  Z " fill-rule="nonzero" fill="#ffffff" stroke="none" />
    <path d="M 2118.5 692.5  C 2130.26 692.5  2139.5 702.62  2139.5 715.5  C 2139.5 728.38  2130.26 738.5  2118.5 738.5  C 2106.74 738.5  2097.5 728.38  2097.5 715.5  C 2097.5 702.62  2106.74 692.5  2118.5 692.5  Z " stroke-width="1" stroke="#797979" fill="none" />
  </g>
</svg>