<?xml version="1.0" encoding="utf-8"?>
<svg version="1.1" xmlns:xlink="http://www.w3.org/1999/xlink" width="12px" height="12px" viewBox="226 95.5  12 12" xmlns="http://www.w3.org/2000/svg">
  <path d="M 232 95.5  C 235.36 95.5  238 98.14  238 101.5  C 238 104.86  235.36 107.5  232 107.5  C 228.64 107.5  226 104.86  226 101.5  C 226 98.14  228.64 95.5  232 95.5  Z " fill-rule="nonzero" fill="#ffffff" stroke="none" />
  <path d="M 232 96  C 235.08 96  237.5 98.42  237.5 101.5  C 237.5 104.58  235.08 107  232 107  C 228.92 107  226.5 104.58  226.5 101.5  C 226.5 98.42  228.92 96  232 96  Z " stroke-width="1" stroke="#797979" fill="none" />
  <path d="M 232 104.5  C 230.32 104.5  229 103.18  229 101.5  C 229 99.82  230.32 98.5  232 98.5  C 233.68 98.5  235 99.82  235 101.5  C 235 103.18  233.68 104.5  232 104.5  " fill-rule="nonzero" fill="#797979" stroke="none" />
</svg>