<?xml version="1.0" encoding="utf-8"?>
<svg version="1.1" xmlns:xlink="http://www.w3.org/1999/xlink" width="12px" height="12px" viewBox="321 95.5  12 12" xmlns="http://www.w3.org/2000/svg">
  <path d="M 327 95.5  C 330.36 95.5  333 98.14  333 101.5  C 333 104.86  330.36 107.5  327 107.5  C 323.64 107.5  321 104.86  321 101.5  C 321 98.14  323.64 95.5  327 95.5  Z " fill-rule="nonzero" fill="#ffffff" stroke="none" />
  <path d="M 327 96  C 330.08 96  332.5 98.42  332.5 101.5  C 332.5 104.58  330.08 107  327 107  C 323.92 107  321.5 104.58  321.5 101.5  C 321.5 98.42  323.92 96  327 96  Z " stroke-width="1" stroke="#797979" fill="none" />
  <path d="M 327 104.5  C 325.32 104.5  324 103.18  324 101.5  C 324 99.82  325.32 98.5  327 98.5  C 328.68 98.5  330 99.82  330 101.5  C 330 103.18  328.68 104.5  327 104.5  " fill-rule="nonzero" fill="#797979" stroke="none" />
</svg>