<?xml version="1.0" encoding="utf-8"?>
<svg version="1.1" xmlns:xlink="http://www.w3.org/1999/xlink" width="11px" height="12px" xmlns="http://www.w3.org/2000/svg">
  <g transform="matrix(1 0 0 1 -25 -152 )">
    <path d="M 11 1.03503184713376  C 10.9972960599555 0.702285658432057  10.786448430369 0.433384729558848  10.5255391600454 0.429936305732485  L 4.40749148694665 0.429936305732485  C 4.14404086265607 0.429936305732485  3.93303064699205 0.699044585987257  3.93303064699205 1.03503184713376  C 3.93303064699205 1.37101910828023  4.14404086265607 1.64012738853504  4.40749148694665 1.64012738853504  L 10.5255391600454 1.64012738853504  C 10.788989784336 1.64012738853504  11 1.37101910828023  11 1.03503184713376  Z M 10.5255391600454 5.50000000000001  L 4.40749148694665 5.50000000000001  C 4.14404086265607 5.50000000000001  3.93303064699205 5.76910828025478  3.93303064699205 6.10509554140128  C 3.93303064699205 6.44108280254778  4.14404086265607 6.71019108280255  4.40749148694665 6.71019108280255  L 10.5255391600454 6.71019108280255  C 10.788989784336 6.71019108280255  11 6.44108280254778  11 6.10509554140128  C 10.9972960599555 5.77234935269961  10.786448430369 5.50344842382637  10.5255391600454 5.50000000000001  Z M 0 0  L 0 1.96337579617834  L 1.53950056753689 1.96337579617834  L 1.53950056753689 0  L 0 0  Z M 0 5.12420382165605  L 0 7.08757961783438  L 1.53950056753689 7.08757961783438  L 1.53950056753689 5.12420382165605  L 0 5.12420382165605  Z M 10.5255391600454 10.4124203821656  L 4.40749148694665 10.4124203821656  C 4.40707474361377 10.4124189779667  4.4066579990081 10.4124182758663  4.40624125422072 10.4124182758663  C 4.14489334025426 10.4124182758663  3.9330289954239 10.6826158551882  3.9330289954239 11.0159214605797  C 3.9330289954239 11.0164529489377  3.9330295459471 11.0169844370638  3.93303064699205 11.0175159235669  C 3.93303064699205 11.3535031847134  4.14404086265607 11.6226114649682  4.40749148694665 11.6226114649682  L 10.5255391600454 11.6226114649682  C 10.788989784336 11.6226114649682  11 11.3535031847134  11 11.0175159235669  C 10.9972960599555 10.6847697348652  10.786448430369 10.415868805992  10.5255391600454 10.4124203821656  Z M 0 10.0366242038217  L 0 12  L 1.53950056753689 12  L 1.53950056753689 10.0366242038217  L 0 10.0366242038217  Z " fill-rule="nonzero" fill="#cccccc" stroke="none" transform="matrix(1 0 0 1 25 152 )" />
  </g>
</svg>