<?xml version="1.0" encoding="utf-8"?>
<svg version="1.1" xmlns:xlink="http://www.w3.org/1999/xlink" width="20px" height="20px" xmlns="http://www.w3.org/2000/svg">
  <g transform="matrix(1 0 0 1 -22 -594 )">
    <path d="M 19.5833333398438 5  C 19.5833333398438 4.33333333984375  19 3.75  18.3333333398437 3.75  L 11.125 3.75  C 10.6666666601562 3.75  10.25 3.66666666015625  10.0416666601562 3.25  L 9.08333333984375 1.54166666015625  C 8.875 1.125  8.45833333984375 0.8333333203125  8 0.83333333984375  L 1.66666666015625 0.83333333984375  C 0.95833333984375 0.83333333984375  0.41666666015625 1.375  0.41666666015625 2.08333333984375  L 0.41666666015625 17.9166666601562  C 0.41666666015625 18.625  0.9583333203125 19.1666666601562  1.66666666015625 19  L 18.3333333398438 19  C 19.0416666796875 19.1666666601562  19.5833333398438 18.625  19.5833333398438 17.9166666601562  L 19.5833333398438 5  Z M 15.8333333398437 10  C 15.833333359375 10.25  15.625 10.4166666601563  15.4166666601562 10.4166666601563  L 4.58333333984375 10.4166666601563  C 4.33333333984375 10.4166666601563  4.1666666796875 10.25  4.16666666015625 10  C 4.166666640625 9.75  4.3333333203125 9.58333333984375  4.58333333984375 9.58333333984375  L 15.4166666601562 9.58333333984375  C 15.6666666601562 9.58333333984375  15.8333333203125 9.75  15.8333333398437 10  Z " fill-rule="nonzero" fill="#cccccc" stroke="none" transform="matrix(1 0 0 1 22 594 )" />
  </g>
</svg>