<?xml version="1.0" encoding="utf-8"?>
<svg version="1.1" xmlns:xlink="http://www.w3.org/1999/xlink" width="18px" height="22px" xmlns="http://www.w3.org/2000/svg">
  <g transform="matrix(1 0 0 1 -21 -147 )">
    <path d="M 15.3423134620769 21.9952253271248  C 13.0155568196674 22.0049262497919  10.6888001772579 21.9968421475693  8.36204353484841 21.9968421475693  C 6.09315441515169 21.9968421475693  5.02863311191461 22.0000757884583  2.75974399221791 21.9952253271248  C 0.793453793373421 21.9919916862358  0.00139207624231644 20.9200397315251  0.00139207624231644 18.2749214843055  C 0.000186502852465017 13.3484695898811  -0.0010190705373864 8.42363451590122  0.00139207624231644 3.49718262147683  C 0.00259764963216786 1.16734436093677  0.839265582187699 0.0161682044451079  2.58493585068973 0.0113177431115579  C 7.2384491355087 -0.00323364088903335  10.687594603868 -0.00485046133355002  15.341107888687 0.0129345635560746  C 17.1325899460033 0.0194018453341118  17.9969860665254 1.20938169249406  17.9981916399152 3.59257502770296  C 18.0006027866949 8.54489604923953  18.0006027866949 13.4956002503316  17.9981916399152 18.4479212718681  C 17.9969860665254 20.8699182977453  17.1663460009191 21.9871412249022  15.3423134620769 21.9952253271248  Z M 8.33913764044126 20.6969185101826  C 10.7032670579361 20.6969185101826  13.0673964754309 20.7001521510716  15.4315258929257 20.6953016897381  C 16.5997265076898 20.6920680488491  17.0180604739676 20.1213304319368  17 18.5416968576497  L 17 3.45999575125309  C 17.0192660473575 1.88036217696604  16.5997265076898 1.30477409872019  15.4339370397054 1.30477409872019  C 10.744256553191 1.30154045783119  7.25894388313614 1.30154045783119  2.56926339662169 1.30477409872019  C 1.40106278185755 1.30639091916471  0.98272881557979 1.87874535652152  1 3.45837893080858  L 1 18.5400800372052  C 0.981523242189938 20.1213304319368  1.3998572084677 20.6936848692936  2.56685224984199 20.6953016897381  C 4.89240331886163 20.7001521510716  6.01358657142163 20.6969185101826  8.33913764044126 20.6969185101826  Z " fill-rule="nonzero" fill="#cccccc" stroke="none" transform="matrix(1 0 0 1 21 147 )" />
  </g>
</svg>