<?xml version="1.0" encoding="utf-8"?>
<svg version="1.1" xmlns:xlink="http://www.w3.org/1999/xlink" width="12px" height="12px" xmlns="http://www.w3.org/2000/svg">
  <g transform="matrix(1 0 0 1 -155 -63 )">
    <path d="M 12 6  C 12 2.70833333333333  9.33333333333334 0  6 0  C 2.66666666666666 0  0 2.70833333333333  0 6  C 0 9.29166666666667  2.70833333333337 12  6 12  C 9.29166666666663 12  12 9.29166666666667  12 6  Z M 11.375 6.04166666666667  C 11.375 9  9 11.4166666666667  6 11.4166666666667  C 3.04166666666666 11.4166666666667  0.625 9  0.625 6.04166666666667  C 0.625 3.08333333333333  3.04166666666666 0.666666666666671  6 0.666666666666671  C 8.95833333333334 0.666666666666671  11.375 3.08333333333333  11.375 6.04166666666667  Z M 10.1666666666667 6.58333333333333  C 10.1666666666667 6.375  10.0416666666666 6.25000000000001  9.875 6.25000000000001  L 6.25 6.25000000000001  L 6.25 2.58333333333333  C 6.25 2.41666666666667  6.125 2.29166666666667  5.95833333333334 2.29166666666667  C 5.79166666666666 2.29166666666667  5.66666666666666 2.41666666666667  5.66666666666666 2.58333333333333  L 5.66666666666666 6.58333333333333  C 5.66666666666666 6.75  5.79166666666666 6.875  5.95833333333334 6.875  L 9.875 6.875  C 10.0416666666666 6.875  10.1666666666667 6.75  10.1666666666667 6.58333333333333  Z " fill-rule="nonzero" fill="#777777" stroke="none" transform="matrix(1 0 0 1 155 63 )" />
  </g>
</svg>