<?xml version="1.0" encoding="utf-8"?>
<svg version="1.1" xmlns:xlink="http://www.w3.org/1999/xlink" width="20px" height="16px" xmlns="http://www.w3.org/2000/svg">
  <g transform="matrix(1 0 0 1 -21 -342 )">
    <path d="M 10.4411105573802 0.0377278653521701  L 19.4682061766999 8.77027630687639  C 20.1772646077667 9.45631184944429  20.1772646077667 10.5684752324579  19.4682061766999 11.2545107750258  L 15.0941598356457 15.4853516457751  C 14.7541307450864 15.8152447482543  14.2922212058995 16.0004552729403  13.8106462620859 15.9999983508833  C 13.3456413452491 15.9999983508833  12.8806364069277 15.8282882240494  12.5261326447319 15.4853516457751  L 12.0801279154453 15.0534160308921  L 11.6336231964886 15.4853516457751  C 11.2935032200103 15.8154090506174  10.8313687608754 16.0006375992577  10.3496095902894 15.9999983508834  C 9.86786140545222 16.0005840329361  9.40574737395886 15.8153636688188  9.06559600557486 15.4853516457751  L 0.0385004077397884 6.75280320425086  L 0.0775008051497312 6.7155590350757  L 0 6.7155590350757  L 0 0.917560902691147  C 0.00164535472113847 0.411655392607641  0.425041356429499 0.0018584398709571  0.948010020398847 0  L 10.4021101599703 0  L 10.4021101599703 0.0749720345273375  L 10.4411105573802 0.0377278653521701  Z M 14.0336486159868 14.4594440672304  L 18.4076949355564 10.2281195003041  C 18.4672519191259 10.1711631106069  18.5005928061606 10.0934072413142  18.5001959249567 10.0123935409511  C 18.5006143799968 9.93123381853371  18.4672805190974 9.8533200294026  18.4076949355564 9.79618388542103  L 9.78110356755531 1.45107153008376  L 8.44108937804579 1.45107153008376  L 16.0071695049035 8.77027630687639  C 16.7162279359703 9.45631184944429  16.7162279359703 10.5684752324579  16.0071695049035 11.2545107750258  L 13.1406391565888 14.0270247561704  L 13.5871438755455 14.4594440672304  C 13.6462072157518 14.5170854243655  13.7267490306167 14.5493316275634  13.8106462620859 14.5489268207996  C 13.8943925387667 14.5493107520765  13.9747710983702 14.5170577524312  14.0336486159868 14.4594440672304  Z M 10.1266072363885 14.4594440672304  C 10.1850206547345 14.5177216706577  10.2657053737274 14.5500975209577  10.3496095902894 14.5489268207996  C 10.4333225953799 14.5491475330081  10.5136385219043 14.51691966885  10.572611965675 14.4594440672304  L 10.795614319576 14.2432344117004  L 11.0196166957865 14.0275084523474  L 14.9466582852446 10.2281195003041  C 15.0062152609277 10.171163107152  15.0395561400331 10.0934072382917  15.0391592531603 10.0123935409511  C 15.0395777138743 9.9312338215508  15.0062438609013 9.85332003285024  14.9466582852446 9.79618388542103  L 6.32006691724349 1.45107153008376  L 1.50001586838735 1.45107153008376  L 1.50001586838735 6.11433173267671  L 10.1266072363885 14.4594440672304  Z M 2.99223325045448 4.16917034599668  C 2.99223325045448 3.45824931328943  3.57504990323642 2.87542437639219  4.30954563256677 2.85183923969796  C 5.04404136189711 2.87542437639219  5.62685801467905 3.45824931328943  5.62685801467905 4.16917034599668  C 5.62685801467905 4.880091378704  5.04404136189711 5.46291631560123  4.30954563256677 5.48650145229541  C 3.57504990323642 5.46291631560123  2.99223325045448 4.880091378704  2.99223325045448 4.16917034599668  Z " fill-rule="nonzero" fill="#cccccc" stroke="none" transform="matrix(1 0 0 1 21 342 )" />
  </g>
</svg>