<?xml version="1.0" encoding="utf-8"?>
<svg version="1.1" xmlns:xlink="http://www.w3.org/1999/xlink" width="20px" height="10px" xmlns="http://www.w3.org/2000/svg">
  <g transform="matrix(1 0 0 1 -22 -459 )">
    <path d="M 4.64912938588195 1.31752305679714  L 19.2689944519139 1.31752305679714  C 19.6727108779986 1.31752305679714  19.9999877053188 1.0225854743083  19.9999877053188 0.658761528398543  C 19.9999877053188 0.294937582488842  19.6727108779986 0  19.2689944519139 0  L 4.64912938588195 0  C 4.24541295979718 0  3.91813613247696 0.294937582488842  3.91813613247696 0.658761528398543  C 3.91813613247696 1.0225854743083  4.24541295979718 1.31752305679714  4.64912938588195 1.31752305679714  Z M 19.2689944519139 4.34782608715096  L 4.64912938588195 4.34782608715096  C 4.24540066506974 4.3478260870578  3.91812383779582 4.64276366950492  3.91812383779582 5.00658761536317  C 3.91812383779582 5.37041156122149  4.24540066506974 5.66534914366855  4.64911709109741 5.66534914366855  L 19.2689944519139 5.66534914357538  C 19.6727231727261 5.66534914366855  20 5.37041156122149  20 5.00658761536317  C 20 4.64276366950492  19.6727231727261 4.3478260870578  19.2690067466984 4.3478260870578  Z M 19.2689944519139 8.68247694301647  L 4.64912938588195 8.68247694301647  C 4.24541295974007 8.68247694301647  3.91813613237358 8.97741452554703  3.91813613237358 9.34123847150823  C 3.91813613237358 9.70506241746943  4.24541295974007 10  4.64912938588195 10  L 19.2689944519139 10  C 19.6727108780557 10  19.9999877054222 9.70506241746943  19.9999877054222 9.34123847150823  C 19.9999877054222 8.97741452554703  19.6727108780557 8.68247694301647  19.2689944519139 8.68247694301647  Z M 1.46199880138774 0  L 0.731005548086152 0  C 0.327289122001375 0  1.22946811558222E-05 0.294937582488842  1.22946811558222E-05 0.658761528398543  C 1.22946811558222E-05 1.0225854743083  0.327289122001375 1.31752305679714  0.731005548086152 1.31752305679714  L 1.46199880138774 1.31752305679714  C 1.86571522747251 1.31752305679714  2.19299205479273 1.0225854743083  2.19299205479273 0.658761528398543  C 2.19299205479273 0.294937582488842  1.86571522747251 0  1.46199880138774 0  Z M 1.46199880138774 4.34782608715096  L 0.731005548086152 4.34782608715096  C 0.327276827273927 4.3478260870578  0 4.64276366950492  0 5.00658761536317  C 0 5.37041156122149  0.327276827273927 5.66534914366855  0.730993253301591 5.66534914366855  L 1.46199880138774 5.66534914357538  C 1.86572752219995 5.66534914366855  2.19300434947388 5.37041156122149  2.19300434947388 5.00658761536317  C 2.19300434947388 4.64276366950492  1.86572752219995 4.3478260870578  1.46201109617229 4.3478260870578  Z M 1.46199880138774 8.68247694301647  L 0.731005548086152 8.68247694301647  C 0.327289121944268 8.68247694301647  1.22945777576433E-05 8.97741452554703  1.22945777576433E-05 9.34123847150823  C 1.22945777576433E-05 9.70506241746943  0.327289121944268 10  0.731005548086152 10  L 1.46199880138774 10  C 1.86571522752961 10  2.19299205489612 9.70506241746943  2.19299205489612 9.34123847150823  C 2.19299205489612 8.97741452554703  1.86571522752961 8.68247694301647  1.46199880138774 8.68247694301647  Z " fill-rule="nonzero" fill="#cccccc" stroke="none" transform="matrix(1 0 0 1 22 459 )" />
  </g>
</svg>