<?xml version="1.0" encoding="utf-8"?>
<svg version="1.1" xmlns:xlink="http://www.w3.org/1999/xlink" width="13px" height="13px" xmlns="http://www.w3.org/2000/svg">
  <g transform="matrix(1 0 0 1 -24 -553 )">
    <path d="M 12.3804086552734 10.6225961552734  C 12.3804086552734 11.5920973492187  11.5920973492187 12.3804086552734  10.6225961552734 12.3804086552734  L 1.96875 12.3804086552734  C 0.999248805859375 12.3804086552734  0.2109375 11.5920973492187  0.2109375 10.6225961552734  L 0.2109375 1.96875  C 0.2109375 0.999248805859375  0.999248805859375 0.2109375  1.96875 0.2109375  L 10.6225961552734 0.2109375  C 11.5920973492187 0.2109375  12.3804086552734 0.999248805859375  12.3804086552734 1.96875  L 12.3804086552734 3.61298077597656  C 12.3804086552734 3.98637040655043  12.0777165531325 4.28906250869141  11.7043269224609 4.28906250869141  C 11.3309372917894 4.28906250869141  11.0282451896484 3.98637040655043  11.0282451896484 3.61298077587891  L 11.0282451896484 1.96875  C 11.0282451896484 1.74471622449951  10.8466299307739 1.56310096553756  10.6225961552734 1.56310096542969  L 1.96875 1.56310096542969  C 1.74471622442323 1.56310096542969  1.56310096542969 1.74471622442323  1.56310096542969 1.96875  L 1.56310096542969 10.6225961552734  C 1.56310096542969 10.8466299308502  1.74471622442323 11.0282451898438  1.96875 11.0282451898438  L 10.6225961552734 11.0282451898438  C 10.8466299308502 11.0282451898438  11.0282451898438 10.8466299308502  11.0282451898438 10.6225961552734  L 11.0282451898438 9.02163462070313  C 11.0282451898437 8.64824499008554  11.330937291941 8.34555288798828  11.7043269225586 8.34555288798828  C 12.0777165531762 8.34555288798828  12.3804086552734 8.64824499008554  12.3804086552734 9.02163462070313  L 12.3804086552734 10.6225961552734  Z " fill-rule="nonzero" fill="#cccccc" stroke="none" transform="matrix(1 0 0 1 24 553 )" />
  </g>
</svg>