<?xml version="1.0" encoding="utf-8"?>
<svg version="1.1" xmlns:xlink="http://www.w3.org/1999/xlink" width="20px" height="20px" xmlns="http://www.w3.org/2000/svg">
  <g transform="matrix(1 0 0 1 -29 -742 )">
    <path d="M 11.998122265625 18.6812109374316  L 11.998122265625 18.6799804686816  C 11.4566970314223 18.6791757509166  10.9176988633351 18.6076126787147  10.394821484375 18.4671093749316  C 8.81693716062736 18.0481594291404  7.47194743428395 17.0159374059586  6.659118359375 15.6001171874316  L 1.435778515625 6.55371093743164  C 0.248870413118998 4.49295041601207  0.954656677014496 1.86029057673884  3.013239453125 0.669609374931641  C 5.07372505846115 -0.51646262949863  7.70546445441757 0.189224445509974  8.896110546875 2.24707031243164  L 13.504216015625 10.2278906249316  C 13.832751171875 10.7963671874316  13.920114453125 11.4595898436816  13.750309765625 12.0957421874316  C 13.4588202090847 13.169342751128  12.4842571148611 13.9145873087712  11.3717894380537 13.9145873087712  C 10.4944768366085 13.9145873087712  9.68329998807069 13.448226758742  9.241872265625 12.6900585936816  L 6.438864453125 7.83585937493164  C 6.38486503336721 7.74233237991115  6.35643658218014 7.63623865094662  6.35643658218014 7.52824218743164  C 6.35643658218014 7.18846509989008  6.63188033433343 6.91302134773678  6.971657421875 6.91302134773678  C 7.19145186619253 6.91302134773678  7.39455075064756 7.03027882349071  7.504450390625 7.22062499993164  L 10.304997265625 12.0723632811816  C 10.5167640352053 12.4807035052358  10.9384199807188 12.7370167673419  11.3984057449323 12.7370167673419  C 12.0786544398265 12.7370167673419  12.6301049636823 12.1855662434861  12.6301049636823 11.5053175485919  C 12.6301049636823 11.2701990742293  12.562809642897 11.0399926891007  12.436169140625 10.8418945311816  L 7.829294140625 2.86230468743164  C 6.98020391904943 1.39075946764663  5.09925586469739 0.885684982773765  3.627243359375 1.73396484368164  C 2.15686325684536 2.58530686953825  1.65318065584639 4.4662723860557  2.501364453125 5.93847656243164  L 7.725934765625 14.9824218749316  C 8.37570276289408 16.1163713891738  9.45255884037709 16.9428473498757  10.715973828125 17.2772460936816  C 11.976661259642 17.6172059242438  13.3208883819149 17.440042547338  14.450446484375 16.7850585936816  C 15.5829443166548 16.1353653784644  16.4084120733166 15.059554474989  16.742809765625 13.7974804686816  C 17.0849409437524 12.5362664629109  16.9081462031298 11.1905881990738  16.251852734375 10.0605468749316  L 12.468161328125 3.51445312493164  C 12.4142140228652 3.42090849761122  12.3858158100217 3.31482162650805  12.3858158100217 3.20683593743164  C 12.3858158100217 2.86676454754571  12.6614981413641 2.59108221620338  13.00156953125 2.59108221620338  C 13.2216642603348 2.59108221620338  13.425023187272 2.70855756525507  13.534977734375 2.89921874993164  L 17.316208203125 9.44777343743164  C 18.1364412644803 10.8593211683234  18.3579746719811 12.540316664439  17.931442578125 14.1161718749316  C 17.51416873114 15.6951926925469  16.4815437515741 17.0411506594747  15.064450390625 17.8531054686816  C 14.1330453331375 18.3942201548049  13.0753031738899 18.679878450621  11.998122265625 18.6812109374316  Z " fill-rule="nonzero" fill="#cccccc" stroke="none" transform="matrix(1 0 0 1 29 742 )" />
  </g>
</svg>