<?xml version="1.0" encoding="utf-8"?>
<svg version="1.1" xmlns:xlink="http://www.w3.org/1999/xlink" width="18px" height="20px" xmlns="http://www.w3.org/2000/svg">
  <g transform="matrix(1 0 0 1 -33 -895 )">
    <path d="M 17.878886125 2.6706043359375  C 17.878886125 1.3424808046875  16.8393109609375 0.0806483203125001  15.51121140625 0  L 2.5318354140625 0  C 1.2037118828125 0.0806483203125001  0.0699765625 1.3424808046875  0 2.6706283125  L 0 16.857369703125  C 0.0699765625 18.1854692578125  1.2037118828125 19.09692328125  2.5318354140625 19.09692328125  L 6.5720161796875 19.09692328125  C 6.5617271640625 19.09692328125  6.408734875 19.0433196328125  6.408734875 18.9256554140625  L 6.408734875 18.5017668046875  C 6.408734875 16.6063798828125  7.9661429453125 14.8710843984375  9.8942436953125 14.8710843984375  L 10.11546971875 14.8710843984375  C 9.52062503125 14.2673897109375  9.192839265625 13.20534178125  9.192839265625 12.1783580625  C 9.192839265625 9.5537215546875  11.3052070703125 7.48104684375  13.93044315625 7.48104684375  C 15.5884630234375 7.48104684375  16.9733560703125 8.3430224296875  17.878886125 9.6175423125  L 17.878886125 2.6706043359375  Z M 10.5430278203125 6.9367119140625  C 10.5430278203125 7.3535253046875  10.2052408515625 7.6913362734375  9.7884274375 7.6913362734375  L 3.75150446875 7.6913362734375  C 3.334691078125 7.6913362734375  2.996880109375 7.3535253046875  2.996880109375 6.9367119140625  C 2.996880109375 6.5198985234375  3.334691078125 6.1820875546875  3.75150446875 6.1820875546875  L 9.7884034609375 6.1820875546875  C 10.2052168515625 6.1820875546875  10.5430278203125 6.5198985234375  10.5430278203125 6.9367119140625  Z M 14.768890703125 3.616714875  C 14.7688907265625 4.0335282890625  14.431079734375 4.371339234375  14.0142663203125 4.371339234375  L 3.75150446875 4.371339234375  C 3.334691078125 4.371339234375  2.996880109375 4.033528265625  2.996880109375 3.616714875  C 2.996880109375 3.199901484375  3.334691078125 2.862090515625  3.75150446875 3  L 14.0142663203125 3  C 14.4310797109375 2.8620904921875  14.7688906796875 3.1999014609375  14.768890703125 3.616714875  Z " fill-rule="nonzero" fill="#cccccc" stroke="none" transform="matrix(1 0 0 1 33 895 )" />
  </g>
</svg>