<?xml version="1.0" encoding="utf-8"?>
<svg version="1.1" xmlns:xlink="http://www.w3.org/1999/xlink" width="18px" height="18px" xmlns="http://www.w3.org/2000/svg">
  <g transform="matrix(1 0 0 1 -554 -49 )">
    <path d="M 18 9  C 18 4.0625  14 0  9 0  C 4 0  0 4.0625  0 9  C 0 13.9375  4.06250000000006 18  9 18  C 13.9374999999999 18  18 13.9375  18 9  Z M 17.0625 9.0625  C 17.0625 13.5  13.5 17.125  9 17.125  C 4.5625 17.125  0.9375 13.5  0.9375 9.0625  C 0.9375 4.625  4.5625 1.00000000000001  9 1.00000000000001  C 13.4375 1.00000000000001  17.0625 4.625  17.0625 9.0625  Z M 15.25 9.875  C 15.25 9.5625  15.0624999999999 9.37500000000001  14.8125 9.37500000000001  L 9.375 9.37500000000001  L 9.375 3.875  C 9.375 3.625  9.1875 3.4375  8.9375 3.4375  C 8.6875 3.4375  8.5 3.625  8.5 3.875  L 8.5 9.875  C 8.5 10.125  8.6875 10.3125  8.9375 10.3125  L 14.8125 10.3125  C 15.0624999999999 10.3125  15.25 10.125  15.25 9.875  Z " fill-rule="nonzero" fill="#777777" stroke="none" transform="matrix(1 0 0 1 554 49 )" />
  </g>
</svg>