<?xml version="1.0" encoding="utf-8"?>
<svg version="1.1" xmlns:xlink="http://www.w3.org/1999/xlink" width="16px" height="7px" xmlns="http://www.w3.org/2000/svg">
  <g transform="matrix(1 0 0 1 -447 -60 )">
    <path d="M 16 0.629434230020649  C 16 0.281825907932742  15.6927714617124 0  15.3136639621924 0  C 14.9342302959664 0  14.6269813720824 0.281844585531267  14.6269813720824 0.629116711278492  C 14.6269813720824 2.33178299757084  13.1149546224898 3.71713598590355  11.2566408857903 3.71713598590355  L 2.34367006741684 3.71713598590355  L 3.38134867470296 2.76633542466921  C 3.64953914976775 2.52089343005001  3.64953914976775 2.1224634303186  3.38134867470296 1.8771335011463  C 3.11346398074818 1.63103779144424  2.67868392212927 1.63103779144424  2.4104119051517 1.8771335011463  L 0.200735214164638 3.90161438029566  C 0.184602246075428 3.91647492031233  0.169222256214084 3.93200610185698  0.154643798557345 3.94815889364704  C 0.153685684192283 3.94933558076734  0.152319861523438 3.95056830053895  0.15130059084197 3.95211853934127  C 0.138287934351183 3.96677274702816  0.126036300897226 3.98198071120986  0.114586464652916 3.99769181886763  C 0.113220642141414 4.00017593629792  0.111549038204998 4.00228650204619  0.110203601132525 4.00437839034019  C 0.0994474592937422 4.01938887061749  0.0894282432532236 4.0348319273849  0.0801758899013976 4.05066141760072  C 0.0788304528288108 4.05307082449262  0.0774442447209367 4.05555494192291  0.0761191929296956 4.05766550781544  C 0.0669725090230031 4.07375612466582  0.0586196548399585 4.09021521796947  0.05108590759653 4.10699297959648  C 0.0500666370726321 4.10882338179964  0.0494143038176844 4.11093394754789  0.0483950331362166 4.11276434989533  C 0.0410562849233429 4.12992904000363  0.0343698699651895 4.14737389365703  0.0284173298599626 4.16509891099982  C 0.0277707888143368 4.16657592948211  0.0273191105893602 4.16811841562046  0.0270718926298059 4.16969359403409  C 0.0212719620301414 4.18781119698916  0.0164887139349048 4.2061891034118  0.0127409483487781 4.22475508106119  C 0.0123332402022243 4.22598780083278  0.0123332402022243 4.22725787594572  0.0120070734960791 4.2284719181188  C 0.00805230356081665 4.24714949168808  0.00501487727046879 4.2657523551518  0.00334327349162322 4.28508364380396  C 0.00334327349162322 4.28626033092424  0.00334327349162322 4.28719420969649  0.00301710694282065 4.28844560706662  C 0.000997453787476843 4.30765273176192  0 4.32693796480629  0 4.34623401972777  C 0 4.36556530837993  0.00101933661528619 4.38512072792587  0.00301710694282065 4.40437730618389  C 0.00301710694282065 4.4053298624104  0.00301710694282065 4.40656258232627  0.00334327349162322 4.4074404284472  C 0.00532065853792574 4.42677171709934  0.00835808482815992 4.44537458041879  0.0120070734960791 4.46435099513171  C 0.0123536254836836 4.4653035513582  0.0123536254836836 4.46653627127409  0.0127409483487781 4.46780634624275  C 0.0167161037227288 4.48680143855421  0.0214047481955504 4.50476926424503  0.0270718926298059 4.52286783312557  C 0.0273776738972629 4.5243993941851  0.0277038404459518 4.52593095510034  0.0284173298599626 4.52746251630413  C 0.0340640888551889 4.54548637479054  0.0407505038133422 4.56263238730031  0.0483950331362166 4.57977839995436  C 0.0494143036601145 4.5818889658469  0.0500666369150622 4.5837380455043  0.05108590759653 4.58590464390387  C 0.0584246558095174 4.60267710502015  0.0668030599853182 4.61898262689461  0.0761191929296956 4.63485856443572  C 0.0774442445634804 4.6372679713276  0.078504286122552 4.63977076621215  0.0801758899013976 4.64186265465044  C 0.089471637564543 4.6580561109337  0.0995012600802738 4.67339039898313  0.110203601132525 4.68840716785753  C 0.11152865276631 4.69051773375008  0.113200256545156 4.6930018510361  0.114586464652916 4.69483225309497  C 0.126070157657068 4.71062399844077  0.138320488701424 4.72593629184927  0.15130059084197 4.74072305150777  C 0.152319861365868 4.74167560773428  0.153685684034826 4.74313245839967  0.154643798557345 4.74466401960346  C 0.168945740609615 4.7609520734037  0.184339246979448 4.77640957384679  0.200735214164638 4.79094704700829  L 2.4104119051517 6.81548395909751  C 2.53897015033658 6.93367906841979  2.71362449909884 7.0000794302961  2.89574778465374 6.99999970839812  C 3.07796648833187 7.00016058031859  3.25273586147307 6.93375274931836  3.38134867470296 6.81548395909751  C 3.64953914976775 6.56978047838746  3.64953914976775 6.1716119647469  3.38134867470296 5.92628203543032  L 2.34367006741684 4.97548147419597  L 11.2569670524965 4.97548147419597  C 13.8725172885894 4.97548147419597  16 3.02586030982343  16 0.629434230020649  Z " fill-rule="nonzero" fill="#777777" stroke="none" transform="matrix(1 0 0 1 447 60 )" />
  </g>
</svg>