<?xml version="1.0" encoding="utf-8"?>
<svg version="1.1" xmlns:xlink="http://www.w3.org/1999/xlink" width="16px" height="6px" xmlns="http://www.w3.org/2000/svg">
  <g transform="matrix(1 0 0 1 -504 -106 )">
    <path d="M 16 0.539515054303408  C 16 0.241565063942346  15.6927714617124 0  15.3136639621924 0  C 14.9342302959664 0  14.6269813720823 0.241581073312517  14.6269813720823 0.539242895381562  C 14.6269813720823 1.998671140775  13.1149546224898 3.18611655934589  11.2566408857902 3.18611655934589  L 2.34367006741679 3.18611655934589  L 3.38134867470292 2.37114464971647  C 3.6495391497677 2.16076579718572  3.6495391497677 1.81925436884451  3.38134867470292 1.60897157241112  C 3.11346398074813 1.39803239266649  2.67868392212922 1.39803239266649  2.41041190515166 1.60897157241112  L 0.200735214164582 3.34424089739628  C 0.184602246075372 3.35697850312485  0.169222256214028 3.37029094444884  0.154643798557288 3.3841361945546  C 0.153685684192226 3.38514478351486  0.152319861523381 3.38620140046196  0.151300590841914 3.38753017657824  C 0.138287934351127 3.40009092602413  0.12603630089717 3.41312632389416  0.11458646465286 3.42659298760083  C 0.113220642141357 3.4287222311125  0.111549038204942 3.43053128746816  0.110203601132469 3.4323243345773  C 0.0994474592936857 3.44519046052928  0.0894282432531671 3.45842736632991  0.080175889901341 3.47199550080062  C 0.0788304528287543 3.47406070670796  0.0774442447208801 3.47618995021963  0.076119192929639 3.47799900669895  C 0.0669725090229465 3.49179096399928  0.0586196548399018 3.50589875825955  0.0510859075964733 3.52027969679699  C 0.0500666370725755 3.52184861297111  0.0494143038176277 3.52365766932677  0.04839503313616 3.52522658562457  C 0.0410562849232862 3.53993917714597  0.0343698699651328 3.55489190884889  0.0284173298599059 3.57008478085699  C 0.0277707888142801 3.57135079669895  0.0273191105893035 3.57267292767467  0.0270718926297492 3.57402308060064  C 0.0212719620300846 3.58955245456214  0.016488713934848 3.60530494578154  0.0127409483487213 3.62121864090959  C 0.0123332402021675 3.62227525785667  0.0123332402021675 3.62336389366776  0.0120070734960223 3.62440450124468  C 0.00805230356075984 3.64041385001835  0.00501487727041196 3.65635916155868  0.00334327349156639 3.67292883754625  C 0.00334327349156639 3.67393742650648  0.00334327349156639 3.67473789402557  0.00301710694276381 3.67581052034282  C 0.000997453787420003 3.69227377008164  0 3.70880396983397  0 3.72534344548095  C 0 3.74191312146851  0.00101933661522935 3.75867490965074  0.00301710694276381 3.77518054815762  C 0.00301710694276381 3.7759970249232  0.00301710694276381 3.77705364199394  0.00334327349156639 3.77780608152618  C 0.00532065853786891 3.79437575751372  0.0083580848281031 3.81032106893039  0.0120070734960223 3.82658656725575  C 0.0123536254836268 3.82740304402132  0.0123536254836268 3.82845966109208  0.0127409483487213 3.82954829677951  C 0.016716103722672 3.84582980447503  0.0214047481954936 3.86123079792431  0.0270718926297492 3.87674385696478  C 0.0273776738972061 3.87805662358723  0.027703840445895 3.879369390086  0.0284173298599059 3.88068215683211  C 0.0340640888551321 3.8961311783919  0.0407505038132855 3.91082776054313  0.04839503313616 3.92552434281802  C 0.0494143036600578 3.92733339929734  0.0500666369150055 3.92891832471797  0.0510859075964733 3.93077540906046  C 0.0584246558094608 3.94515180430298  0.0668030599852616 3.95912796590966  0.076119192929639 3.97273591237347  C 0.0774442445634239 3.97480111828081  0.0785042861224954 3.97694637103899  0.080175889901341 3.9787394182718  C 0.0894716375644865 3.99261952365745  0.0995012600802173 4.0057631991284  0.110203601132469 4.01863471530646  C 0.111528652766254 4.02044377178579  0.113200256545099 4.0225730151738  0.11458646465286 4.02414193122426  C 0.126070157657012 4.03767771294923  0.138320488701368 4.0508025358708  0.151300590841914 4.06347690129238  C 0.152319861365812 4.06429337805795  0.15368568403477 4.06554210719972  0.154643798557288 4.06685487394583  C 0.168945740609559 4.08081606291746  0.184339246979392 4.09406534901153  0.200735214164582 4.10652604029282  L 2.41041190515166 5.84184339351215  C 2.53897015033653 5.94315348721696  2.71362449909879 6.00006808311093  2.89574778465369 5.99999975005554  C 3.07796648833182 6.00013764027308  3.25273586147302 5.94321664227287  3.38134867470292 5.84184339351215  C 3.6495391497677 5.63124041004639  3.6495391497677 5.28995311264021  3.38134867470292 5.07967031608312  L 2.34367006741679 4.26469840645369  L 11.2569670524965 4.26469840645369  C 13.8725172885894 4.26469840645369  16 2.59359455127722  16 0.539515054303408  Z " fill-rule="nonzero" fill="#777777" stroke="none" transform="matrix(1 0 0 1 504 106 )" />
  </g>
</svg>