<?xml version="1.0" encoding="utf-8"?>
<svg version="1.1" xmlns:xlink="http://www.w3.org/1999/xlink" width="28px" height="28px" xmlns="http://www.w3.org/2000/svg">
  <g transform="matrix(1 0 0 1 -69 -1082 )">
    <path d="M 23.8823529442812 23.9000000041212  C 29.372549018514 18.4000000078886  29.372549018514 9.59999999211141  23.8823529446345 4.09999999623267  C 21.1871657552739 1.50000000376724  17.6934046149093 0  14.0000000001325 0  C 10.3065953853557 0  6.71301246679704 1.50000000376724  4.11764705563043 4.09999999623267  C -1.37254901860237 9.59999999246531  -1.37254901860237 18.4000000082425  4.11764705598377 23.9000000041212  C 6.71301246679704 26.4999999962328  10.3065953581482 28  14.0000000001325 28  C 17.6934046421168 28  21.2869875338212 26.4999999958786  23.8823529442812 23.9000000041212  Z M 22.4848484880647 5.49999999587874  C 27.1764705833794 10.1999999881671  27.1764705833794 17.7999999838688  22.4848484884181 22.5000000041213  C 20.1889483022969 24.8000000118329  17.1942958882441 26.0000000035903  14.0000000001325 26.0000000035903  C 10.8057041120209 26.0000000035903  7.81105169761476 24.8000000114789  5.51515151220028 22.5000000041213  C 0.823529416885592 17.8000000118329  0.823529416885592 10.2000000161312  5.51515151184694 5.49999999623276  C 7.81105169832143 3.19999998816706  10.8057040848134 1.99999999640966  14.0000000001325 1.99999999640966  C 17.1942959154516 1.99999999640966  20.1889483026502 3.19999998852109  22.4848484880647 5.49999999587874  Z " fill-rule="nonzero" fill="#409eff" stroke="none" transform="matrix(1 0 0 1 69 1082 )" />
  </g>
</svg>