<?xml version="1.0" encoding="utf-8"?>
<svg version="1.1" xmlns:xlink="http://www.w3.org/1999/xlink" width="15px" height="15px" xmlns="http://www.w3.org/2000/svg">
  <g transform="matrix(1 0 0 1 -75 -1088 )">
    <path d="M 13.9436619602922 6.4436619602659  L 8.55633801147704 6.4436619602659  L 8.55633801147704 1.0563380397341  C 8.55633801147704 0.422535226961713  8.13380281256977 0  7.49999999981306 0  C 6.86619718705629 0  6.44366196010526 0.422535198917785  6.44366196047915 1.0563380397341  L 6.44366196047915 6.4436619602659  L 1.05633801129004 6.4436619602659  C 0.422535198533325 6.4436619602659  0 6.86619715918368  0 7.5  C 0 7.81690142059517  0.105633806737785 8.02816900565813  0.316901391795597 8.23943661951296  C 0.528168976853351 8.45070423336767  0.739436590702809 8.55633804010813  1.05633801129004 8.5563380397341  L 6.44366196047915 8.5563380397341  L 6.44366196047915 13.9436619602659  C 6.44366196047915 14.260563380861  6.54929576721693 14.471830965924  6.76056338106639 14.6830985794048  C 6.97183099491583 14.8943661932597  7.18309857997366 15  7.50000000018694 15  C 8.13380281294371 15  8.55633803989474 14.5774648010822  8.55633801147704 13.9436619602659  L 8.55633801147704 8.5563380397341  L 13.9436619602922 8.5563380397341  C 14.5774647730489 8.5563380397341  15 8.13380284081632  15 7.5  C 15 6.86619715918368  14.5774648010928 6.4436619602659  13.9436619602922 6.4436619602659  Z " fill-rule="nonzero" fill="#409eff" stroke="none" transform="matrix(1 0 0 1 75 1088 )" />
  </g>
</svg>