<?xml version="1.0" encoding="utf-8"?>
<svg version="1.1" xmlns:xlink="http://www.w3.org/1999/xlink" width="16px" height="6px" xmlns="http://www.w3.org/2000/svg">
  <g transform="matrix(1 0 0 1 -504 -101 )">
    <path d="M 0 5.46067289808927  C 0 5.75866436919137  0.30759034571247 5.99999999987634  0.686605248932437 6  C 1.06600744273339 6  1.37329203269906 5.75868037845713  1.3732920325416 5.46068890710771  C 1.3732920325416 4.00154887052354  2.88519336588138 2.81395344183964  4.74335296328036 2.81395344183964  L 13.6558902441544 2.81395344183964  L 12.6182365570108 3.62885941897738  C 12.3500887108073 3.83945777533351  12.3500887108073 4.18072156550036  12.6182365570108 4.39135193964603  C 12.7521576022393 4.49653105037137  12.9282117980827 4.54924867757232  13.1038583195972 4.54924867781963  C 13.2792194689554 4.54924867781963  13.4551513624687 4.49678719441891  13.5890927912874 4.39135193964603  L 15.7986473499827 2.65604069477125  C 15.8146747219843 2.64322652812321  15.8300558733608 2.62992349612335  15.8447553262491 2.61616228328541  C 15.8456551300139 2.61491014183392  15.8467811313549 2.61376696980921  15.848098256502 2.61276837583019  C 15.861005308779 2.60002512041854  15.8732589037651 2.58688192360455  15.8848297213142 2.57337023415525  C 15.8864808026926 2.57157722644072  15.887826128167 2.56973619191824  15.8894975932933 2.56786313898789  C 15.9001782659759 2.55477228184695  15.9102943297098 2.54140252177027  15.9198285697562 2.5277766103861  C 15.9211535114827 2.52566342279763  15.9225396047678 2.52383839704625  15.9234976393462 2.5219653444869  C 15.9325683950536 2.5083256789633  15.9412518601803 2.49422175252354  15.9485492321792 2.47974961927824  C 15.9496091858123 2.47794060254527  15.9502206973056 2.47630768489138  15.9512806506237 2.47473880318756  C 15.9582926504664 2.45977039098923  15.9653046504666 2.44507413173324  15.9712363134007 2.42964145849508  C 15.9715828366432 2.42858486476268  15.9719497434761 2.42727212698274  15.972581638875 2.4259593892028  C 15.9782075459049 2.41051070706989  15.9829365689704 2.39477386297627  15.9873190689509 2.37876486581662  C 15.9876452086029 2.37769226306581  15.9876452086029 2.37669970528346  15.987950964507 2.37562710240897  C 15.9916200342545 2.359618105373  15.9949629643497 2.34360910846071  15.9966344294761 2.32686369731896  C 15.9966344294761 2.32604723849201  15.9969605691282 2.32527880659669  15.9969605688133 2.32447835691184  C 16.0010131437289 2.29124500244535  16.0010131437289 2.2577835517728  15.9969605688133 2.2245501973063  C 15.9969605688133 2.22373373847935  15.9966344291612 2.22298131560248  15.9966344294761 2.22218086567028  C 15.9949629643497 2.20567558968132  15.9912938946023 2.18942645773993  15.987950964507 2.17341746045662  C 15.9876248248549 2.1723448577058  15.9876248248549 2.17128826372607  15.9873190689509 2.17051983220173  C 15.9829365689704 2.1542546912419  15.9782483132434 2.1385018382535  15.972581638875 2.12305315599694  C 15.9719836451733 2.12186808740249  15.9715331027493 2.12064034302013  15.9712363134007 2.11938709547573  C 15.9652756294141 2.10417144480499  15.9586194314347 2.08912925562922  15.9512806506237 2.07428975078328  C 15.9502206969906 2.07267284214781  15.9496091854974 2.07084781639642  15.9485492321792 2.06929494383469  C 15.9412518601803 2.05459868457868  15.9325683950536 2.04094300991297  15.9234976393462 2.02706320948391  C 15.9225770224198 2.02502219805386  15.921345027745 2.02307627536327  15.9198285697562 2.02126795247948  C 15.9105080182579 2.00762469766772  15.9003868193381 1.99432828183764  15.8894975932933 1.98142155890682  C 15.887826128167 1.97930837131835  15.8864808026926 1.97748334556698  15.8848297213142 1.97593047300522  C 15.8735141587798 1.96237661003317  15.8612515621356 1.94932530376629  15.848098256502 1.93683650206214  C 15.8467733147756 1.93552376428217  15.8457133611425 1.9344831795682  15.8447553262491 1.93317044178826  C 15.8302438612146 1.91929636243979  15.8148551901372 1.90600285579893  15.7986473499827 1.89334005711036  L 13.5890724075396 0.157948767267101  C 13.320924561336 -0.0526495890890288  12.8863844032144 -0.0526495890890288  12.6182161732629 0.157948767267101  C 12.3500683270594 0.368563132518005  12.3500683270594 0.709842931703278  12.6182161732629 0.920441287935745  L 13.6558698604065 1.73510713029171  L 4.74304720737621 1.73510713029171  C 2.12771392016327 1.73565143605266  0 3.40671857579135  0 5.46067289808927  Z " fill-rule="nonzero" fill="#777777" stroke="none" transform="matrix(1 0 0 1 504 101 )" />
  </g>
</svg>