<?xml version="1.0" encoding="utf-8"?>
<svg version="1.1" xmlns:xlink="http://www.w3.org/1999/xlink" width="16px" height="7px" xmlns="http://www.w3.org/2000/svg">
  <g transform="matrix(1 0 0 1 -447 -55 )">
    <path d="M 0 6.37078504777082  C 0 6.7184417640566  0.30759034571247 6.99999999985572  0.686605248932437 7  C 1.06600744273339 7  1.37329203269906 6.71846044153332  1.3732920325416 6.370803724959  C 1.3732920325416 4.66847368227747  2.88519336588138 3.28294568214625  4.74335296328036 3.28294568214625  L 13.6558902441544 3.28294568214625  L 12.6182365570108 4.23366932214028  C 12.3500887108073 4.47936740455577  12.3500887108073 4.87750849308375  12.6182365570108 5.12324392958703  C 12.7521576022393 5.24595289209993  12.9282117980827 5.30745679050104  13.1038583195972 5.30745679078958  C 13.2792194689554 5.30745679078958  13.4551513624687 5.24625172682207  13.5890927912874 5.12324392958703  L 15.7986473499827 3.0987141438998  C 15.8146747219843 3.08376428281041  15.8300558733608 3.06824407881059  15.8447553262491 3.05218933049964  C 15.8456551300139 3.05072849880623  15.8467811313549 3.04939479811073  15.848098256502 3.04822977180188  C 15.861005308779 3.03336264048829  15.8732589037651 3.01802891087198  15.8848297213142 3.00226527318112  C 15.8864808026926 3.0001734308475  15.887826128167 2.99802555723794  15.8894975932933 2.99584032881921  C 15.9001782659759 2.98056766215478  15.9102943297098 2.96496960873198  15.9198285697562 2.94907271211712  C 15.9211535114827 2.94660732659725  15.9225396047678 2.94447812988729  15.9234976393462 2.94229290190139  C 15.9325683950536 2.92637995879052  15.9412518601803 2.90992537794414  15.9485492321792 2.89304122249128  C 15.9496091858123 2.89093070296949  15.9502206973056 2.88902563237328  15.9512806506237 2.88719527038548  C 15.9582926504664 2.86973212282077  15.9653046504666 2.8525864870221  15.9712363134007 2.8345817015776  C 15.9715828366432 2.8333490088898  15.9719497434761 2.83181748147987  15.972581638875 2.83028595406993  C 15.9782075459049 2.81226249158154  15.9829365689704 2.79390284013897  15.9873190689509 2.77522567678606  C 15.9876452086029 2.77397430691011  15.9876452086029 2.7728163228307  15.987950964507 2.77156495281046  C 15.9916200342545 2.75288778960184  15.9949629643497 2.7342106265375  15.9966344294761 2.71467431353879  C 15.9966344294761 2.71372177824068  15.9969605691282 2.71282527436281  15.9969605688133 2.71189141639715  C 16.0010131437289 2.67311916951957  16.0010131437289 2.63408081040161  15.9969605688133 2.59530856352402  C 15.9969605688133 2.59435602822592  15.9966344291612 2.59347820153622  15.9966344294761 2.592544343282  C 15.9949629643497 2.57328818796154  15.9912938946023 2.55433086736324  15.987950964507 2.53565370386606  C 15.9876248248549 2.53440233399009  15.9876248248549 2.53316964101375  15.9873190689509 2.53227313756869  C 15.9829365689704 2.51329713978222  15.9782483132434 2.49491881129575  15.972581638875 2.47689534866309  C 15.9719836451733 2.47551276863624  15.9715331027493 2.47408040019015  15.9712363134007 2.47261827805502  C 15.9652756294141 2.45486668560583  15.9586194314347 2.43731746490076  15.9512806506237 2.42000470924715  C 15.9502206969906 2.41811831583911  15.9496091854974 2.41598911912916  15.9485492321792 2.4141774344738  C 15.9412518601803 2.39703179867512  15.9325683950536 2.3811001782318  15.9234976393462 2.36490707773123  C 15.9225770224198 2.3625258977295  15.921345027745 2.36025565459047  15.9198285697562 2.3581459445594  C 15.9105080182579 2.34222881394567  15.9003868193381 2.32671632881058  15.8894975932933 2.31165848539128  C 15.887826128167 2.30919309987141  15.8864808026926 2.30706390316147  15.8848297213142 2.3052522185061  C 15.8735141587798 2.28943937837203  15.8612515621356 2.274212854394  15.848098256502 2.25964258573915  C 15.8467733147756 2.2581110583292  15.8457133611425 2.25689704282957  15.8447553262491 2.25536551541963  C 15.8302438612146 2.23917908951309  15.8148551901372 2.22366999843209  15.7986473499827 2.20889673329543  L 13.5890724075396 0.184273561811622  C 13.320924561336 -0.0614245206038717  12.8863844032144 -0.0614245206038717  12.6182161732629 0.184273561811622  C 12.3500683270594 0.429990321271013  12.3500683270594 0.828150086987158  12.6182161732629 1.07384816925837  L 13.6558698604065 2.02429165200699  L 4.74304720737621 2.02429165200699  C 2.12771392016327 2.02492667539478  0 3.9745050050899  0 6.37078504777082  Z " fill-rule="nonzero" fill="#777777" stroke="none" transform="matrix(1 0 0 1 447 55 )" />
  </g>
</svg>