<?xml version="1.0" encoding="utf-8"?>
<svg version="1.1" xmlns:xlink="http://www.w3.org/1999/xlink" width="13px" height="13px" xmlns="http://www.w3.org/2000/svg">
  <g transform="matrix(1 0 0 1 -29 -558 )">
    <path d="M 12.7890625 11.03125  C 12.7890625 12.0007511941406  12.0007511939453 12.7890625  11.03125 12.7890625  L 2.37740384472656 12.7890625  C 1.40790265058594 12.7890625  0.619591344726562 12.0007511939453  0.619591344726562 11.03125  L 0.619591344726564 9.42893630585938  C 0.619591344726564 9.05554667518785  0.922283446867542 8.75285457304688  1.29567307753906 8.75285457304688  C 1.66906270821059 8.75285457304688  1.97175481035156 9.05554667518785  1.97175481035156 9.42893630585938  L 1.97175481035156 11.03125  C 1.97175481035156 11.2552837755005  2.15337006922607 11.4368990344624  2.37740384472656 11.4368990345703  L 11.03125 11.4368990345703  C 11.2552837755768 11.4368990345703  11.4368990345703 11.2552837755768  11.4368990345703 11.03125  L 11.4368990345703 2.37740384472656  C 11.4368990344624 2.15337006922607  11.2552837755005 1.97175481035156  11.03125 1.97175481035156  L 2.37740384472656 1.97175481035156  C 2.15337006930234 1.97175481045943  1.97175481045943 2.15337006930234  1.97175481035156 2.37740384472656  L 1.97175481035156 3.97836537929687  C 1.97175481035156 4.35175500996839  1.66906270821059 4.65444711210938  1.29567307753906 4.65444711210938  C 0.922283446867542 4.65444711210938  0.619591344726564 4.35175500996839  0.619591344726562 3.97836537929687  L 0.619591344726562 2.37740384472656  C 0.619591344726562 1.40790265078125  1.40790265078125 0.619591344726562  2.37740384472656 0.619591344726562  L 11.03125 0.619591344726562  C 12.0007511941406 0.619591344726562  12.7890625 1.40790265078125  12.7890625 2.37740384472656  L 12.7890625 11.03125  Z " fill-rule="nonzero" fill="#cccccc" stroke="none" transform="matrix(1 0 0 1 29 558 )" />
  </g>
</svg>