<?xml version="1.0" encoding="utf-8"?>
<svg version="1.1" xmlns:xlink="http://www.w3.org/1999/xlink" width="18px" height="12px" preserveAspectRatio="xMinYMid meet" viewBox="414 297  18 10" xmlns="http://www.w3.org/2000/svg">
  <path d="M 357 335.5  L 415 335.5  A 5 5 0 0 0 420.5 330.5 L 420.5 307  A 5 5 0 0 1 425.5 302.5 L 429 302.5  " stroke-width="3" stroke-dasharray="27,12" stroke="#f59a23" fill="none" />
  <path d="M 362.16066017178 339.43933982822  L 358.22132034356 335.5  L 362.16066017178 331.56066017178  L 360.03933982822 329.43933982822  L 355.03933982822 334.43933982822  L 353.97867965644 335.5  L 355.03933982822 336.56066017178  L 360.03933982822 341.56066017178  L 362.16066017178 339.43933982822  Z M 423.83933982822 298.56066017178  L 427.77867965644 302.5  L 423.83933982822 306.43933982822  L 425.96066017178 308.56066017178  L 430.96066017178 303.56066017178  L 432.02132034356 302.5  L 430.96066017178 301.43933982822  L 425.96066017178 296.43933982822  L 423.83933982822 298.56066017178  Z " fill-rule="nonzero" fill="#f59a23" stroke="none" />
</svg>