<?xml version="1.0" encoding="utf-8"?>
<svg version="1.1" xmlns:xlink="http://www.w3.org/1999/xlink" width="12px" height="12px" viewBox="24 237  12 12" xmlns="http://www.w3.org/2000/svg">
  <path d="M 30 237  C 33.36 237  36 239.64  36 243  C 36 246.36  33.36 249  30 249  C 26.64 249  24 246.36  24 243  C 24 239.64  26.64 237  30 237  Z " fill-rule="nonzero" fill="#ffffff" stroke="none" />
  <path d="M 30 237.5  C 33.08 237.5  35.5 239.92  35.5 243  C 35.5 246.08  33.08 248.5  30 248.5  C 26.92 248.5  24.5 246.08  24.5 243  C 24.5 239.92  26.92 237.5  30 237.5  Z " stroke-width="1" stroke="#797979" fill="none" />
  <path d="M 30 246  C 28.32 246  27 244.68  27 243  C 27 241.32  28.32 240  30 240  C 31.68 240  33 241.32  33 243  C 33 244.68  31.68 246  30 246  " fill-rule="nonzero" fill="#797979" stroke="none" />
</svg>