<?xml version="1.0" encoding="utf-8"?>
<svg version="1.1" xmlns:xlink="http://www.w3.org/1999/xlink" width="12px" height="12px" viewBox="24 181  12 12" xmlns="http://www.w3.org/2000/svg">
  <path d="M 30 181  C 33.36 181  36 183.64  36 187  C 36 190.36  33.36 193  30 193  C 26.64 193  24 190.36  24 187  C 24 183.64  26.64 181  30 181  Z " fill-rule="nonzero" fill="#ffffff" stroke="none" />
  <path d="M 30 181.5  C 33.08 181.5  35.5 183.92  35.5 187  C 35.5 190.08  33.08 192.5  30 192.5  C 26.92 192.5  24.5 190.08  24.5 187  C 24.5 183.92  26.92 181.5  30 181.5  Z " stroke-width="1" stroke="#797979" fill="none" />
  <path d="M 30 190  C 28.32 190  27 188.68  27 187  C 27 185.32  28.32 184  30 184  C 31.68 184  33 185.32  33 187  C 33 188.68  31.68 190  30 190  " fill-rule="nonzero" fill="#797979" stroke="none" />
</svg>