<?xml version="1.0" encoding="utf-8"?>
<svg version="1.1" xmlns:xlink="http://www.w3.org/1999/xlink" width="12px" height="12px" viewBox="24 357  12 12" xmlns="http://www.w3.org/2000/svg">
  <path d="M 30 357  C 33.36 357  36 359.64  36 363  C 36 366.36  33.36 369  30 369  C 26.64 369  24 366.36  24 363  C 24 359.64  26.64 357  30 357  Z " fill-rule="nonzero" fill="#ffffff" stroke="none" />
  <path d="M 30 357.5  C 33.08 357.5  35.5 359.92  35.5 363  C 35.5 366.08  33.08 368.5  30 368.5  C 26.92 368.5  24.5 366.08  24.5 363  C 24.5 359.92  26.92 357.5  30 357.5  Z " stroke-width="1" stroke="#797979" fill="none" />
  <path d="M 30 366  C 28.32 366  27 364.68  27 363  C 27 361.32  28.32 360  30 360  C 31.68 360  33 361.32  33 363  C 33 364.68  31.68 366  30 366  " fill-rule="nonzero" fill="#797979" stroke="none" />
</svg>