<?xml version="1.0" encoding="utf-8"?>
<svg version="1.1" xmlns:xlink="http://www.w3.org/1999/xlink" width="12px" height="12px" viewBox="24 294  12 12" xmlns="http://www.w3.org/2000/svg">
  <path d="M 30 294  C 33.36 294  36 296.64  36 300  C 36 303.36  33.36 306  30 306  C 26.64 306  24 303.36  24 300  C 24 296.64  26.64 294  30 294  Z " fill-rule="nonzero" fill="#ffffff" stroke="none" />
  <path d="M 30 294.5  C 33.08 294.5  35.5 296.92  35.5 300  C 35.5 303.08  33.08 305.5  30 305.5  C 26.92 305.5  24.5 303.08  24.5 300  C 24.5 296.92  26.92 294.5  30 294.5  Z " stroke-width="1" stroke="#797979" fill="none" />
  <path d="M 30 303  C 28.32 303  27 301.68  27 300  C 27 298.32  28.32 297  30 297  C 31.68 297  33 298.32  33 300  C 33 301.68  31.68 303  30 303  " fill-rule="nonzero" fill="#797979" stroke="none" />
</svg>