<?xml version="1.0" encoding="utf-8"?>
<svg version="1.1" xmlns:xlink="http://www.w3.org/1999/xlink" width="12px" height="12px" viewBox="24 126  12 12" xmlns="http://www.w3.org/2000/svg">
  <path d="M 30 126  C 33.36 126  36 128.64  36 132  C 36 135.36  33.36 138  30 138  C 26.64 138  24 135.36  24 132  C 24 128.64  26.64 126  30 126  Z " fill-rule="nonzero" fill="#ffffff" stroke="none" />
  <path d="M 30 126.5  C 33.08 126.5  35.5 128.92  35.5 132  C 35.5 135.08  33.08 137.5  30 137.5  C 26.92 137.5  24.5 135.08  24.5 132  C 24.5 128.92  26.92 126.5  30 126.5  Z " stroke-width="1" stroke="#797979" fill="none" />
  <path d="M 30 135  C 28.32 135  27 133.68  27 132  C 27 130.32  28.32 129  30 129  C 31.68 129  33 130.32  33 132  C 33 133.68  31.68 135  30 135  " fill-rule="nonzero" fill="#797979" stroke="none" />
</svg>